<svg xmlns="http://www.w3.org/2000/svg" xmlns:xlink="http://www.w3.org/1999/xlink" version="1.1" x="0px" y="0px" viewBox="0 0 95 95" style="enable-background:new 0 0 95 95;" xml:space="preserve"><path d="M47.5,0C21.31,0,0,21.31,0,47.5C0,73.69,21.31,95,47.5,95C73.69,95,95,73.69,95,47.5C95,21.31,73.69,0,47.5,0z M47.5,90.55  c-23.74,0-43.05-19.31-43.05-43.05c0-23.74,19.31-43.05,43.05-43.05c23.74,0,43.05,19.31,43.05,43.05  C90.55,71.24,71.24,90.55,47.5,90.55z M66.42,47.5c0,1.23-1,2.23-2.23,2.23H49.73v14.46c0,1.23-1,2.23-2.23,2.23s-2.23-1-2.23-2.23  V49.73H30.81c-1.23,0-2.23-1-2.23-2.23s1-2.23,2.23-2.23h14.46V30.81c0-1.23,1-2.23,2.23-2.23s2.23,1,2.23,2.23v14.46h14.46  C65.42,45.27,66.42,46.27,66.42,47.5z"></path></svg>