<?xml version="1.0" encoding="UTF-8"?><svg xmlns="http://www.w3.org/2000/svg" viewBox="0 0 1932.38 767.23"><g id="a"/><g id="b"><g id="c"><path d="M56.42,143.1c-.77-9.35-1.55-18.71-2.4-29.03h29.03v27.36h28.53v58.79h57.46l-.3-.3v26.74h29.27v-26.72l-.26,.26c8.71-.62,17.42-1.23,27.57-1.95,.42-8.53,.85-17.11,1.26-25.44,.92-.73,1.49-1.58,2.16-1.65,8.17-.93,19.43,1.14,23.68-3.39,4.42-4.71,2.07-15.77,2.81-25.86,18.86,0,37.5,0,56.14,0,0,0-.3-.28-.3-.28v56.38h28.32c.4-8.46,.8-17.06,1.29-27.27h56.26V85.52h56.99c0,9.45,0,18.52,0,27.6l.26-.24c-9.06,.47-18.11,.93-27.18,1.4v56.67h26.37v27.66h-28.31v-26.96h-26.78v55.01h84.76v-26.96l27.77-1.32c.51-9.96,.96-18.72,1.4-27.47l-.24,.27,27.68-1.24v-27.98h28.7v-27.99h27.96c0,9.57,0,18.63,.02,27.71-8.67,.02-17.35,.02-26.62,.02v27.93h26.23v-28.37c9.54,.43,19.07,.87,29.61,1.35v56.38c17.76,0,34.54,.24,51.29-.31,2.06-.07,5.25-4.2,5.72-6.84,1.18-6.63,1.1-13.49,1.51-20.28,8.66-.59,17.34-1.16,26.26-1.75v-26.95h-27.28c.48,10.15,.92,19.62,1.36,29.09-9.51-.58-19.03-1.17-30.05-1.85v-56.39h-28.05v-29.62h57.52l-.25-.26v28.91h27.37c.49,10.01,.92,18.67,1.41,28.79h27.05c0,10.86,0,20.28,0,29.7-8.95,0-17.91,0-26.95,0v26.55c9.15,1.07,17.63,2.07,26.11,3.07,.86,8.54,1.71,17.08,2.56,25.53h26.33v-27.28c-10.31,.72-19.72,1.39-29.1,2.02,.23-10.1,.44-20.18,.65-30.26l58.39,.36-.31-.3v56.51c-10.09,.51-18.7,.94-27.74,1.4v27.12h28.07c0,10.46,0,19.56,0,28.66-9.12,0-18.25,0-28.77,0v29.27h-56.16v28.38h56.49v28.16c5.51,0,9.89-.46,14.13,.09,10.9,1.41,14.6-2.54,14.18-13.9-.89-24.1-.25-48.26-.24-72.4h57.54v29.22c29.34,0,57.31,0,85.27,0,.13,9.99,.26,19.99,.39,29.98h-28.75v27.67h-27.65v26.05c19.43,0,38.07,0,56.68,.03-.02,9.85-.02,19.67-.02,29.19h27.31v-26.03c-9.6-.99-18.56-1.91-27.52-2.83-.12-18.16-.25-36.31-.38-54.48,9.07-.6,18.15-1.19,27.78-1.82v-27.36h-28.24v-29.32h28.77c0-10.62,0-20.04,.01-29.45,18.68,.01,37.35,.01,56.37,.01v-25.85h-55.96v26.22c-12.42,.31-24.83,.79-37.25,.88-19.39,.15-19.35,.04-19.94,19.85-.08,2.65-.75,5.29-1.13,7.87h-27.98v-54.86h-27.14c-.41,9.35-.78,17.64-1.17,26.46h-27.58v-28.13h26.71c.82-10.18,1.52-18.88,2.22-27.58l-.25,.25c8.66-.66,17.32-1.33,27.39-2.1v-27.55h28.41v-28.64l-.34,.28c19.65-.34,39.31-.69,58.95-1.01,.02,10.19,.06,20.36,.08,30.52-9.45-.01-18.88-.01-28.76-.01v26.54h26.98c.49-9.52,.93-18.2,1.38-26.88h28.24v27.65h28.73v27.54h55.6v-27.12h-27.98v-27.91c-10.03-.45-18.65-.84-28.93-1.3v-55.71h-27.87v27.02h-27.78v-56.42c-14.36,0-27.39,0-40.43,0q-18.02-.01-17.72-18.38c.05-2.76,.27-5.52,.48-9.55,9.39-.56,18.35-1.09,28.23-1.68V27.45c10.78,.78,20.49,1.47,30.19,2.17l-.27-.28v55.23c14.55,0,28.89,.7,43.13-.23,10.77-.7,14.72,2.92,13.29,13.49-.62,4.6-.1,9.35-.1,15.31h56.46l-.26-.28c.01,9.65,.02,19.3,.04,28.96-8.96,.01-17.93,.01-27.05,.01v27.82h26.65v-28.27c9.89,.26,19.78,.53,29.68,.79l-.29-.29v84.68h56.48v-27.05h-27.18v-57.64l-.26,.28c10-.34,20.01-.68,30-1-.57,9.4-1.12,18.79-1.7,28.67h27.26v-27.11c-9.17-.43-17.52-.83-25.87-1.22-.6-8.96-1.2-17.92-1.89-28.3h57.2v-27.87h28.56v27.79l.27-.25c-9.05,.45-18.1,.89-29.06,1.43v56.97h-27.89v56.16c-10.24,.5-18.83,.91-27.5,1.33v26.63c9.32,.43,17.91,.83,26.84,1.24,.51,9.83,.96,18.45,1.48,28.49h26.73v27.66h-28.16v-27.21h-26.07c0,19.75,0,38.82-.02,57.88-9.85-.02-19.67-.02-29.36-.02v26.24h26.09c1.04-9.26,2.01-17.85,2.98-26.44h84.39v26.36h28.44c0-19.11,0-37.44,0-55.78,9.02,0,18.05,0,27.35,0v-27.97h-26.96v28.41c-9.48-.43-18.97-.85-29.7-1.33v-57.59c18.75,0,37.49,0,56.9,0v-27.11h-26.95v-28.54c9.59-.48,18.24-.92,26.84-1.35v-27.59h-27.35v-28.84l-.29,.29h26.72c5.18-27.27,4.56-28.05-20.82-28.65-1.97-.05-3.93-.42-5.89-.65l.27,.25v-28.21h55.03c.68-3.17,1.19-4.66,1.3-6.17q1.75-24.72,28.11-21.29v26.95c-8.56,.43-17.18,.86-26.54,1.32v26.82c8.6,.42,17.21,.84,26.69,1.3v28.06h-27.48c0,15.79-.69,30.18,.23,44.47,.69,10.79-2.92,14.81-13.54,13.31-4.32-.61-8.79-.1-14.21-.1v27.08h55.21v-26.51h28.69v26.36h28.08v-55.45h-27.12v-28.19h56.44v26.81h28.57v-27.44h27.34v-28.18h-54.78v-29.4h55.53v-27.2h28v27.36h-26.4v27.9h26.45c.56,10.07,1.05,19.02,1.6,28.88,9.82,0,18.97,0,28.11,0,0,9.46,0,18.92,0,28.69-10.64,.47-19.27,.84-28.22,1.24v26.7h56.73v-27.05c10.01-.45,18.61-.83,27.36-1.22v-27.96h-56.25v-28.73h27.9v-27.43c-8.61-.44-17.26-.88-26.9-1.36v-27.43c8.69-.47,17.63-.95,28.15-1.51V28.48l-.25,.26h56.51V0h28.13V27.8h-26.53v28.39h27.62c-.6,9.82-1.13,18.35-1.62,26.92-8.46,1.11-16.94,2.17-26,3.32v25.82h27.54c-.63-10.49-1.2-19.96-1.77-29.43,15.43,.59,30.86,1.45,46.3,1.67,13.91,.2,27.84-.3,41.76-.5l-.24-.26v29.71h-28.64v28.41l.31-.32h-28.93v-26.93h-28.28c-.39,8.62-.78,17.28-1.24,27.4h-27.63v28.46h-28.69c.6,10.88,1.14,20.65,1.66,30.39-9.77-.46-19.52-.89-29.31-1.33v26.82h26.19c1.02-9.31,1.93-17.51,2.83-25.72,8.59-.6,17.19-1.21,27.24-1.91v56.51h56.4v-26.95h29.45c0,18.94,0,37.65,0,56.36-9.44,0-18.88,0-28.18,0v27.9h27.81v-28.29h28.61v86.49c9.83-.73,20.96,1.62,25.9-2.86,4.56-4.13,2.47-15.6,3.43-25.08h26.86l-.2-.23c.37,1.95,1,3.88,1.08,5.84q1.01,23.75,24.95,21.44c.7-.07,1.33-.73,3.24-1.85v-25.46l-.31,.31c9.45-.55,18.91-1.09,29.32-1.69v-27.62l-.29,.29h29.31v-29.31l-.27,.3h21.1v85.36c-6.74,.47-13.06,.92-20.24,1.42v26.48c6.27,.38,12.85,.78,20.2,1.23v367.97H1.31v-253.31c8.13-.44,15.92-.86,24.13-1.3v-26.9c-7.98-.38-15.48-.74-23.96-1.14v-85.53H53.81v-28.17c-13,0-25.79-.92-38.39,.26-12.69,1.19-16.81-3.55-15.02-15.52,.58-3.86,.09-7.88,.09-12.87,8.6-.47,16.05-.88,24.5-1.34v-55.91c-7.67-.37-15.16-.73-23.57-1.13v-27.5c7.77-.53,15.53-1.07,24.3-1.67v-26.97c9.57-.47,18.18-.9,28.23-1.39,.41-8.82,.81-17.4,1.27-27.1,9.11-.42,17.73-.81,27.08-1.24v-55.62c-8.86,0-17.51,0-26.18-.03-.04-.03,.3,.26,.3,.26Zm1310.34,111.86c-6.29,.47-12.68,.47-18.84,1.64-2.74,.52-6.92,3.17-7.18,5.25-.89,7.26-.34,14.69-.34,21.98h28.29c-.78-10.31-1.5-19.7-2.17-29.06,9.8,.43,19.6,.86,29.44,1.29v-27.34h-25.95c-1.13,9.14-2.2,17.68-3.26,26.23Zm-741.6,259.77c.45,8.6,.91,17.2,1.36,25.85h27.04v-27.25c-10.11,.63-19.46,1.2-28.81,1.78v-29.34h-26.56v26.44c9.59,.92,18.26,1.74,26.97,2.53Zm-254.95-88.38v28.8h25.62v-26.67c-9.37-.65-17.64-1.22-25.91-1.8-.36-1.12-.97-2.21-1.05-3.35-.55-7.43,1.71-17.42-2.22-21.59-3.8-4.02-13.96-1.95-21.31-2.76-1.4-.15-2.69-1.26-4.03-1.92-.15-17.95-.3-35.9-.49-53.89,1.92-.39,3.82-1.06,5.75-1.13q24.41-.91,21.49-25.64c-.08-.68-.87-1.28-2.05-2.91h-25.49v-27.75h-27.95v27.34c10.03,0,19.18,0,28.31,.02,.09,10.17,.19,20.33,.28,30.5h-86.67v-29.02h-27.16v56.15h83.57c0,9.88,0,18.25,.06,26.7-8.91,.95-17.82,1.91-27.11,2.9v26.11h26.83v-29.42c10.26-.04,20.51-.08,30.73-.06v30.65c10.06-.45,19.46-.87,28.82-1.26Zm142.52-113.47l.13,30.76h-57.63v54.21h28.03v-26.75c10.08-.58,18.67-1.07,27.4-1.57,.7-9.62,1.31-17.93,1.87-26.28,1.9-.42,3.78-1.13,5.7-1.21,23.82-.96,24.6-1.91,20.67-26.06-.05-.33-.44-.61-2.04-2.74h-24.45c-.01-9.52-.02-19.03-.04-28.55,28.05-.07,56.1-.14,84.16-.21,.02,9.69,.05,19.37,.09,29.07h-25.99c-3.99,31.15-3.99,30.49,25.57,26.85v-27.29l58.7,.37v29.63h-28.42v56.01c10.14-.71,19.54-1.36,28.91-1.97v29.31h55.13v-27.32c-6.59,0-12.53,.18-18.46-.04-12.3-.45-24.58-1.1-36.87-1.67v-27.03c5.46,0,10.25-.46,14.92,.1,9.86,1.18,13.41-2.48,12.96-12.64-.66-14.76,.19-29.59,.39-44.39h26.98v-28.69h-26.98v-29.02h55.37v-26.69h-112.24v27.01h28.33c0,10.45,0,19.56,0,28.68l-58.76,.07v-55.79h-27.33v25.99c-19.54,0-37.81,0-56.13,.05-.74-8.62-1.48-17.24-2.23-25.99h-26.6v27.2c10.27-.54,19.74-1.03,29.21-1.53-.1,10.08-.21,20.17-.34,30.24h-28.94v27.85c10.09,0,19.53,0,28.94,.03Zm912.85-28.16h-27.72v27.78h27.32c0-9.93,0-19.05,.01-28.16h27.84v-26.91h-27.45v27.29ZM139.69,342.46c9.64,.11,19.28,.23,28.94,.32v26.8h27.91v-26.38h-28.36c.34-9.79,.68-19.57,1.02-29.36h28.37v-58.85c9.41,.66,18.81,1.31,29.57,2.06v28.13h27.63v27.17h26.78c0-19.82,0-38.65,.03-57.46,9.46,.42,18.93,.85,29.02,1.3v-55.72h-28.69v54.71c-8.68,.45-17.36,.91-27.93,1.46v-56.15h-27.6v26.93c-9.95,.49-18.91,.93-28.47,1.4,0,9.77,0,18.16,.01,26.58-9.35,.62-18.7,1.24-28.32,1.88,0,19.64,0,38.28-.03,56.9l-30.61,.09v-85.55c-9.19-.46-17.82-.9-26.82-1.35-.49-9.83-.93-18.43-1.35-26.9h-26.47c-.49,9.44-.93,18.03-1.39,26.97-9.9,.51-18.49,.95-27.09,1.4v27.3h54.98v29.13h-26.27v28.67c18.83,0,36.82,0,54.84-.03,.23,9.65,.46,19.31,.68,28.96h-27.42v26.62h27.03v-27.01Zm284.67-58.31c-8.65,.5-17.3,.99-26.14,1.5v55.37h25.78c0-19.69,0-38.42,.05-57.11h29.33v-25.99c-25.82-4.87-26.78-4.15-27.62,19.36-.08,2.31-.92,4.58-1.41,6.87Zm-54.11-29.48v29.16h25.59v-26.51c-9.33-.85-17.58-1.61-25.83-2.36v-54.61h-28.89v55.99c10.24-.6,19.7-1.15,29.14-1.66Zm711.62,29.24c10.02,.12,20.04,.24,30.06,.36v56.85h26.98v-56.46c-9.8,0-18.6,0-27.41,.01v-55.87h-29.25c0,18.96,0,37.25,.02,55.55-8.97,.41-17.94,.81-27,1.22v26.75h26.6v-28.42Zm658.14,201.39h55.3v-56.68h-27.26v28.17h-27.62c0,10.54,0,19.72-.02,28.89h-28.4v26.66h28v-27.04Zm-255.6-171.14c8.58-.56,17.16-1.13,25.93-1.7,.52-9.85,.97-18.46,1.48-28.03h27.55v29.26h29.54c0,10.69,0,20.12-.03,29.53h-28.57v26.32h28.17v-26.69h28.6v26.41c3.76,.49,6.06,.98,8.37,1.07,19.77,.82,19.54,.79,19.86-18.55,.21-13.03,1.2-26.04,1.83-39.06l-.34,.3h25.97v-57.23h-84.75v-26.92h-28.73v26.92c-18.28-.28-36.57-.56-54.91-.8-.97-8.56-1.94-17.12-2.93-25.82h-26.15v27.16c10.4-.57,19.91-1.09,29.42-1.62,0,19.89,.01,39.79-.04,59.64h-29.49v26.62h26.29c1.04-9.59,1.98-18.21,2.91-26.82Zm-88.73,82.83c9.68,.66,19.35,1.31,29.15,1.98v-55.43c-19.77,0-38.89,0-57.98-.04,.44-9.7,.87-19.39,1.3-28.99h-26.82v26.6c9.29,.75,17.54,1.42,25.78,2.09,.89,8.62,1.79,17.24,2.84,27.43h27.52c-.6,10.01-1.1,18.32-1.54,26.7-8.84,1.06-17.68,2.11-26.5,3.16v25.94h27.67c-.51-10.44-.97-19.94-1.43-29.45Zm29.81,88.24v26.87h27.81v-26.46h-28.24v-28.3h-83.64v27.91c28.79,0,56.42,0,84.08-.02Zm255.52-58.96h57.95c.4-9.11,.78-17.72,1.18-26.98,9.54-.43,18.16-.82,27.35-1.23v-27.13h-27.97v-27.69h-56.31v27.08h27.18v27.66c-9.24,.96-20.89-1.16-25.56,3.59-4.75,4.84-2.62,16.43-3.46,25.11-8.64,.62-17.27,1.24-26.21,1.89v26.76h27.21c-.47-10.18-.91-19.62-1.35-29.06Zm-913.1,2.18h-55.27v27.95h26.77c.49,10.21,.9,18.87,1.31,27.32h27.19v-55.27Zm230.48-143v55.68h54.56v-27.5h-26.83c-.51-9.85-.97-18.79-1.45-28.18h-26.28ZM455.45,428.4v55.35h26.64v-55.35h-26.64Zm-285.68,26.75h55.23v-26.69h-55.23v26.69Zm1397.88-55.13h-27.05v55.03h27.05v-55.03Zm230.21-.14v26.4h54.92v-26.4h-54.92Zm-599.72,28.57v26.92h55.05v-26.92h-55.05Zm-57.23,83.76h55.14v-26.18h-55.14v26.18Zm-314.21-142.71h26.35v-55.07h-26.35v55.07Zm-57.55,170.96h55.73v-25.73h-55.73v25.73Zm-199.06-140.5v55.23h26.17v-55.23h-26.17Zm768.55-1.96v-26.28h-55v26.28h55Zm-399.8-171.14v-26.23h-54.77v26.23h54.77ZM1652.71,83.99v-26.48h-54.63v26.48h54.63ZM969.29,397.83h55.3v-25.79h-55.3v25.79Zm-28.56,85.86h27.09v-26.2h-27.09v26.2ZM169.6,626.62h27.03v-26.75h-27.03v26.75Zm1740.68-198.17h-26.99v26.9h26.99v-26.9Zm-626.55-.08v26.85h26.56v-26.85h-26.56Zm-772.91,142.85h-26.95v26.72h26.95v-26.72Zm771.24,.06h-27v26.84h27v-26.84ZM82.22,314.41h-26.34v26.95h26.34v-26.95Zm256.7,340.99v-26.9h-26.39v26.9h26.39Zm488.04-198.57v27.33h26.02v-27.33h-26.02Zm-171.43,.24v27.07h26.5v-27.07h-26.5Zm-400.44,27.05h26.81v-26.79h-26.81v26.79Zm1571.24,115.32v27.38h26.08v-27.38h-26.08Zm-771.14-171.28v26.99h26.32v-26.99h-26.32Zm-999.12,.17v27.03h26.21v-27.03h-26.21Zm169.06-30.19v-26.17h-26.48v26.17h26.48Zm544.22,287.76v26.21h27v-26.21h-27Zm286.65-28.78c-3.92,30.16-3.95,29.18,25.64,25.81v-25.81h-25.64Zm599.26-28.88v26.97h25.89v-26.97h-25.89Zm-571.86-230.41h27.05v-26h-27.05v26Zm143.18-26.36v26.26h26.6v-26.26h-26.6Zm228.82,.13v26.47h26.28v-26.47h-26.28ZM84.54,399.88v26.78h26.09v-26.78h-26.09Zm428.35,.02v26.54h26.19v-26.54h-26.19Zm342.56,26.43h26.23v-26.48h-26.23v26.48Zm171.62-26.63v26.86h25.82v-26.86h-25.82Zm142.73,.2v26.73h26.01v-26.73h-26.01Zm314.13,226.55h25.97v-26.63h-25.97v26.63Zm26.18-198.01h-26.16v26.93h26.16v-26.93ZM597.96,226.45h26.97v-26.13h-26.97v26.13Zm886.18-55.08v26.89h25.81v-26.89h-25.81Zm-943.16,26.79h26.23v-26.43h-26.23v26.43Zm654.7,428.68v-27.01h-25.97v27.01h25.97Zm-968.48-114.26h26.29v-26.49h-26.29v26.49Zm168.79-.08v-26.7h-26.03v26.7h26.03Zm1114.07,0v-26.71h-26.04v26.71h26.04Zm-1368.95,1.91v26.28h26.96v-26.28h-26.96Zm198.2,26.3v-26.23h-27v26.23h27Zm516.16,58.78v26.96h25.95v-26.96h-25.95Zm56.79-58.68h26.6v-26.44h-26.6v26.44Zm369.9-26.01h-26.88v25.57h26.88v-25.57Zm-569.72,83.3h26.3v-26.82h-26.3v26.82Zm1170.68-57.5h27.08v-26.04h-27.08v26.04Zm-1458.41,57.53v-26.08c-29.65-3.55-29.37-4.43-25.63,26.08h25.63Zm1313.84-28.77v-26.17h-26.74v26.17h26.74Zm-599.61,.08v-26.33h-26.64v26.33h26.64Zm257.14,.62v-27.02h-26.73v26.08c2.56,.38,4.47,.87,6.39,.91,6.38,.1,12.76,.04,20.34,.04Zm171.45-26.6c-30.71-2.83-29.78-4.6-26.55,25.54h26.55v-25.54Zm30.39,.19v25.85h25.64c3.92-30.12,3.87-29.38-25.64-25.85Zm-571.2,25.58h26.06v-26.14h-26.06v26.14Zm-916.09,.24v-26.2h-26.13v26.2h26.13Zm1230.35-28.88h25.99v-25.99h-25.99v25.99Zm-342.76-26.23v26.16h26.31v-26.16h-26.31Zm-485.71,.02v26.17h26.43v-26.17h-26.43ZM1538.75,200.66h-26.21v26.08h26.21v-26.08Zm-28.41,142.53h-26.17v26.26h26.17v-26.26Zm-914.42,340.68v-26.63h-25.96v26.63h25.96Zm-54.83-286.02h26.08v-26.06h-26.08v26.06ZM84.29,711.77h26.24v-25.82h-26.24v25.82ZM424.51,398.02v-26.41h-26.05v26.41h26.05Zm887.86,313.98h26.51v-26.02h-26.51v26.02Zm456.83-26.19v26.15h26.47v-26.15h-26.47Z"/></g></g></svg>