<?xml version="1.0" encoding="UTF-8"?><svg xmlns="http://www.w3.org/2000/svg" viewBox="0 0 317.98 317.98"><defs><style>.d{stroke-width:1.11px;}.d,.e,.f,.g,.h,.i{stroke:#000;}.d,.e,.f,.h,.i{fill:none;}.d,.e,.j,.g,.h,.i{stroke-miterlimit:10;}.k,.j,.g{fill:#fff;}.e{stroke-width:2.55px;}.f{stroke-linecap:round;stroke-linejoin:round;stroke-width:.84px;}.j{stroke:#fff;}.j,.g{stroke-width:31.31px;}.h{stroke-width:3.54px;}.i{stroke-width:2.83px;}</style></defs><g id="a"/><g id="b"><g id="c"><g><path class="g" d="M301.29,158.52c0-77.91-63.16-141.08-141.08-141.08S19.14,80.61,19.14,158.52"/><path class="j" d="M19.15,158.52c0,.15,0,.3,0,.45,0,77.91,63.16,141.08,141.08,141.08s141.08-63.16,141.08-141.08c0-.15,0-.3,0-.45"/></g><g><path d="M109.4,44.63c-.73,.34-1.45,.46-2.15,.38-.7-.09-1.33-.36-1.9-.82-.57-.46-1.03-1.08-1.39-1.87l-.15-.32c-.35-.75-.5-1.5-.46-2.24,.04-.74,.24-1.4,.59-1.98,.36-.58,.84-1.01,1.46-1.29,.71-.33,1.38-.46,2-.38,.62,.07,1.17,.32,1.66,.74,.49,.42,.9,.99,1.23,1.71l.42,.9-5.16,2.37v.05c.24,.51,.53,.92,.88,1.23,.35,.32,.74,.51,1.16,.59,.42,.08,.86,.02,1.3-.19,.49-.22,.89-.49,1.19-.8,.31-.31,.54-.65,.69-1.02l1,.68c-.16,.41-.43,.81-.81,1.21-.38,.4-.9,.76-1.56,1.06Zm-4.34-3.97l3.67-1.68-.09-.19c-.17-.38-.4-.69-.67-.93-.27-.24-.58-.38-.93-.44-.35-.05-.72,.02-1.12,.2-.32,.15-.57,.38-.75,.69-.18,.31-.28,.67-.3,1.07-.02,.4,.03,.82,.17,1.26l.03,.03Z"/><path d="M113.07,42.76l-.36-.95,.84-.51,1.32-3.93-3.48-2.02-.88,.13-.36-.96,3.21-1.2,.36,.96-.78,.4,2.46,1.46,.85-2.71-.91,.25-.36-.96,3.16-1.18,.36,.96-.77,.49-1.14,3.72,3.69,2.08,.91-.14,.36,.95-3.48,1.3-.36-.95,.95-.45-2.61-1.52-.92,2.84,.92-.25,.36,.95-3.35,1.25Z"/><path d="M129.15,37.55c-.62,.17-1.17,.12-1.64-.15s-.81-.8-1.03-1.61l-1.38-5.13-1.33,.36-.31-1.14,1.33-.36-.55-2.04,1.54-.42,.55,2.04,1.83-.5,.31,1.14-1.83,.5,1.38,5.13c.11,.41,.27,.68,.48,.83,.21,.15,.46,.19,.73,.11,.18-.05,.38-.12,.59-.21,.21-.09,.38-.17,.5-.23l.48,.95c-.21,.13-.46,.26-.78,.4-.31,.14-.61,.25-.89,.32Z"/><path d="M135.44,36.1c-.79,.17-1.52,.13-2.18-.11-.66-.24-1.22-.64-1.67-1.22-.45-.58-.77-1.29-.95-2.13l-.07-.35c-.17-.81-.16-1.57,.04-2.29,.2-.71,.54-1.31,1.02-1.8,.48-.49,1.05-.8,1.71-.94,.77-.16,1.45-.14,2.03,.07s1.07,.57,1.46,1.09c.38,.52,.66,1.16,.82,1.94l.21,.97-5.55,1.17v.04c.11,.55,.31,1.01,.58,1.4,.27,.39,.6,.67,1,.83,.39,.17,.83,.21,1.31,.1,.53-.11,.97-.28,1.34-.52s.67-.51,.9-.84l.82,.88c-.24,.36-.6,.69-1.06,1s-1.04,.54-1.75,.69Zm-3.36-4.83l3.95-.83-.04-.21c-.09-.41-.24-.76-.45-1.06-.21-.29-.48-.5-.81-.63-.33-.13-.71-.14-1.14-.05-.35,.07-.64,.24-.88,.5s-.42,.59-.53,.97-.15,.81-.11,1.26l.02,.04Z"/><path d="M139.68,35.03l-.13-1.01,1.28-.4-.81-6.2-1.34-.05-.13-1.02,2.72-.36,.28,1.28c.23-.5,.54-.9,.95-1.21s.88-.5,1.44-.58c.93-.12,1.69,.06,2.28,.54s.95,1.29,1.1,2.44l.56,4.24,1.34,.05,.13,1.01-4.19,.55-.13-1.01,1.28-.4-.55-4.21c-.1-.76-.32-1.29-.67-1.57-.34-.28-.83-.38-1.45-.3-.45,.06-.84,.22-1.16,.49-.32,.26-.56,.6-.72,1.01l.67,5.09,1.34,.05,.13,1.01-4.19,.55Z"/><path d="M154.12,33.68c-.81,.04-1.52-.1-2.14-.44-.62-.34-1.11-.82-1.47-1.46-.36-.64-.57-1.39-.61-2.25l-.02-.35c-.04-.83,.08-1.58,.39-2.25,.31-.67,.73-1.21,1.28-1.62s1.16-.63,1.83-.67c.79-.04,1.45,.08,2,.38,.55,.29,.97,.73,1.27,1.29,.3,.57,.47,1.25,.52,2.04l.05,.99-5.67,.31-.02,.04c.04,.56,.17,1.05,.38,1.47,.21,.42,.5,.75,.86,.98,.36,.23,.79,.33,1.28,.3,.54-.03,1.01-.13,1.4-.31,.4-.18,.74-.41,1.02-.69l.68,1c-.3,.32-.7,.6-1.2,.83-.5,.24-1.11,.37-1.84,.41Zm-2.58-5.28l4.03-.22v-.21c-.03-.42-.13-.79-.29-1.11-.17-.32-.4-.57-.7-.75-.3-.17-.68-.25-1.12-.23-.36,.02-.67,.14-.95,.36-.28,.22-.5,.52-.67,.88s-.27,.78-.3,1.23l.02,.04Z"/><path d="M163.11,33.54c-.57,0-1.06-.13-1.48-.35s-.76-.55-1.04-.98l-.16,1.12-1.37-.02,.18-11.36-1.31-.25,.02-1.03,2.91,.05-.08,4.9c.28-.38,.62-.67,1.04-.87,.41-.2,.89-.29,1.43-.28,.72,.01,1.33,.22,1.84,.61,.5,.4,.89,.95,1.15,1.66,.26,.71,.38,1.53,.37,2.47v.17c-.02,.84-.16,1.57-.45,2.2-.28,.63-.68,1.11-1.19,1.46-.51,.35-1.13,.51-1.84,.5Zm-.38-1.3c.75,.01,1.31-.25,1.68-.77s.56-1.23,.58-2.11v-.17c.01-.67-.06-1.27-.21-1.78-.15-.51-.39-.91-.72-1.21-.32-.29-.74-.44-1.25-.45-.49,0-.91,.1-1.25,.34-.34,.23-.61,.55-.82,.94l-.06,3.86c.19,.41,.46,.73,.8,.97,.34,.24,.75,.37,1.24,.37Z"/><path d="M167.53,33.51l.08-1.01,1.33-.12,.49-6.23-1.3-.33,.08-1.02,2.73,.22,.05,1.12v.15c.29-.43,.62-.75,1-.97,.38-.22,.81-.32,1.28-.28,.17,.01,.34,.04,.51,.09s.29,.08,.37,.11l-.33,1.46-1.1-.15c-.42-.06-.78,0-1.08,.2-.3,.2-.54,.47-.73,.82l-.39,4.94,1.29,.33-.08,1.02-4.21-.33Z"/><path d="M174.23,34.08l.13-1.01,1.33-.06,.79-6.2-1.28-.39,.13-1.02,2.89,.37-.95,7.44,1.28,.39-.13,1.01-4.19-.53Zm2.6-10.66l.22-1.69,1.66,.21-.21,1.69-1.66-.21Z"/><path d="M182.84,35.52c-.58-.1-1.11-.26-1.59-.47-.48-.21-.99-.49-1.51-.83l.35-2.05,1.18,.21,.07,1.29c.27,.18,.55,.32,.81,.42,.27,.11,.56,.19,.89,.25,.64,.12,1.11,.08,1.43-.12,.32-.19,.51-.47,.58-.83,.06-.34-.03-.65-.26-.94-.24-.29-.71-.58-1.41-.88-1-.43-1.7-.88-2.12-1.37s-.57-1.07-.45-1.74c.08-.47,.29-.86,.63-1.18s.77-.54,1.29-.67c.52-.13,1.1-.14,1.75-.02,.65,.12,1.2,.29,1.63,.53,.44,.23,.81,.5,1.1,.82l-.28,1.98-1.18-.21-.05-1.19c-.16-.17-.36-.32-.6-.44s-.53-.21-.85-.27c-.49-.09-.91-.05-1.25,.13-.35,.17-.55,.43-.61,.78-.04,.2-.02,.38,.04,.55,.06,.16,.2,.33,.43,.49,.23,.17,.57,.35,1.03,.55,1.15,.5,1.92,1.01,2.32,1.53s.54,1.1,.42,1.74c-.13,.73-.51,1.29-1.14,1.68-.63,.39-1.52,.48-2.68,.28Z"/><path d="M191.2,37.14l.27-.98,1.33,.12,2.64-9.76-1.21-.56,.27-.99,2.81,.76-2.97,10.97,1.21,.56-.27,.98-4.08-1.1Z"/><path d="M199.81,39.84c-.9-.3-1.5-.83-1.82-1.57s-.26-1.73,.15-2.95l1.24-3.7-.88-.54,.33-.97,.95,.32,1.51,.51-1.65,4.9c-.3,.88-.37,1.54-.22,1.96,.15,.42,.5,.72,1.05,.91,.54,.18,1.02,.22,1.44,.12s.79-.32,1.1-.66l1.61-4.79-1.04-.59,.33-.97,1.11,.37,1.51,.51-2.39,7.11,.88,.53-.32,.97-2.31-.78,.31-1.26c-.41,.36-.86,.59-1.35,.69-.49,.1-1,.06-1.54-.12Z"/><path d="M205.3,41.53l.4-.94,.96,.21,3.66-1.94-1.13-3.86-.72-.51,.4-.94,3.15,1.34-.4,.94-.84-.25,.78,2.76,2.48-1.38-.83-.45,.4-.94,3.1,1.32-.4,.94-.89-.18-3.39,1.91,1.24,4.05,.76,.53-.4,.94-3.41-1.46,.4-.94,1,.33-.85-2.9-2.63,1.42,.83,.45-.4,.94-3.29-1.4Z"/></g><g><polygon points="69.81 82.59 91.05 102 92.68 98.42 116.25 119.25 117.44 116.06 130.46 128.32 120.57 122.91 119.27 125.67 95.25 105.23 93.96 107.99 69.81 82.59"/><polygon points="67.3 219.47 88.55 200.05 90.18 203.64 113.75 182.81 114.93 186 127.95 173.74 118.07 179.15 116.77 176.39 92.75 196.82 91.45 194.07 67.3 219.47"/><polygon points="51.66 137.98 78.74 147.74 78.87 143.8 108.63 153.98 108.5 150.58 125.23 156.9 114.03 155.7 113.89 158.75 83.86 149.11 83.72 152.15 51.66 137.98"/></g><g><polygon points="254.84 82.59 233.59 102 231.96 98.42 208.39 119.25 207.2 116.06 194.18 128.32 204.07 122.91 205.37 125.67 229.39 105.23 230.69 107.99 254.84 82.59"/><polygon points="257.34 219.47 236.1 200.05 234.46 203.64 210.89 182.81 209.71 186 196.69 173.74 206.57 179.15 207.87 176.39 231.89 196.82 233.19 194.07 257.34 219.47"/><polygon points="272.98 137.98 245.9 147.74 245.78 143.8 216.01 153.98 216.14 150.58 199.41 156.9 210.61 155.7 210.75 158.75 240.78 149.11 240.92 152.15 272.98 137.98"/></g><ellipse class="e" cx="159.39" cy="159.75" rx="141.17" ry="139.4"/><circle class="h" cx="158.99" cy="158.99" r="157.22"/><circle class="i" cx="159.74" cy="158.29" r="125.83"/><path class="k" d="M265.48,235.95c-5.97-31.04-207.32-33.53-215.31-.39-3.99,16.56,39.92,43.54,77.26,51.77,71.32,15.72,141.81-31.83,138.05-51.38Z"/><g><path d="M173.61,62.06c2.59,1.24,5.25,2.3,7.55,4.07,4.93,3.98,9.34,8.29,11.08,14.51,3.38,19.97,.74,43.12,1.54,65.35,.2,16.4,1.39,36.6-.28,52.53-.72,2.49-2.79,4.48-5.64,4.4-.65,1.38-3.44,1.87-3.21,3.8-.07,1.53,2.36,1.03,2.57,2.33,2.03,3.01-5.57,5.49-1.13,7.54,2.24,.03,2.4,4.08,.19,4.46-2.84,1.44,.87,2.45,1.18,3.88,1.91,2.37-3.51,3.42-2.3,5.36,.84,.99,2.43,1.33,2.67,2.81-.47,11.53-36.82,3.96-47.15,6.02-6.47-2.62,1.57-5.08-.59-8.21-2.07-.62-2.75-3.19-1.69-4.83,.99-.76,2.94-.9,2.36-2.69-1.26-1.05-2.78-1.22-2.87-3.14,.41-1.54,1.75-1.93,2.67-3.07,1.59-2.84-4.36-3.46-2.13-6.33,.3-1.34,3.05-1.6,2.26-3.5-1.12-1.18-2.55-2.06-2.17-4.02-1.82-.79-5.91-.85-5.96-4.37-1.35-16.61-.64-31.7-1.02-48.27,.57-23.14-2.62-45.57,.65-68.64,4.41-15.46,21.11-24.05,37.01-21.43m-15.3,90.41c2.04,.19,3.59-1.2,5.52-.18,2.08,.15,4.3,0,6.34,.48,1.17-.56,3.32-.58,4.23,.34,1.25-.82,3.25-1.17,4.66-.26,3.64,3.25,1.71,10.71,2.24,13.63-.43,6.59,.41,15.19,.08,21.22-.65,3.8,.69,7.52,.36,8.6-.08,1.41-1.08,6.95,1.4,6.79,2.42-.98,8.01,.23,10.63-.57,.41-1.4,4.82-4.68,3.39-6.42,.57-2.62-.87-5.69,.1-7.49-1.88-32.3,1.3-69.74-1.64-104.09-2.31-9.71-10.75-17.61-19.98-20.56-15.74-5.26-34.67,4.51-38,20.72-2.67,36.97-.18,77.35,.18,113.12-1.27,8.14,10.12,4.59,15.2,5.31,1.94-3.49,.47-10.3,.44-13.76,.83-.71-.5-1.12,.14-1.85,.03-.45-2.13-34.22,3.36-35.84m-2.35,32.7c-.03,5.34,.29,12.48,.22,17.31-.15,1.49,2.49,1.16,3.03,1.01,.69,.45,.44,.2,1.3-.02,.88,.38,.81,.28,1.67,.01,6.57,.19,13.07-.32,18.86,.43,1.65-1.34,.08-13.49,.78-16.01,.08-4.28-.36-8.08-.05-11.75-1.15-4.28-.34-19.67-1.63-21.36-.87-.71-3.92-1.1-3.1,.3,1.51,1.72,.02,7.83-2.38,4.36-1.77-1.94,2.01-5.86-1.74-5.16-.68-.15-1.16,.7-.9,1.21,.96,7.77-4.53,4.88-2-1.17-5.66-2.04-.76,2.79-3.36,5.15-1.3,1.47-2.12-1.23-2.54-2.03-.57-1.1,1.12-2.32,.77-3.35-5.22-2.42-.92,4.02-3.51,6.28-2.21-1.11-2.9-3.79-1.47-5.85-7.04-3.44-3.83,27.98-3.96,30.63Zm-8.8,26.18c.23,1.22-1.02,1.24-1.73,1.74-.45,1.69,4.32,.04,5.17,.33,13.76,.05,26.94-.85,41.16-.89,2.94-3.4-22.1-.21-25.51-1.03,5.54-1.48,15.88-.43,23.09-1.25,1.63-.46-.61-1.71,.39-2.39-6.84-1.77-17.44,.33-25.26,.04-3.37-.07-6.68,.3-9.32,.44-4.13,.43-8.26-1.78-8,3Zm14.8,8.81c7.35-1.16,15.29-.53,22.77-.73,1.22-1.3,6.8,.99,5.31-1.39-.05-3.16-1.36-2.42-3.75-2.35-11.9,.07-24.17,.35-35.39,.89-5.15-.17-2.51-.2-3.76,2.94,3.4,1.93,10.87-.39,14.81,.65Zm-10.39,12.34c-1.7-.8-3.4-.27-4.69,0,.99,1.47,.08,2.58,.53,3.4,14.55-.94,30.02-.56,43.23-2.19-1.09-4.7-4.67-2.59-8.41-2.51-10.28,.31-20.93,.21-30.67,1.31Zm-4.4-7.53c1.03,1.27-.49,2.42,.61,2.65,7.73-1.16,16.58,.02,24.29-1.22,3.83,.39,8.76-.31,12.97-.05,2.24-.6,6.25,1.13,5.21-2.39-13.69-1-28.92,.8-43.07,1.01Zm-2.11-1.06c15.43,.1,31.33-.84,46.21-1.35,6.98-4.44-12.93-2.07-15.71-2.23-2.64,.09-38.3-.06-27.79,1.88,14.45-.47,29.84-1.18,43.94-1.24-11.48,2.78-34.69-.64-46.65,2.95Zm47.48,11.14c-15.89,.43-32.31,.06-47.23,2.41,8.47,1.91,24.9-2.78,31.78-.44-10.5,.61-21.5,1.35-31.68,1.55-.28,3.18,7.62,.04,10.58,.83,7.93-.58,15.8-.58,23.94-1.38,3.84-.45,9.34,.67,12.38-1.27-4.31-.84-10.87,1.34-13.99-.44,4.2-1.07,11.68,.87,14.22-1.26Zm-16.23-5.7c-.97,.15-38.05-.45-30.11,2.14,14.03,.13,28.41-1.13,42.93-1.4,9.05-1.93-10.8-1.69-12.82-.74Zm12.53-15.95c-13.38,.66-32.58-.68-43.61,1.88,2.05,1.53,58.8-1.02,43.61-1.88Zm-16.05-7.58c-9.77-.21-18.65,.4-27.54,.62,.15,2.01,2.67,1.16,3.89,.86,15.01-.22,27.97-.41,42.82-1.28,.28-1.93-6.11-.5-8-.73-3.45,.25-7.82-.49-11.18,.53Zm19.52,21c-9.59-.35-71.9,2.67-33.68,2.1,7.81-.24,15.89-.22,23.68-.88,2.54-.42,8.68,1.09,10-1.21Zm-21.54,12.6c5.27,.91,13.5,.7,19.25,.01,.78-2.35-16.23,.47-19.25-.01Zm4.81-83.86c-.64,1.03-.76,3.38,.48,3.75,.97-.83,1.02-3.92-.48-3.75Zm-9.9-.58c-.44,.76-1.34,4.15,.57,3.29,.53-.58,.63-3.41-.57-3.29Zm-5,3.56c1.18-.32,.94-2.25,.58-3.09-1.78-.64-.93,2.3-.58,3.09Zm10.14-3.04c-.7,.63-.95,2.82,.09,3.17,.72-.83,.79-2.36-.09-3.17Zm-24.89,50.32c1.63,.15,2.68-.71,4.12-.24,2.45-.17-3.53-1.31-4.12,.24Z"/><path d="M133.82,83.12c4.08-14.77,21.82-25.43,36.11-19.73-12.41-2.66-25.96,1.74-32.28,13.21-5.46,9.45-2.87,19.47-3.84,28.36,.64,15.19-.18,34.91,.48,53.16,.77,12.01-1.17,28.25,1.07,41.01-4.18-31.79-1.79-78.9-1.54-116.01Z"/><path d="M184.27,73.93c3.27,5.05,5.77,10.9,5.47,16.72-.36,35.93,.56,72.74,.03,107.72-1.67-29.56,.05-75.12-1.06-109.53,.42-3.26-1.07-7.66-2.8-10.55-3.74-7.57-11.82-12.48-19.71-13.87-2.56-1.6,5.31,.19,5.89,.94,4.58,1.51,8.72,5.16,12.18,8.56Z"/><path d="M192.27,188.49c-1.01,23.3-1.17-26.04-1.16-33.51-.45-22.48,.4-47.48-.67-68.34-1.07-8.86-7.31-17.07-15.42-20.99-4.94-2.05-5.85-3.39-.13-.66,8.14,3.65,14.36,11.88,16.1,20.19,2,32-.47,69.45,1.29,103.31Z"/><path d="M137.65,84.33c.4-4.53,3.63-9.17,6.85-11.71-.49,1.9-2.84,3.19-3.69,4.98-1.31,2.05-2.15,4.73-3.16,6.73Z"/><path class="f" d="M142.21,229.72l-.53,.1"/><path class="f" d="M134.4,164.97l-.56-.1"/></g><rect class="k" x="148.92" y="147.9" width="28.02" height="11.71"/><g><path class="d" d="M149.44,166.48v-8.27s-7.01-9.41-7.01-11.25-2.49-12.86-1.94-14.47,2.9-5.74,4.35-5.74,2.48-5.05,4.6-5.05,4.33-.23,4.33-.23c0,0,1.38-4.36,3.6-4.59s6.64,.92,6.64,.92c0,0,3.6-4.82,5.53-4.13s8.3,7.12,8.3,7.12"/><path class="d" d="M162.35,152.24h0l-1.94-2.3c-1.94-2.3,3.87-5.51,9.41-13.32,2.64-3.72,1.38-6.43,1.38-6.43,0,0-3.6-1.84-6.09-2.03s-3.6-4.4-4.15-7.38,3.87-.69,5.44,0,7.84,2.07,10.05,2.07,2.77,2.53,2.77,2.53c0,0,4.15,11.94,4.15,14.47s-7.19,17.91-7.19,17.91v8.72"/><path class="d" d="M140.64,135.8s9.26,10.24,10.64,10.24,4.7-2.3,4.7-2.3l-7.67-14.47"/><path class="d" d="M157.64,125.61l5.53,14.43s1.03,1.64-1.29,2.56-5.91,1.15-5.91,1.15"/></g><g><path d="M113.4,282.59v-4.37l5.65-.97v-43.37l-5.65-.97v-4.4h12.48v48.74l5.65,.97v4.37h-18.13Z"/><path d="M152.89,283.32c-4.07,0-7.25-1.31-9.53-3.92-2.29-2.61-3.43-6.68-3.43-12.2v-16.74l-4.3-.97v-4.4h11.13v22.19c0,4,.59,6.75,1.77,8.25,1.18,1.5,3.02,2.25,5.51,2.25s4.43-.49,6.02-1.47c1.58-.98,2.78-2.38,3.59-4.18v-21.67l-5.03-.97v-4.4h11.86v32.17l4.3,.97v4.37h-10.44l-.45-5.55c-1.18,2.01-2.7,3.56-4.56,4.65s-4,1.63-6.43,1.63Z"/><path d="M178.44,282.59v-4.37l4.16-.8,11.2-13.8-10.96-13.35-3.71-.8v-4.4h14.7v4.4l-3.74,.42,7.7,9.57,7.49-9.6-4.02-.38v-4.4h14.46v4.4l-3.81,.8-10.16,13.24,11.68,13.9,3.88,.8v4.37h-15.91v-4.37l4.51-.38-8.22-10.02-7.97,10.02,4.06,.38v4.37h-15.32Z"/></g></g></g></svg>