<?xml version="1.0" encoding="UTF-8"?><svg xmlns="http://www.w3.org/2000/svg" viewBox="0 0 1041.78 1127.53"><defs><style>.d,.e{stroke-width:87px;}.d,.e,.f{fill:#fff;}.d,.e,.g,.h{stroke-miterlimit:10;}.d,.i,.g,.h{stroke:#000;}.e{stroke:#fff;}.i{stroke-linecap:round;stroke-linejoin:round;stroke-width:2.34px;}.i,.g,.h{fill:none;}.g{stroke-width:7.07px;}.h{stroke-width:9.84px;}</style></defs><g id="a"/><g id="b"><g id="c"><g><g><path class="d" d="M532.21,132.32c-216.5,0-392,175.51-392,392H924.21c0-216.5-175.51-392-392-392Z"/><path class="e" d="M140.2,525.57c0,216.5,175.51,392,392,392s392-175.51,392-392c0-.42-.01-.84-.02-1.25H140.22c0,.42-.02,.83-.02,1.25Z"/></g><g><path d="M560.52,232.14c.29,3.06,6.68,1.3,8.9,2.92,7.19,3.46,14.6,6.38,20.99,11.32,13.7,11.07,25.96,23.04,30.79,40.31,9.39,55.48,2.05,119.81,4.29,181.59,.55,45.57,3.86,101.69-.77,145.96-2,6.93-7.76,12.44-15.67,12.23-1.8,3.83-9.56,5.21-8.91,10.57-.2,4.24,6.55,2.88,7.15,6.46,5.64,8.37-15.49,15.24-3.15,20.95,6.22,.07,6.66,11.34,.52,12.39-7.9,4,2.41,6.81,3.27,10.78,5.32,6.59-9.76,9.49-6.4,14.89,2.32,2.76,6.76,3.7,7.42,7.8-1.3,32.03-102.3,11-131.01,16.72-17.99-7.28,4.35-14.13-1.63-22.82-5.75-1.73-7.64-8.85-4.69-13.41,2.74-2.11,8.18-2.5,6.55-7.47-3.49-2.91-7.72-3.4-7.97-8.73,1.14-4.27,4.86-5.36,7.43-8.52,4.42-7.89-12.12-9.63-5.92-17.59,.82-3.71,8.47-4.44,6.27-9.71-3.12-3.29-7.08-5.72-6.03-11.17-5.06-2.18-16.41-2.35-16.55-12.13-3.76-46.16-1.77-88.1-2.85-134.14,1.58-64.29-7.29-126.63,1.82-190.73,12.26-42.96,58.66-66.82,102.83-59.54m-42.52,251.21c5.66,.52,9.97-3.34,15.34-.49,5.77,.41,11.94-.02,17.62,1.33,3.25-1.56,9.24-1.62,11.76,.94,3.49-2.27,9.04-3.26,12.95-.71,10.11,9.02,4.76,29.76,6.23,37.88-1.21,18.32,1.15,42.2,.22,58.97-1.81,10.56,6.18,1.3,9.95-2.03,2.59-.96,13.98-11.62,8.28-3.83-6.29,4.21-12.12,9.05-17.79,14.13-2.02,3.33,.32,5.79,2.21,6.84-7.89,8.79,1.81,6.08,5.74,.22,4.65,1.7-6.47,5.55-7.38,8.57-.24,3.93-2.99,19.32,3.88,18.85,6.73-2.71,22.27,.63,29.54-1.57,1.13-3.89,5.95-5.66,5.64-10.9,4.32-3.33,1.96,5.79,.12,7.18-2.85,9.08,7.64-9.29,3.66-14.13,1.57-7.28-2.41-15.82,.28-20.82-5.23-89.76,3.61-193.79-4.56-289.24-6.42-26.98-29.87-48.92-55.53-57.13-43.73-14.61-96.35,12.52-105.58,57.57-7.42,102.73-.49,214.93,.51,314.33-3.53,22.61,28.13,12.77,42.23,14.76,5.4-9.68,1.31-28.62,1.22-38.22,2.3-1.98-1.4-3.1,.39-5.14,.09-1.24-1.37-3.41,.28-4.47-2.96-4.45,2.49-21.13-2.57-21.53-1.06,2.21-8.66,7.27-4.73,2.21,14.19-6.44,2.08-27.89,6.8-38.13-1.48-12.38-5.7-33.18,9.56-37.7m-8.26,36.47c4.82,8.67-2.98,29.06,4.18,30.58-5.63,5.57-2.08,16.45-2.44,23.81-.08,14.84,.82,34.68,.61,48.09-.42,4.14,6.91,3.23,8.43,2.81,1.91,1.25,1.21,.55,3.62-.06,2.44,1.04,2.24,.77,4.63,.04,18.25,.53,36.31-.88,52.42,1.21,4.58-3.73,4.03-32.37-4.17-16.67-1.2,2.47-3.13-2.21-.68-2.35,4.19-3.48,8.36-5.38,6.93-11.87-4.55-.4-7.5,9.59-11.43,7.31,2.65-3.84,17.67-12.19,9.27-15.43-2.36,4.15-24.95,20.1-13.2,9.8,4.39-5.71,13.49-8.26,15.46-15.27,.21-11.89-1-22.46-.13-32.65-3.19-11.89,2.01-30.14-3.24-36.12,5.45-3.82,2.3-18.55-1.29-23.22-2.4-1.96-10.89-3.05-8.62,.84,4.21,4.79,.06,21.76-6.6,12.12-4.91-5.39,5.58-16.28-4.84-14.35-1.89-.42-3.23,1.94-2.5,3.37,2.68,21.58-12.57,13.55-5.55-3.24-15.72-5.66-2.11,7.74-9.34,14.31-3.61,4.08-5.9-3.42-7.07-5.63-1.58-3.05,3.1-6.46,2.15-9.31-14.5-6.72-2.56,11.18-9.76,17.44-6.14-3.09-8.06-10.53-4.08-16.25-19.55-9.56-9.44,26.93-12.74,30.71Zm-22.71,127.13c.63,3.4-2.84,3.44-4.8,4.83-1.26,4.7,12,.11,14.38,.9,38.23,.15,74.87-2.35,114.36-2.47,8.18-9.45-61.42-.57-70.89-2.87,15.41-4.11,44.12-1.21,64.17-3.47,4.54-1.29-1.69-4.74,1.1-6.64-19-4.92-48.45,.91-70.18,.12-9.37-.2-18.56,.82-25.89,1.23-11.49,1.2-22.95-4.94-22.24,8.35Zm41.12,24.48c20.43-3.24,42.48-1.47,63.28-2.02,3.39-3.6,18.91,2.75,14.76-3.87-.13-8.79-3.77-6.72-10.43-6.54-33.06,.2-67.15,.98-98.32,2.46-14.3-.48-6.99-.56-10.44,8.16,9.45,5.37,30.21-1.08,41.16,1.82Zm-28.87,34.3c-4.73-2.21-9.46-.76-13.03-.01,2.76,4.07,.23,7.18,1.49,9.46,40.42-2.61,83.42-1.56,120.13-6.1-3.03-13.05-12.99-7.21-23.37-6.98-28.57,.87-58.15,.58-85.21,3.63Zm-12.22-20.93c2.87,3.53-1.37,6.73,1.68,7.37,21.48-3.22,46.06,.06,67.48-3.39,10.65,1.08,24.35-.85,36.03-.15,6.22-1.66,17.37,3.14,14.47-6.64-38.03-2.79-80.37,2.23-119.67,2.8Zm-5.88-2.96c42.88,.29,87.05-2.34,128.4-3.76,19.4-12.33-35.92-5.75-43.65-6.2-7.34,.24-106.43-.17-77.23,5.21,40.16-1.32,82.91-3.27,122.1-3.46-31.9,7.73-96.39-1.77-129.63,8.21Zm131.93,30.97c-44.15,1.19-89.79,.16-131.24,6.69,23.54,5.3,69.2-7.73,88.31-1.24-29.17,1.7-59.74,3.75-88.02,4.32-.78,8.84,21.17,.12,29.41,2.3,22.02-1.61,43.92-1.62,66.51-3.82,10.66-1.26,25.95,1.87,34.39-3.53-11.98-2.32-30.19,3.71-38.86-1.22,11.68-2.96,32.44,2.43,39.5-3.5Zm-45.1-15.83c-2.68,.43-105.73-1.25-83.67,5.95,38.98,.36,78.94-3.13,119.3-3.9,25.15-5.38-30.01-4.71-35.63-2.04Zm34.82-44.31c-37.19,1.82-90.53-1.9-121.19,5.21,5.7,4.24,163.39-2.84,121.19-5.21Zm-44.6-21.06c-27.13-.59-51.84,1.1-76.51,1.72,.43,5.59,7.42,3.24,10.81,2.4,41.72-.62,77.71-1.14,118.99-3.56,.78-5.36-16.97-1.38-22.22-2.02-9.59,.71-21.74-1.35-31.07,1.47Zm54.25,58.35c-26.66-.96-199.79,7.41-93.58,5.82,21.69-.66,44.16-.62,65.8-2.45,7.04-1.16,24.13,3.04,27.79-3.37Zm-59.86,35.02c14.66,2.53,37.5,1.95,53.49,.03,2.17-6.52-45.09,1.32-53.49-.03Zm13.37-233.02c-1.77,2.85-2.12,9.38,1.33,10.43,2.7-2.3,2.84-10.88-1.33-10.43Zm-27.52-1.62c-1.22,2.13-3.72,11.53,1.57,9.14,1.47-1.62,1.74-9.46-1.57-9.14Zm-13.88,9.89c3.27-.9,2.62-6.26,1.6-8.6-4.95-1.78-2.58,6.39-1.6,8.6Zm28.19-8.45c-1.94,1.76-2.64,7.84,.24,8.81,2.01-2.31,2.2-6.56-.24-8.81Zm-69.17,139.82c4.54,.41,7.44-1.97,11.46-.66,6.8-.48-9.8-3.63-11.46,.66Z"/><path d="M458.87,293.59c11.34-41.03,60.62-70.65,100.34-54.82-34.49-7.38-72.14,4.83-89.68,36.71-15.16,26.26-7.97,54.11-10.66,78.79,1.78,42.21-.51,97,1.33,147.7,2.13,33.36-3.24,78.51,2.96,113.96-11.61-88.34-4.98-219.24-4.29-322.35Z"/><path d="M599.04,268.04c9.07,14.02,16.02,30.28,15.2,46.45-1,99.85,1.55,202.11,.09,299.33-4.63-82.15,.15-208.75-2.95-304.34,1.15-9.06-2.96-21.27-7.79-29.3-10.38-21.05-32.85-34.69-54.76-38.55-7.12-4.44,14.75,.54,16.37,2.62,12.73,4.19,24.24,14.34,33.84,23.79Z"/><path d="M595.66,590.36c1.21-6.18,13.67-6.85,12.25-14.99-8.77,3.55-15.65,14.15-24.71,16.96,8.34-9.73,28.5-14.52,24.08-29.46-.62-87.64,1.66-180.97-1.83-261.1-2.59-9.02-6.02-19.81-12.79-27.46-4.49-7.15-12.18-12.4-18.75-16.92,.59-7.21,20.39,15.4,23.2,18.62,2.68,5.2,5.43,10.8,8.16,16.04,1.43,6.17,2.28,12.26,3.65,18.73-2.15,92.31,3.76,219.64-.99,287.16-1.12-3.16,1.04-6.21-.71-9.21-5.84,2.55-11.42,11.23-17.36,12.82,1.81-6.42,12.28-9.98,16.79-15.88,4.63-8.85-8.42,3.21-10.98,4.69Z"/><path d="M621.28,586.38c-2.8,64.73-3.26-72.35-3.24-93.11-1.25-62.45,1.11-131.92-1.87-189.89-2.98-24.61-20.3-47.44-42.84-58.31-13.72-5.69-16.27-9.43-.36-1.85,22.62,10.15,39.89,33,44.73,56.09,5.55,88.93-1.32,192.99,3.58,287.06Z"/><path d="M474.86,272.62c-12.66,18.96-13.65,45.39-12,63.13,.61,83.08-2.94,186.7,3.55,276.65-11.83-74.28-2.24-202.25-5.7-294.03,.07-16.07,4.11-36.77,14.15-45.74Z"/><path d="M487.03,330.29c12.83-11.89,27.99-28.41,43.13-40.09-6.92,8.36-49.02,48.35-43.13,40.09Z"/><path d="M474.87,272.64c1.49-10.4,33.56-33.18,40.89-29.38-16.64,4.66-30.47,15.52-40.89,29.38Z"/><path d="M582.12,387.01c-5.08,11.34-20.37,18.64-29.21,29.17-8.71,2.58,23.63-22.16,29.21-29.17Z"/><path d="M469.5,296.95c1.12-12.58,10.09-25.47,19.03-32.54-1.37,5.27-7.9,8.86-10.24,13.85-3.63,5.69-5.97,13.15-8.78,18.7Z"/><path d="M559.46,400.44c2.79,.55,12.48-14.24,12.35-8.72-7.89,7.14-16.16,14.99-24.62,22.08-.4-4.86,10.01-8.4,12.26-13.36Z"/><path d="M495.3,315.89c-6.85,6.47-14.33,15.78-22.15,20.9,4.44-7.58,14.59-15.89,22.15-20.9Z"/><path d="M507.55,319.38c-1.35-.82,16.22-18.34,16.64-15.31-5.17,4.48-10.51,11.27-16.64,15.31Z"/><path d="M574.5,404.15c2.02-6.32,10.12-8.71,14.09-14.03,5.43-.4-11.74,11.77-14.09,14.03Z"/><path d="M517.59,455.36c-2.34,2.35-3.94,6.22-7.63,5.65,5.59-7.08,22.48-18.52,7.63-5.65Z"/><path d="M508.02,303.6c2.55-5.04,8.65-8.34,12.85-13.46,.15,4.63-9.1,10.43-12.85,13.46Z"/><path d="M502.65,323.24c-1.29,2.82-8.5,11.74-11.05,10.23,3.08-3.29,7.02-7.3,11.05-10.23Z"/><path d="M509.12,324.72c-2.96,7.16-5.62,.91,.46-1.97,6.85-7.47,5.04-1.96-.46,1.97Z"/><path d="M532.59,453.45c-3.33-.89,4.77-6.52,6.21-6.76-.11,2.57-4.19,5.71-6.21,6.76Z"/><path d="M495.32,315.91c1.19-3.16,5.92-8.16,9.3-8.78-1.82,3.1-5.9,6.25-9.3,8.78Z"/><path d="M503.99,459.36c-1.62,2.67-3.43,6.2-7.03,7.11,.19-2.76,4.73-6.87,7.03-7.11Z"/><path d="M518.36,445.45c.74-1.14,2.79-3.89,4.12-3.14-1.59,2.72-5.21,6.18-8.01,7.66-1.48-1.07,2.44-4.48,3.88-4.52Z"/><path d="M530.14,450.12c-2.09,1.7-8.64,11.64-9.45,7.03,3.91-.48,5.72-7.18,9.45-7.03Z"/><path d="M504.01,459.39c.4-3.24,4.75-4.33,7.11-7.46,3.24,.01-5.21,7.06-7.11,7.46Z"/><path d="M521.15,435.25c2.24-1.02,4.74-6.77,7.25-5.18-2.29,1.69-4.11,5.88-7.25,5.18Z"/><path d="M534.91,431.58c-2.02,1.21-3.97,5.86-6.42,4.78,1.97-1.64,3.54-5.44,6.42-4.78Z"/><path d="M468.41,298.4c2.58-.29,.56,5.73-.57,6.67-.5-2.37-.22-4.45,.57-6.67Z"/><path d="M502.66,323.26c.76-1.57,2.84-4.55,4.86-3.9-.67,2.04-2.7,3.94-4.86,3.9Z"/><path d="M515.54,317.46c.81-2.65,3.42-4.02,5.83-5.29-.32,2.01-3.42,4.64-5.83,5.29Z"/><path d="M533.12,447.23c.14-1.83,2.54-3.11,4.01-4.4,.52,1.98-2.19,4.37-4.01,4.4Z"/><path d="M564.34,417.87c2.73,.17-1.62,3.8-3.05,4.49-.57-2.14,2.22-2.69,3.05-4.49Z"/><path d="M585.16,509.03c-.41-1.41,3.04-3.89,3.97-4.04,1.39,1.68-2.67,2.94-3.97,4.04Z"/><path d="M547.63,419.93c-.27,2.17-2.28,2.5-3.93,3.34-.85-2,2.73-3.49,3.93-3.34Z"/><path d="M585.07,400.42c-1.18,1.65-2.31,3.91-4.09,4.21-1.81-1.53,3.06-3.53,4.09-4.21Z"/><path d="M585.1,400.45c0-1.2,1.77-2.49,2.61-2.9,2.13,.66-1.49,3.25-2.61,2.9Z"/><path d="M591.52,503.64c-.59-1.11,.38-1.58,.68-2.7,2.71-.62,1.5,3.22-.68,2.7Z"/><path d="M595.63,590.34c-.63,1.7-2.79,2.21-4.14,3.56-.66-2.04,2.36-3.48,4.14-3.56Z"/><path d="M575.1,409.08c.63,1.35-1.01,3.33-2.11,2.67-.42-1.45,.71-2.93,2.11-2.67Z"/><path d="M528.39,298.78c.44,1.48-.71,3.31-2.18,2.72,.08-1.47,.51-2.99,2.18-2.72Z"/><path d="M528.42,298.8c.75-1.42,2.17-2.4,3.37-3.51,.71,2.34-1.93,3.3-3.37,3.51Z"/><path d="M559.34,416.02c.92-1.11,2.8-2.79,2.8-.3-.32,.75-3.26,1.9-2.8,.3Z"/><path d="M564.68,412.68c-.4-1.16,.8-2.51,2.06-2.68,1.55,.32-1.47,3.05-2.06,2.68Z"/><path d="M584.97,516.1c-.95-.14-1.55,.51-2.37,.57-1.55-1.62,3.54-3.54,2.37-.57Z"/><path d="M545.37,414.66c.48,2.08-1.22,1.43-2.73,1.51,.66-1.08,1.14-2.21,2.73-1.51Z"/><path d="M534.93,293.49c-.4-1.38,1.23-3.3,2.2-3.29,.76,1.41-1.04,2.94-2.2,3.29Z"/><path d="M538.76,419.81c1.18,2.13-3.13,3.85-1.67,1.74,.35-.91,.19-1.96,1.67-1.74Z"/><path d="M530.16,450.14c.33-1.05,1.08-3.43,2.96-2.92-1.28,1.14-.9,3.09-2.96,2.92Z"/><path d="M558.63,424.64c-.78,.91-2.43,2.85-3.36,1.66,.33-.98,2.35-2.31,3.36-1.66Z"/><path d="M512.62,443.59c-.59-1.63,1.54-2.41,2.6-2.12,.42,1.2-1.77,1.75-2.6,2.12Z"/><path d="M538.92,426.57c1.22-.95,1.88-2.51,3.47-2.06-.04,1.2-2.26,2.65-3.47,2.06Z"/><path d="M508,303.59c.65,1.6-1.27,2.1-2.26,1.19-.08-1.08,1.57-1.41,2.26-1.19Z"/><path d="M527.96,445.35c-.29-1.25,1.18-1.79,1.97-2.54,.75,.94-.49,3.38-1.97,2.54Z"/><path d="M575.13,409.1c.97-.88,1.4-2.32,2.95-2.19,.17,1.47-1.64,2.63-2.95,2.19Z"/><path d="M525.2,440.19c-.7-1.43,.41-2.02,1.14-2.77,.66,.98,.39,1.66-1.14,2.77Z"/><path d="M521.28,545.89c6.84-5.54,13.74-14.93,21.23-17.75-6.95,6.16-13.29,14.22-21.23,17.75Z"/><path d="M531.93,547.06c3.88-3.72,12.55-14.64,15.73-12.9-5.9,3.43-9.62,10.54-15.73,12.9Z"/><path d="M540.63,547.01c-1.65,4.43-9.1,8.17-11.54,12.13-5.4-.15,9.13-10.51,11.54-12.13Z"/><path d="M531.91,547.04c-1.83,4.66-8.92,7.46-12.32,12.1-4.32-.48,9.41-10.44,12.32-12.1Z"/><path d="M540.18,517.86c-3.73,4.83-7.99,7.33-12.12,11.43,1.12-4.48,8.17-9.57,12.12-11.43Z"/><path d="M540.66,547.03c2.28-2.61,10.94-11.81,11.2-8.78-3.62,2.53-6.97,7.71-11.2,8.78Z"/><path d="M553.52,541.81c-1.71,2.14-11.67,11.71-9.08,6.35,3.09-2.49,5.96-5.76,9.08-6.35Z"/><path d="M561.17,529.56c-.8,2.71-5.08,5.21-7.62,6.91,.12-1.96,5.01-6.76,7.62-6.91Z"/><path d="M507.52,558.2c.33-1.93,4-4.69,5.88-5.2,1.42,2.01-4.18,4.94-5.88,5.2Z"/><path d="M521.27,545.87c-1.03,2.23-4.09,6.63-7.04,6.26,2.45-2.02,4.16-5.13,7.04-6.26Z"/><path d="M514.28,540.12c.23,2.12-3.47,2.64-4.55,4.95-3.76,.96,2.68-4.97,4.55-4.95Z"/><path d="M559.27,523.1c-.82,1.67-2.99,4.16-4.94,4.55,.46-1.98,2.87-4.58,4.94-4.55Z"/><path d="M540.2,517.89c-.49-2.32,2.64-2.32,3.76-4.56,.9,1.96-2.35,4.45-3.76,4.56Z"/><path d="M553.48,518.66c-1.27,1.19-2.63,4.01-4.53,3.18,1.18-1.26,2.58-3.93,4.53-3.18Z"/><path d="M553.54,541.83c-.78-2.08,1.55-1.76,2.36-3.39,2.83-.44-1.16,3.72-2.36,3.39Z"/><path d="M561.19,529.59c-.15-.96,2.25-4.04,2.79-2.01-.19,1.12-1.64,1.97-2.79,2.01Z"/><path d="M569.42,523.45c-2.03,.26-1.43,2.02-3.11,2.48-1.53-.61,1.78-3.66,3.11-2.48Z"/><path d="M516.41,538.9c-.77-1.75,1.22-3.19,2.61-2.2-.82,.63-1.52,1.77-2.61,2.2Z"/><path d="M559.3,523.12c.91-1.03,1.74-2.3,2.91-2.96,.35,1.87-1.23,3.33-2.91,2.96Z"/><path d="M557.4,516.1c-2.8,.53-.51-2.5,1.17-1.5-.37,.48-.75,.97-1.17,1.5Z"/><path d="M562.23,520.19c.27-.79,1.41-1.3,1.84-2.21,1.67-.35-.14,3.41-1.84,2.21Z"/><path d="M562.85,509.59c.37,1.54-.94,1.87-2.11,1.87-.2-1.12,1.08-1.77,2.11-1.87Z"/><path d="M569.24,528.7c-.87,.57-1.31,1.92-2.72,1.24,.63-1.43,1.35-1.78,2.72-1.24Z"/><path d="M561.29,534.63c-.13-.87,.58-1.61,1.57-1.64,.39,1.61,.03,1.99-1.57,1.64Z"/><path d="M521.42,643.95c.41-.48,7.9-.74,8.49-.47-.85,1.31-6.2,.04-8.49,.47Z"/><path class="i" d="M568.16,241.67l1.64,1"/><path class="i" d="M463.11,549.88c-.66,1.13-.39,2.3-.18,3.47"/><path class="i" d="M549.82,692.35c-.65-.27-1.3-.36-1.92,.09"/><path class="i" d="M468.22,283.77c-.41,.6-.15,1.32-1,1.55"/><path class="i" d="M464.66,294.46c-.1,.65-.24,1.29-.46,1.92"/><path class="i" d="M542.24,528.15c-1.12,.22-1.81,1.03-2.56,1.83"/><path class="i" d="M524.08,543.77c-.74,.7-1.32,1.61-2.37,1.83"/><path class="i" d="M473.43,285.69c-.27,.65-.17,1.49-.91,1.92"/><path class="i" d="M469.96,294.46l-.18,2.28"/><path class="i" d="M482.64,262.31l-1.92,1.92"/><path class="i" d="M511.3,300.85c-.64,1.47-3.14,.62-3.01,2.47"/><path class="i" d="M494.97,316.1c-.66-.1-1.06,.32-1.46,.73"/><path class="i" d="M488.49,321.85l-1.92,1.92"/><path class="i" d="M486.48,323.86l-2.83,2.83"/><path class="i" d="M606.41,581.66c-.65,.27-1.48,.17-1.92,.91"/><path class="i" d="M602.39,584.68l-2.65,1.92"/><path class="i" d="M596.55,588.7c-.39,.37-.73,.77-.64,1.37"/><path class="i" d="M511.85,321.31l-1.92,1.92"/><path class="i" d="M472.24,276.19c-.53,.85-.68,1.85-1.55,2.19"/><path class="i" d="M511.85,243.41l-1.37,.46"/><path class="i" d="M508.93,244.78l-1.92,.91"/><path class="i" d="M523.99,447.97c.17,1.17-1.22,1.71-1.83,2.56"/><path class="i" d="M522.07,450.62c-.94,.94-1.89,1.89-2.83,2.83"/><path class="i" d="M519.15,453.54c-.82,.74-1.89,1.26-2.37,2.28"/><path class="i" d="M548.45,236.38c1.1,.14,2.21,.25,3.29,.55"/><path class="i" d="M529.83,643.76h-8.21"/><path class="i" d="M590.16,587.6c-.64,.7-1.31,1.38-2.1,1.92"/><path class="i" d="M585.96,590.52c-.7,.78-1.39,1.52-2.46,1.74"/><path class="i" d="M535.22,522.21c-.73,.87-1.61,1.54-2.65,2.01"/><path class="i" d="M463.93,539.11c-1.43,0-1.13,1.58-1.37,2.56"/><path class="i" d="M462.61,543.22c.09,1.61,0,3.25,.32,4.84"/><path class="i" d="M564.97,240.3c-.65-.27-1.48-.17-1.92-.91"/><path class="i" d="M503.64,459.75c-1.05-.11-1.25,.95-1.92,1.37"/><path class="i" d="M551.83,542.3c.26,1.32-.67,1.54-1.73,1.83"/><path class="i" d="M522.99,434.54c-.37,.39-.77,.73-1.37,.64"/><path class="i" d="M462.38,529.43c.94,3.13-.54,6.67,.64,9.95"/><path class="i" d="M500.81,552.35c-.98,.3-1.95,.63-2.56,1.55"/><path class="i" d="M498.16,553.99c-.76,.76-1.52,1.52-2.28,2.28"/><path class="i" d="M512.31,452.17c-.9,.01-1.24,.82-1.83,1.28"/><path class="i" d="M537.68,643.49c-1.75,.56-3.66,.17-5.48,.27"/><path class="i" d="M519.15,548.15l-3.56,3.56"/><path class="i" d="M518.88,445.5c-.67,.52-1.34,1.03-2.01,1.55"/><path class="i" d="M584.68,400.76c-1.23,.74-1.55,2.06-3.01,2.47"/><path class="i" d="M587.24,507.51c-.83,.28-1.96,.07-1.92,1.28"/><path class="i" d="M482.19,700.93l-1.46,.27"/><path class="i" d="M565.33,418.29c-.93,.42-1.57,1.21-2.28,1.92"/><path class="i" d="M553.1,518.74c-.95,0-1.09,1-1.73,1.37"/><path class="i" d="M543.89,513.54c.13,.65-.09,1.13-.73,1.37"/><path class="i" d="M504.64,246.79c-.79,.6-1.89,.12-2.37,1.19"/><path class="i" d="M567.25,410.71c-.92-.56-1.14-.11-1.37,.73"/><path class="i" d="M569.08,523.4c-1.42-.05-1.97,1.23-2.83,2.1"/><path class="i" d="M532.75,447.42c-1.69-.12-.43,2.47-2.1,2.1"/><path class="i" d="M560.95,522.21c-.37,.39-.77,.73-1.37,.64"/><path class="i" d="M514.77,312.45c-.51,.26-1.3,.08-1.46,.91"/><path class="i" d="M595.36,590.61c-1.23,.3-2.12,1.18-3.1,1.92"/><path class="i" d="M542.24,424.77c-1.42-.18-1.69,1.83-3.1,1.64"/><path class="i" d="M551.83,537.74c-.8-.13-.96,.66-1.73,1.1"/><path class="i" d="M514.95,441.85c-.76,.52-2.01,.23-2.01,1.46"/><path class="i" d="M528.83,527.97c-.81,.13-.62,.75-.64,1.28"/><path class="i" d="M564.33,518.1c-.28,1.28-.75,1.75-1.83,1.83"/><path class="i" d="M558.49,424.77c-.65-.13-1.13,.09-1.37,.73"/><path class="i" d="M529.83,442.85c.13,.65-.09,1.13-.73,1.37"/><path class="i" d="M569.08,528.7c-.83,.28-1.62,.65-2.37,1.1"/><path class="i" d="M526.36,437.56c-.36,.8-.73,1.59-1.1,2.37"/><path class="i" d="M558.49,514.63c-.77,.38-1.53,.77-2.28,1.19"/><path class="i" d="M563.14,527.78c-.46,.41-.61,1.33-1.46,1.19"/><path class="i" d="M577.57,407.51c-.62,.58-1.31,1.05-2.1,1.37"/><path class="i" d="M506.92,546.5c-.9-.23-.96,.78-1.73,1.1"/><path class="i" d="M536.58,291.26c-.5,.66-1.42,1.02-1.46,2.01"/><path class="i" d="M531.66,295.64c-.04,.99-.96,1.35-1.46,2.01"/><path class="i" d="M557.03,238.02c.55,.6,1.27,.29,1.92,.37"/><path class="i" d="M533.76,553.35c-.27,.64-.73,1.1-1.37,1.37"/><path class="i" d="M468.22,303.13l-.27,1.83"/><path class="i" d="M518.15,654.72l.37,1.64"/><path class="i" d="M536.95,442.85c.13,.65-.09,1.13-.73,1.37"/><path class="i" d="M538.59,630.79l.37,1.64"/><path class="i" d="M540.42,630.79l.27,1.64"/><path class="i" d="M460.47,521.03l-1.55-.27"/><path class="i" d="M620.92,586.41l-1.55-.27"/><path class="i" d="M460.47,476.1l-1.55-.27"/><path class="i" d="M459.64,553.45l-1.55,.27"/><path class="i" d="M580.03,665.31l.37,1.55"/><path class="i" d="M562.32,510.25c-.49,.3-.97,.61-1.46,.91"/><path class="i" d="M581.85,675.18v1.46"/><path class="i" d="M530.01,297.74l-1.28,.82"/><path class="i" d="M561.41,631.8v1.37"/><path class="i" d="M459.1,497.1h1.37"/><path class="i" d="M549.18,685.77l.09,1.28"/><path class="i" d="M612.98,352.26h-1.37"/><path class="i" d="M455.72,511.16h-1.28"/><path class="i" d="M619.82,497.1h-1.83"/></g><g><path d="M300.65,803.03c-3.47,0-6.48-.79-9.05-2.38s-4.55-3.78-5.95-6.6c-1.4-2.82-2.1-6.08-2.1-9.78v-1.53c0-3.56,.73-6.74,2.2-9.55,1.47-2.81,3.42-5.03,5.86-6.66,2.44-1.63,5.1-2.44,7.99-2.44,3.37,0,6.2,.69,8.48,2.08s3.99,3.33,5.15,5.84c1.16,2.51,1.73,5.46,1.73,8.86v4.26h-24.34l-.1,.17c.05,2.4,.47,4.54,1.27,6.4,.8,1.86,1.95,3.32,3.45,4.39,1.5,1.06,3.3,1.59,5.41,1.59,2.31,0,4.34-.33,6.08-.99,1.74-.66,3.25-1.57,4.52-2.72l2.67,4.44c-1.34,1.29-3.11,2.39-5.32,3.28-2.21,.89-4.86,1.33-7.96,1.33Zm-9.81-23.23h17.3v-.9c0-1.8-.32-3.42-.95-4.84-.64-1.42-1.58-2.54-2.84-3.36s-2.84-1.23-4.73-1.23c-1.53,0-2.91,.44-4.16,1.33-1.25,.89-2.28,2.1-3.09,3.62-.81,1.53-1.34,3.26-1.59,5.2l.07,.17Z"/><path d="M319.16,802.3v-4.37l4.16-.8,11.2-13.8-10.96-13.35-3.71-.8v-4.4h14.7v4.4l-3.74,.42,7.7,9.57,7.49-9.6-4.02-.38v-4.4h14.46v4.4l-3.81,.8-10.16,13.24,11.68,13.9,3.88,.8v4.37h-15.91v-4.37l4.51-.38-8.22-10.02-7.97,10.02,4.06,.38v4.37h-15.32Z"/><path d="M392.86,802.89c-2.77,0-4.97-.82-6.6-2.44-1.63-1.63-2.44-4.24-2.44-7.82v-22.78h-5.93v-5.06h5.93v-9.05h6.83v9.05h8.15v5.06h-8.15v22.78c0,1.8,.36,3.13,1.07,3.99,.72,.86,1.68,1.28,2.88,1.28,.81,0,1.71-.08,2.7-.23,.99-.15,1.77-.28,2.32-.4l.94,4.47c-.99,.3-2.21,.57-3.66,.8-1.44,.23-2.79,.35-4.04,.35Z"/><path d="M421.32,803.03c-3.47,0-6.48-.79-9.05-2.38s-4.55-3.78-5.95-6.6c-1.4-2.82-2.1-6.08-2.1-9.78v-1.53c0-3.56,.73-6.74,2.2-9.55,1.47-2.81,3.42-5.03,5.86-6.66,2.44-1.63,5.1-2.44,7.99-2.44,3.37,0,6.2,.69,8.48,2.08s3.99,3.33,5.15,5.84c1.16,2.51,1.73,5.46,1.73,8.86v4.26h-24.34l-.1,.17c.05,2.4,.47,4.54,1.27,6.4,.8,1.86,1.95,3.32,3.45,4.39,1.5,1.06,3.3,1.59,5.41,1.59,2.31,0,4.34-.33,6.08-.99,1.74-.66,3.25-1.57,4.52-2.72l2.67,4.44c-1.34,1.29-3.11,2.39-5.32,3.28-2.21,.89-4.86,1.33-7.96,1.33Zm-9.81-23.23h17.3v-.9c0-1.8-.32-3.42-.95-4.84-.64-1.42-1.58-2.54-2.84-3.36s-2.84-1.23-4.73-1.23c-1.53,0-2.91,.44-4.16,1.33-1.25,.89-2.28,2.1-3.09,3.62-.81,1.53-1.34,3.26-1.59,5.2l.07,.17Z"/><path d="M440.95,802.3v-4.37l5.65-.97v-26.8l-5.65-.97v-4.4h11.75l.49,5.58c1.25-1.99,2.81-3.53,4.7-4.63,1.88-1.1,4.03-1.65,6.43-1.65,4.04,0,7.18,1.18,9.4,3.55s3.33,6.03,3.33,10.97v18.34l5.65,.97v4.37h-18.13v-4.37l5.65-.97v-18.2c0-3.31-.65-5.65-1.96-7.04s-3.3-2.08-5.98-2.08c-1.96,0-3.7,.47-5.22,1.42-1.51,.95-2.72,2.24-3.62,3.88v22.01l5.65,.97v4.37h-18.13Z"/><path d="M504.08,803.03c-3.47,0-6.48-.79-9.05-2.38s-4.55-3.78-5.95-6.6c-1.4-2.82-2.1-6.08-2.1-9.78v-1.53c0-3.56,.73-6.74,2.2-9.55,1.47-2.81,3.42-5.03,5.86-6.66,2.44-1.63,5.1-2.44,7.99-2.44,3.37,0,6.2,.69,8.48,2.08s3.99,3.33,5.15,5.84c1.16,2.51,1.73,5.46,1.73,8.86v4.26h-24.34l-.1,.17c.05,2.4,.47,4.54,1.27,6.4,.8,1.86,1.95,3.32,3.45,4.39,1.5,1.06,3.3,1.59,5.41,1.59,2.31,0,4.34-.33,6.08-.99,1.74-.66,3.25-1.57,4.52-2.72l2.67,4.44c-1.34,1.29-3.11,2.39-5.32,3.28-2.21,.89-4.86,1.33-7.96,1.33Zm-9.81-23.23h17.3v-.9c0-1.8-.32-3.42-.95-4.84-.64-1.42-1.58-2.54-2.84-3.36s-2.84-1.23-4.73-1.23c-1.53,0-2.91,.44-4.16,1.33-1.25,.89-2.28,2.1-3.09,3.62-.81,1.53-1.34,3.26-1.59,5.2l.07,.17Z"/><path d="M543.63,803.03c-2.45,0-4.58-.47-6.38-1.4-1.8-.94-3.31-2.32-4.51-4.14l-.62,4.82h-5.89v-48.71l-5.65-.97v-4.4h12.48v21.01c1.18-1.66,2.64-2.93,4.39-3.81,1.74-.88,3.78-1.32,6.12-1.32,3.1,0,5.74,.84,7.92,2.51,2.18,1.68,3.86,4.03,5.03,7.05,1.17,3.03,1.75,6.55,1.75,10.57v.73c0,3.61-.58,6.76-1.75,9.46-1.17,2.7-2.84,4.81-5.03,6.33-2.18,1.51-4.8,2.27-7.85,2.27Zm-1.73-5.55c3.21,0,5.6-1.14,7.16-3.43,1.56-2.29,2.34-5.32,2.34-9.08v-.73c0-2.89-.35-5.42-1.04-7.61-.69-2.18-1.75-3.89-3.15-5.13-1.41-1.24-3.2-1.85-5.37-1.85s-3.88,.51-5.32,1.53c-1.44,1.02-2.59,2.38-3.45,4.09v16.57c.85,1.73,2.02,3.11,3.48,4.13,1.47,1.02,3.25,1.53,5.36,1.53Z"/><path d="M563.32,802.3v-4.37l5.65-.97v-26.8l-5.65-.97v-4.4h11.75l.59,4.78,.07,.66c1.06-1.92,2.38-3.42,3.93-4.51,1.56-1.09,3.35-1.63,5.36-1.63,.72,0,1.45,.06,2.2,.19,.75,.13,1.29,.25,1.61,.36l-.9,6.34-4.75-.28c-1.8-.12-3.32,.29-4.54,1.23-1.23,.94-2.17,2.19-2.84,3.76v21.25l5.65,.97v4.37h-18.13Z"/><path d="M592.76,802.3v-4.37l5.65-.97v-26.8l-5.65-.97v-4.4h12.48v32.17l5.65,.97v4.37h-18.13Zm5.3-46.77v-7.31h7.18v7.31h-7.18Z"/><path d="M630.79,803.03c-2.52,0-4.88-.25-7.07-.76-2.2-.51-4.53-1.29-7-2.36l-.07-8.91h5.17l1.28,5.37c1.29,.53,2.55,.92,3.76,1.16,1.21,.24,2.52,.36,3.93,.36,2.77,0,4.76-.53,5.96-1.6,1.2-1.06,1.8-2.38,1.8-3.95,0-1.48-.61-2.73-1.82-3.76-1.21-1.03-3.41-1.9-6.6-2.62-4.53-1.04-7.86-2.43-10-4.18-2.14-1.75-3.21-4.07-3.21-6.99,0-2.03,.59-3.85,1.77-5.46,1.18-1.61,2.82-2.88,4.92-3.83,2.1-.95,4.55-1.42,7.35-1.42s5.27,.32,7.3,.97c2.02,.65,3.78,1.51,5.29,2.6l.35,8.56h-5.13l-1.11-4.99c-.81-.6-1.77-1.06-2.88-1.39-1.11-.32-2.38-.49-3.81-.49-2.13,0-3.85,.5-5.18,1.49-1.33,.99-1.99,2.24-1.99,3.74,0,.88,.19,1.64,.57,2.29,.38,.65,1.11,1.23,2.2,1.75,1.09,.52,2.68,1.04,4.78,1.54,5.22,1.23,8.87,2.79,10.94,4.68,2.07,1.89,3.1,4.23,3.1,7,0,3.17-1.17,5.82-3.52,7.96s-6.04,3.21-11.08,3.21Z"/><path d="M668.33,802.3v-4.37l5.65-.97v-43.37l-5.65-.97v-4.4h12.48v48.74l5.65,.97v4.37h-18.13Z"/><path d="M707.82,803.03c-4.07,0-7.25-1.31-9.53-3.92-2.29-2.61-3.43-6.68-3.43-12.2v-16.74l-4.3-.97v-4.4h11.13v22.19c0,4,.59,6.75,1.77,8.25,1.18,1.5,3.02,2.25,5.51,2.25s4.43-.49,6.02-1.47c1.58-.98,2.78-2.38,3.59-4.18v-21.67l-5.03-.97v-4.4h11.86v32.17l4.3,.97v4.37h-10.44l-.45-5.55c-1.18,2.01-2.7,3.56-4.56,4.65s-4,1.63-6.43,1.63Z"/><path d="M733.37,802.3v-4.37l4.16-.8,11.2-13.8-10.96-13.35-3.71-.8v-4.4h14.7v4.4l-3.74,.42,7.7,9.57,7.49-9.6-4.02-.38v-4.4h14.46v4.4l-3.81,.8-10.16,13.24,11.68,13.9,3.88,.8v4.37h-15.91v-4.37l4.51-.38-8.22-10.02-7.97,10.02,4.06,.38v4.37h-15.32Z"/></g><g><path d="M390.98,186.66c-2.04,.94-4.03,1.28-5.97,1.05-1.94-.24-3.7-1-5.29-2.28-1.58-1.28-2.88-3.01-3.88-5.19l-.41-.9c-.96-2.1-1.39-4.17-1.28-6.22s.66-3.88,1.65-5.5,2.34-2.82,4.05-3.6c1.99-.91,3.84-1.27,5.55-1.06s3.25,.88,4.61,2.05c1.36,1.17,2.5,2.75,3.41,4.75l1.15,2.51-14.33,6.58v.13c.66,1.4,1.49,2.54,2.46,3.42,.97,.88,2.04,1.43,3.22,1.65,1.17,.22,2.38,.05,3.62-.52,1.36-.62,2.47-1.37,3.32-2.23,.85-.86,1.49-1.8,1.93-2.83l2.77,1.89c-.44,1.12-1.19,2.25-2.25,3.37-1.06,1.12-2.5,2.1-4.33,2.94Zm-12.05-11.03l10.19-4.67-.24-.53c-.49-1.06-1.11-1.93-1.87-2.59-.76-.67-1.62-1.07-2.58-1.21-.96-.14-2,.04-3.12,.55-.9,.41-1.59,1.05-2.09,1.91-.5,.86-.77,1.85-.84,2.97-.07,1.12,.09,2.28,.46,3.49l.09,.08Z"/><path d="M401.17,181.45l-.99-2.65,2.34-1.43,3.66-10.92-9.68-5.61-2.43,.36-1-2.67,8.92-3.34,1,2.67-2.18,1.1,6.84,4.06,2.36-7.53-2.53,.68-1-2.67,8.77-3.28,1,2.67-2.13,1.35-3.16,10.34,10.25,5.78,2.54-.4,.99,2.65-9.66,3.61-.99-2.65,2.65-1.26-7.26-4.21-2.56,7.89,2.55-.69,.99,2.65-9.3,3.48Z"/><path d="M445.84,166.97c-1.74,.47-3.25,.33-4.54-.41-1.29-.74-2.25-2.24-2.85-4.48l-3.85-14.25-3.71,1-.86-3.17,3.71-1-1.53-5.66,4.27-1.15,1.53,5.66,5.09-1.38,.86,3.17-5.1,1.38,3.85,14.25c.31,1.13,.75,1.9,1.35,2.31,.59,.41,1.27,.52,2.02,.32,.51-.14,1.06-.34,1.65-.6,.6-.26,1.06-.48,1.39-.64l1.34,2.64c-.57,.36-1.29,.73-2.15,1.12-.86,.39-1.69,.69-2.47,.9Z"/><path d="M463.36,162.93c-2.2,.46-4.22,.36-6.05-.3s-3.39-1.79-4.65-3.39-2.14-3.57-2.64-5.92l-.2-.97c-.48-2.26-.44-4.37,.12-6.35,.56-1.98,1.5-3.64,2.82-5s2.91-2.23,4.74-2.62c2.14-.45,4.02-.39,5.65,.19,1.63,.57,2.98,1.58,4.04,3.02s1.83,3.23,2.28,5.38l.57,2.7-15.43,3.25-.04,.12c.35,1.52,.9,2.81,1.66,3.89,.75,1.07,1.68,1.85,2.77,2.32,1.09,.47,2.31,.57,3.64,.29,1.46-.31,2.71-.79,3.72-1.44,1.02-.65,1.85-1.43,2.5-2.33l2.29,2.46c-.68,1-1.66,1.93-2.94,2.79-1.28,.86-2.9,1.5-4.87,1.91Zm-9.33-13.41l10.97-2.31-.12-.57c-.24-1.14-.66-2.12-1.25-2.94-.59-.82-1.34-1.4-2.25-1.75-.91-.35-1.96-.4-3.17-.15-.97,.2-1.79,.67-2.46,1.4-.67,.73-1.16,1.63-1.47,2.71-.31,1.08-.41,2.25-.32,3.51l.07,.1Z"/><path d="M475.13,159.95l-.37-2.81,3.55-1.1-2.26-17.21-3.71-.15-.37-2.83,7.55-.99,.78,3.54c.63-1.38,1.51-2.51,2.63-3.37,1.12-.86,2.45-1.4,3.99-1.6,2.6-.34,4.71,.16,6.33,1.49,1.63,1.33,2.65,3.59,3.06,6.77l1.55,11.78,3.71,.15,.37,2.81-11.65,1.53-.37-2.81,3.55-1.1-1.54-11.69c-.28-2.12-.9-3.57-1.85-4.35-.96-.78-2.3-1.06-4.02-.83-1.26,.17-2.34,.62-3.23,1.35-.89,.74-1.56,1.67-2,2.8l1.86,14.14,3.71,.15,.37,2.81-11.65,1.53Z"/><path d="M515.24,156.22c-2.24,.12-4.22-.28-5.94-1.22-1.71-.93-3.08-2.29-4.08-4.06-1-1.77-1.57-3.86-1.7-6.25l-.05-.99c-.13-2.3,.24-4.39,1.09-6.26,.85-1.87,2.03-3.37,3.55-4.51,1.52-1.14,3.21-1.76,5.08-1.86,2.18-.12,4.04,.23,5.56,1.05,1.52,.82,2.7,2.02,3.54,3.6,.84,1.58,1.31,3.47,1.43,5.67l.15,2.76-15.74,.86-.06,.12c.12,1.55,.46,2.92,1.04,4.09,.58,1.18,1.38,2.08,2.39,2.72,1.01,.63,2.2,.91,3.56,.84,1.5-.08,2.79-.37,3.9-.85,1.11-.49,2.05-1.13,2.83-1.92l1.88,2.78c-.82,.89-1.93,1.65-3.33,2.31-1.4,.65-3.1,1.04-5.1,1.15Zm-7.17-14.68l11.19-.61-.03-.58c-.06-1.17-.33-2.2-.79-3.09s-1.11-1.59-1.96-2.08c-.84-.49-1.88-.7-3.1-.63-.99,.05-1.87,.39-2.64,1.01-.78,.62-1.4,1.44-1.87,2.45-.47,1.02-.75,2.16-.85,3.42l.05,.11Z"/><path d="M540.28,155.82c-1.59-.02-2.96-.35-4.12-.97-1.16-.63-2.12-1.53-2.88-2.73l-.45,3.11-3.82-.06,.5-31.55-3.65-.69,.04-2.85,8.08,.13-.21,13.61c.78-1.07,1.74-1.87,2.88-2.43,1.14-.55,2.46-.82,3.98-.79,2.01,.03,3.71,.6,5.11,1.71,1.4,1.11,2.46,2.65,3.18,4.62s1.07,4.26,1.03,6.87v.47c-.04,2.34-.45,4.37-1.24,6.11-.78,1.74-1.89,3.09-3.32,4.05-1.43,.96-3.13,1.42-5.11,1.39Zm-1.07-3.61c2.08,.03,3.64-.68,4.67-2.15,1.03-1.47,1.57-3.42,1.61-5.86v-.47c.04-1.87-.16-3.52-.59-4.94-.43-1.42-1.09-2.54-1.99-3.36-.9-.82-2.06-1.23-3.46-1.26-1.36-.02-2.52,.29-3.46,.93-.95,.64-1.71,1.52-2.28,2.61l-.17,10.73c.54,1.13,1.27,2.03,2.21,2.71,.94,.67,2.09,1.02,3.45,1.04Z"/><path d="M552.52,155.73l.22-2.82,3.7-.34,1.37-17.31-3.6-.92,.23-2.84,7.59,.6,.14,3.12v.43c.8-1.18,1.72-2.09,2.78-2.71s2.24-.88,3.54-.78c.46,.04,.93,.12,1.41,.24s.82,.23,1.02,.32l-.91,4.05-3.05-.42c-1.16-.17-2.16,.02-3,.56-.84,.54-1.52,1.3-2.03,2.28l-1.09,13.73,3.6,.92-.22,2.82-11.71-.93Z"/><path d="M571.16,157.33l.36-2.81,3.71-.16,2.19-17.22-3.55-1.09,.36-2.83,8.02,1.02-2.63,20.68,3.55,1.09-.36,2.81-11.65-1.48Zm7.23-29.62l.6-4.7,4.61,.59-.6,4.7-4.61-.59Z"/><path d="M595.05,161.33c-1.61-.29-3.08-.72-4.42-1.3-1.34-.58-2.74-1.35-4.19-2.31l.98-5.69,3.29,.6,.2,3.57c.76,.49,1.52,.88,2.26,1.17,.75,.29,1.57,.52,2.47,.69,1.77,.32,3.1,.21,3.98-.33s1.42-1.31,1.61-2.31c.17-.94-.07-1.81-.73-2.61-.66-.8-1.96-1.61-3.91-2.43-2.77-1.19-4.73-2.46-5.89-3.82-1.16-1.36-1.58-2.97-1.24-4.82,.24-1.3,.82-2.39,1.76-3.28,.94-.89,2.13-1.51,3.58-1.87s3.07-.38,4.85-.06c1.81,.33,3.33,.81,4.54,1.46,1.21,.65,2.24,1.4,3.07,2.27l-.77,5.5-3.27-.59-.13-3.31c-.45-.48-1-.88-1.67-1.22-.67-.33-1.46-.58-2.38-.75-1.36-.25-2.51-.13-3.48,.35-.96,.48-1.53,1.2-1.7,2.16-.1,.56-.07,1.07,.1,1.52,.17,.46,.57,.91,1.2,1.37,.63,.46,1.59,.97,2.87,1.53,3.19,1.38,5.33,2.8,6.43,4.25,1.1,1.45,1.49,3.05,1.17,4.82-.37,2.02-1.42,3.57-3.16,4.67-1.74,1.09-4.22,1.35-7.43,.77Z"/><path d="M618.26,165.81l.74-2.73,3.7,.35,7.33-27.13-3.37-1.56,.74-2.75,7.81,2.11-8.24,30.49,3.37,1.56-.74,2.73-11.34-3.06Z"/><path d="M642.21,173.32c-2.5-.84-4.18-2.3-5.05-4.37s-.73-4.81,.41-8.2l3.46-10.28-2.44-1.48,.91-2.7,2.64,.89,4.19,1.41-4.58,13.63c-.83,2.46-1.03,4.27-.62,5.43,.41,1.17,1.39,2.01,2.92,2.52,1.49,.5,2.82,.61,4,.34,1.17-.28,2.2-.88,3.07-1.82l4.47-13.31-2.89-1.63,.91-2.7,3.09,1.04,4.19,1.41-6.64,19.76,2.44,1.48-.9,2.68-6.41-2.16,.87-3.5c-1.14,.99-2.39,1.63-3.76,1.91-1.37,.28-2.8,.17-4.29-.33Z"/><path d="M657.45,178.02l1.11-2.6,2.68,.58,10.18-5.38-3.14-10.74-2.01-1.42,1.12-2.62,8.76,3.73-1.12,2.62-2.34-.7,2.16,7.66,6.9-3.82-2.3-1.25,1.12-2.62,8.62,3.67-1.12,2.62-2.48-.49-9.42,5.31,3.43,11.25,2.11,1.46-1.11,2.6-9.49-4.04,1.11-2.6,2.78,.92-2.35-8.06-7.3,3.95,2.32,1.26-1.11,2.6-9.13-3.89Z"/></g><g><polygon points="280.99 292.11 340.02 346.06 344.56 336.09 410.05 393.98 413.34 385.11 449.52 419.19 422.05 404.15 418.44 411.82 351.7 355.03 348.09 362.7 280.99 292.11"/><polygon points="274.03 672.47 333.06 618.51 337.59 628.48 403.09 570.59 406.38 579.46 442.56 545.39 415.09 560.42 411.48 552.76 344.74 609.54 341.13 601.87 274.03 672.47"/><polygon points="230.58 446.02 305.81 473.16 306.16 462.2 388.87 490.49 388.5 481.04 435 498.59 403.86 495.27 403.47 503.73 320.04 476.95 319.65 485.41 230.58 446.02"/></g><g><polygon points="795.12 292.11 736.09 346.06 731.55 336.09 666.06 393.98 662.77 385.11 626.59 419.19 654.06 404.15 657.67 411.82 724.41 355.03 728.02 362.7 795.12 292.11"/><polygon points="802.08 672.47 743.05 618.51 738.52 628.48 673.02 570.59 669.73 579.46 633.55 545.39 661.02 560.42 664.63 552.76 731.37 609.54 734.98 601.87 802.08 672.47"/><polygon points="845.54 446.02 770.3 473.16 769.95 462.2 687.24 490.49 687.61 481.04 641.11 498.59 672.25 495.27 672.64 503.73 756.07 476.95 756.46 485.41 845.54 446.02"/></g><ellipse class="g" cx="529.92" cy="523.2" rx="392.27" ry="387.36"/><g><path class="f" d="M194.89,360.89l-3.59-1.98,1.7-4.96-35.6-19.69-3.29,4.08-3.61-2,5.52-9.98,17.7,9.79c-.91-1.85-1.35-3.75-1.34-5.7,.01-1.95,.52-3.84,1.54-5.67,1.78-3.21,4.14-5.16,7.1-5.85s6.48,.11,10.58,2.38l14.91,8.25,3.3-4.08,3.58,1.98-8.02,14.49-3.59-1.98,1.7-4.96-14.97-8.28c-2.54-1.41-4.71-1.91-6.52-1.52-1.8,.39-3.29,1.64-4.45,3.75-.83,1.5-1.22,3.06-1.17,4.69,.05,1.63,.48,3.19,1.29,4.68l18.35,10.15,3.3-4.08,3.59,1.98-8.02,14.49Z"/><path class="f" d="M216.81,322.95l-5.49-3.61,3.42-5.21,5.49,3.61-3.43,5.21Z"/><path class="f" d="M233.54,300.26c-1.91,2.53-4.16,4.28-6.75,5.26s-5.33,1.18-8.22,.61c-2.88-.57-5.71-1.9-8.47-3.99l-1.14-.86c-2.67-2.01-4.65-4.34-5.94-7-1.3-2.66-1.88-5.33-1.76-8.03,.12-2.7,.98-5.1,2.56-7.21,1.86-2.46,3.93-4.13,6.22-5.01,2.29-.88,4.69-1.03,7.21-.46,2.51,.57,5.04,1.82,7.59,3.74l3.19,2.41-13.38,17.75,.07,.17c1.83,1.33,3.66,2.22,5.49,2.69,1.83,.47,3.56,.46,5.18-.04,1.62-.5,3.01-1.51,4.17-3.04,1.27-1.69,2.14-3.35,2.6-5,.47-1.64,.62-3.26,.45-4.84l4.79,.56c.23,1.71,.07,3.62-.47,5.73-.55,2.11-1.67,4.3-3.38,6.56Zm-22.79-5.96l9.51-12.62-.67-.51c-1.35-1.02-2.73-1.7-4.15-2.04-1.41-.34-2.77-.28-4.08,.18-1.31,.46-2.48,1.38-3.52,2.76-.84,1.11-1.27,2.38-1.29,3.79-.02,1.41,.32,2.84,1.02,4.3,.7,1.45,1.7,2.82,3.02,4.1l.17,.05Z"/><path class="f" d="M245.14,284.67l-4.98-4.28,4.07-4.73,4.98,4.29-4.07,4.73Z"/><path class="f" d="M274.61,254.61c-1.68,1.58-3.41,2.88-5.2,3.91-1.79,1.03-3.85,1.95-6.17,2.77l-5.77-6.04,3.44-3.23,4.31,2.87c1.2-.45,2.29-.97,3.25-1.56,.96-.59,1.91-1.33,2.85-2.21,1.85-1.74,2.83-3.34,2.94-4.82,.12-1.48-.33-2.75-1.34-3.83-.95-1.01-2.16-1.49-3.63-1.43-1.47,.06-3.49,.84-6.08,2.35-3.68,2.12-6.8,3.26-9.34,3.41-2.54,.15-4.75-.78-6.62-2.77-1.31-1.39-2.08-3-2.33-4.84s.02-3.73,.81-5.7c.79-1.96,2.12-3.82,3.98-5.57,1.89-1.78,3.72-3.08,5.48-3.9,1.76-.82,3.49-1.33,5.19-1.53l5.73,5.63-3.41,3.21-3.95-2.72c-.92,.1-1.86,.38-2.81,.85-.95,.47-1.9,1.16-2.85,2.06-1.42,1.33-2.24,2.75-2.49,4.26-.25,1.51,.11,2.78,1.08,3.81,.56,.6,1.18,1,1.85,1.21,.67,.2,1.53,.14,2.59-.18,1.06-.33,2.45-.97,4.17-1.94,4.26-2.43,7.69-3.65,10.29-3.65,2.59,0,4.78,.95,6.57,2.84,2.04,2.16,2.96,4.71,2.77,7.64-.19,2.93-1.96,5.97-5.31,9.12Z"/><path class="f" d="M299.19,233.44c-2.93,2.28-5.98,3.1-9.13,2.44-3.15-.65-6.32-3.02-9.5-7.11l-9.64-12.4-3.66,1.69-2.53-3.26,3.1-2.41,4.93-3.83,12.77,16.43c2.3,2.96,4.31,4.67,6.03,5.12,1.71,.45,3.47-.02,5.27-1.42,1.75-1.36,2.91-2.85,3.49-4.46,.58-1.62,.64-3.32,.18-5.11l-12.47-16.04-4.19,2.1-2.53-3.26,3.63-2.82,4.93-3.83,18.52,23.82,3.66-1.69,2.51,3.23-7.53,5.85-3.52-3.85c.31,2.15,.1,4.15-.61,6-.72,1.85-1.95,3.45-3.7,4.81Z"/><path class="f" d="M317.42,218.94l-2.22-3.44,3.84-3.57-13.65-21.11-4.83,2.04-2.24-3.47,9.02-5.83,2.89,3.48,.39,.48c-.16-2.04,.08-3.87,.72-5.5,.64-1.63,1.74-2.94,3.28-3.94,.55-.36,1.15-.67,1.79-.94,.64-.27,1.11-.44,1.42-.51l2.54,5.44-3.78,2.14c-1.44,.8-2.39,1.88-2.86,3.22-.46,1.35-.55,2.8-.27,4.37l10.82,16.74,4.83-2.04,2.22,3.44-13.91,8.99Z"/><path class="f" d="M352.4,197.72l-25.09-21.29-3.36,1.23-1.93-3.65,12.7-6.74,1.93,3.65-3.64,2.67,16.1,14.14,2.11,2.08,.17-.09-.43-2.97-3.14-21.01-4.36,1.58-1.94-3.65,12.68-6.72,1.93,3.65-2.96,2.12,4.08,32.43-4.84,2.57Z"/><path class="f" d="M386.75,182.15c-2.92,1.22-5.75,1.6-8.48,1.14-2.73-.46-5.2-1.67-7.4-3.62-2.2-1.94-3.97-4.52-5.31-7.72l-.55-1.32c-1.29-3.08-1.83-6.09-1.61-9.04,.22-2.95,1.06-5.56,2.52-7.83,1.46-2.27,3.41-3.91,5.85-4.94,2.84-1.19,5.48-1.59,7.9-1.19,2.42,.4,4.57,1.48,6.46,3.24,1.88,1.76,3.44,4.11,4.67,7.05l1.55,3.69-20.51,8.59-.02,.19c.91,2.06,2.04,3.76,3.38,5.09,1.35,1.33,2.84,2.19,4.5,2.58,1.65,.39,3.36,.21,5.13-.53,1.95-.81,3.54-1.82,4.77-3,1.23-1.19,2.17-2.5,2.83-3.95l3.86,2.9c-.66,1.59-1.76,3.16-3.3,4.71-1.54,1.55-3.61,2.87-6.22,3.96Zm-16.69-16.63l14.57-6.11-.33-.78c-.65-1.56-1.51-2.84-2.56-3.85-1.05-1.01-2.26-1.64-3.61-1.9-1.36-.27-2.84-.06-4.43,.6-1.29,.54-2.29,1.41-3.02,2.62-.73,1.21-1.16,2.62-1.29,4.22-.13,1.6,.05,3.29,.54,5.06l.12,.12Z"/><path class="f" d="M392.7,132.21l-2.21-6.5,6.21-2.11,2.21,6.5-6.21,2.11Zm9.52,43.1l-1.32-3.88,4.6-2.52-8.08-23.8-5.18,.8-1.33-3.91,10.8-3.67,9.7,28.57,5.18-.8,1.32,3.88-15.68,5.33Z"/><path class="f" d="M421.14,169.01l-1.13-3.94,4.71-2.3-11.21-39.11-5.21,.55-1.14-3.97,10.96-3.14,12.59,43.95,5.21-.55,1.13,3.94-15.92,4.56Z"/><path class="f" d="M440.5,163.61l-.91-4,4.83-2.03-8.98-39.67-5.24,.25-.91-4.03,11.12-2.52,10.1,44.59,5.24-.25,.91,4-16.15,3.66Z"/><path class="f" d="M471.22,158.03c-3.53,.54-6.34,.06-8.45-1.43-2.11-1.49-3.4-3.84-3.89-7.06-.33-2.21-.04-4.22,.89-6.04,.93-1.82,2.44-3.35,4.54-4.6,2.1-1.25,4.7-2.11,7.81-2.58l6.04-.92-.52-3.41c-.32-2.1-1.19-3.63-2.6-4.6-1.42-.97-3.25-1.28-5.51-.94-1.42,.22-2.62,.58-3.61,1.09-.99,.51-1.87,1.14-2.63,1.89l.08,4.96-4.76,.72-1.21-7.97c1.33-1.49,2.96-2.72,4.89-3.68,1.93-.96,4.12-1.63,6.58-2,4.11-.62,7.49-.1,10.13,1.56s4.25,4.37,4.82,8.12l2.54,16.75c.07,.45,.14,.89,.22,1.32,.08,.43,.17,.85,.27,1.27l3.34-.15,.61,4.05-8.86,1.34c-.33-.91-.6-1.74-.82-2.47s-.4-1.47-.56-2.22c-.95,1.75-2.24,3.27-3.87,4.58s-3.45,2.12-5.48,2.43Zm.1-5.44c2.05-.31,3.84-1.1,5.38-2.36,1.54-1.26,2.56-2.66,3.08-4.18l-.96-6.3-6.26,.95c-2.84,.43-4.86,1.45-6.07,3.06-1.21,1.61-1.68,3.27-1.42,4.99,.23,1.52,.87,2.62,1.91,3.28,1.04,.66,2.49,.86,4.35,.57Z"/><path class="f" d="M494.51,153.82l-.2-4.09,5.11-1.16-1.24-25.11-5.2-.66-.2-4.12,10.72-.53,.7,5.21c1.05-1.92,2.4-3.43,4.07-4.55,1.67-1.11,3.6-1.72,5.79-1.83,3.69-.18,6.6,.79,8.74,2.91,2.13,2.12,3.31,5.5,3.54,10.13l.85,17.18,5.2,.65,.2,4.09-16.54,.81-.2-4.09,5.11-1.16-.84-17.05c-.15-3.1-.86-5.27-2.11-6.51-1.26-1.24-3.11-1.8-5.55-1.68-1.79,.09-3.36,.61-4.69,1.57-1.34,.96-2.38,2.22-3.13,3.8l1.02,20.62,5.2,.66,.2,4.09-16.54,.81Z"/><path class="f" d="M551,153.61c-3.1-.15-5.76-1.03-7.99-2.62-2.23-1.6-3.91-3.75-5.04-6.45-1.13-2.7-1.62-5.79-1.45-9.25l.07-1.36c.16-3.33,.92-6.29,2.28-8.87,1.35-2.58,3.22-4.58,5.59-6.01s5.15-2.06,8.34-1.9c2.76,.14,5.16,.72,7.19,1.75,2.03,1.03,3.71,2.4,5.04,4.09l-.26,8.45-4.87-.24-.77-6.19c-.68-.79-1.55-1.44-2.6-1.95-1.05-.51-2.31-.8-3.76-.87-1.86-.09-3.51,.39-4.97,1.45-1.46,1.06-2.62,2.51-3.5,4.35-.87,1.85-1.37,3.93-1.48,6.24l-.07,1.36c-.13,2.55,.13,4.79,.76,6.71,.63,1.92,1.61,3.43,2.92,4.52,1.31,1.1,2.9,1.69,4.78,1.78,2.11,.1,3.89-.41,5.34-1.53,1.45-1.12,2.39-2.72,2.8-4.78l5.6,.28,.05,.2c-.21,2.01-.88,3.86-2.02,5.56-1.14,1.7-2.71,3.04-4.72,4.02-2,.98-4.43,1.39-7.28,1.25Z"/><path class="f" d="M584.47,156.88c-3.14-.44-5.76-1.56-7.88-3.35-2.11-1.8-3.62-4.09-4.52-6.89-.9-2.8-1.11-5.91-.62-9.35l.2-1.42c.46-3.31,1.54-6.17,3.24-8.59,1.69-2.42,3.75-4.24,6.17-5.44,2.42-1.2,4.93-1.62,7.55-1.26,3.05,.43,5.52,1.43,7.4,3.01,1.88,1.58,3.18,3.6,3.9,6.08,.72,2.48,.86,5.29,.41,8.45l-.56,3.96-22.02-3.09-.12,.15c-.27,2.24-.17,4.27,.31,6.1,.48,1.83,1.33,3.33,2.55,4.51,1.22,1.18,2.78,1.9,4.68,2.17,2.09,.29,3.97,.25,5.63-.15,1.66-.39,3.15-1.04,4.45-1.95l1.84,4.46c-1.38,1.03-3.13,1.82-5.24,2.37-2.11,.55-4.57,.62-7.37,.23Zm-5.85-22.82l15.65,2.2,.12-.84c.23-1.67,.16-3.21-.23-4.61-.39-1.4-1.1-2.56-2.13-3.48-1.03-.92-2.41-1.5-4.12-1.74-1.38-.19-2.69,.04-3.94,.71-1.25,.67-2.33,1.66-3.26,2.97s-1.64,2.86-2.12,4.63l.04,.17Z"/><path class="f" d="M631.33,166.74c-3.05-.85-5.47-2.32-7.27-4.41-1.8-2.09-2.93-4.6-3.4-7.53-.47-2.93-.25-6.07,.69-9.41l.19-.69c.93-3.34,2.36-6.14,4.29-8.41,1.93-2.26,4.2-3.83,6.82-4.7,2.62-.87,5.44-.88,8.44-.04,3.05,.85,5.47,2.33,7.26,4.42,1.79,2.1,2.93,4.61,3.4,7.53s.25,6.07-.69,9.43l-.19,.69c-.94,3.36-2.37,6.17-4.3,8.44-1.93,2.26-4.19,3.82-6.79,4.67-2.6,.85-5.42,.85-8.45,0Zm1.35-4.82c1.91,.53,3.66,.44,5.25-.27,1.59-.71,2.98-1.91,4.16-3.6,1.18-1.68,2.11-3.72,2.77-6.1l.19-.69c.67-2.38,.93-4.6,.79-6.65-.14-2.05-.71-3.8-1.71-5.24s-2.47-2.43-4.4-2.97c-1.91-.53-3.67-.44-5.27,.27-1.6,.71-2.99,1.91-4.16,3.6-1.17,1.69-2.09,3.72-2.76,6.1l-.19,.69c-.66,2.38-.93,4.6-.8,6.65,.13,2.05,.7,3.8,1.71,5.24,1.01,1.44,2.48,2.43,4.42,2.97Z"/><path class="f" d="M666.58,178.52c-2.09-.8-3.75-1.91-4.97-3.32-1.22-1.41-2.04-3.11-2.45-5.1l-2.15,4.01-5.03-1.93,16.38-42.65-4.49-2.7,1.48-3.86,10.64,4.09-7.06,18.4c1.56-1.07,3.24-1.71,5.02-1.9,1.78-.2,3.67,.09,5.66,.85,2.64,1.01,4.61,2.61,5.91,4.79,1.3,2.18,1.94,4.79,1.92,7.82-.02,3.03-.71,6.31-2.06,9.83l-.24,.64c-1.21,3.16-2.77,5.73-4.68,7.71-1.9,1.98-4.04,3.28-6.41,3.89-2.37,.61-4.86,.42-7.46-.58Zm.39-5.42c2.74,1.05,5.16,.83,7.26-.66,2.1-1.49,3.78-3.89,5.05-7.19l.25-.64c.97-2.53,1.53-4.86,1.67-7,.14-2.14-.18-3.98-.97-5.53-.79-1.54-2.11-2.67-3.96-3.38-1.79-.69-3.48-.82-5.05-.41-1.57,.42-3.01,1.23-4.32,2.45l-5.57,14.51c.15,1.8,.67,3.38,1.58,4.75,.91,1.37,2.26,2.4,4.05,3.09Z"/><path class="f" d="M694.78,190.96c-2.06-1.02-3.89-2.18-5.48-3.49-1.59-1.31-3.18-2.92-4.76-4.81l3.63-7.53,4.23,2.08-1.17,5.04c.84,.97,1.71,1.8,2.6,2.49,.89,.69,1.92,1.32,3.07,1.89,2.27,1.12,4.12,1.47,5.55,1.06,1.42-.41,2.46-1.28,3.11-2.6,.61-1.24,.63-2.54,.07-3.9-.57-1.35-2.01-2.98-4.33-4.87-3.28-2.7-5.44-5.22-6.47-7.55-1.03-2.33-.94-4.72,.26-7.17,.84-1.71,2.08-3.01,3.71-3.88,1.63-.88,3.5-1.29,5.62-1.24,2.12,.05,4.32,.64,6.61,1.77,2.33,1.15,4.19,2.4,5.58,3.76,1.39,1.36,2.48,2.8,3.26,4.32l-3.26,7.35-4.21-2.07,1.16-4.65c-.42-.83-1.01-1.61-1.78-2.33-.78-.72-1.75-1.37-2.93-1.95-1.74-.86-3.37-1.13-4.87-.83-1.5,.3-2.56,1.08-3.18,2.35-.36,.74-.52,1.46-.48,2.16,.04,.7,.4,1.49,1.08,2.36,.67,.88,1.77,1.95,3.28,3.23,3.77,3.14,6.12,5.92,7.03,8.35,.91,2.43,.79,4.81-.36,7.15-1.31,2.67-3.37,4.43-6.18,5.28-2.81,.85-6.28,.26-10.41-1.77Z"/><path class="f" d="M723.74,206.86c-2.71-1.64-4.68-3.7-5.92-6.19-1.24-2.48-1.71-5.19-1.44-8.11,.28-2.92,1.31-5.87,3.11-8.84l.74-1.22c1.73-2.86,3.85-5.06,6.36-6.62,2.51-1.56,5.12-2.41,7.81-2.57,2.7-.15,5.17,.45,7.43,1.82,2.64,1.6,4.51,3.49,5.61,5.68,1.1,2.19,1.5,4.56,1.18,7.12-.32,2.56-1.3,5.2-2.95,7.93l-2.07,3.42-19.02-11.52-.17,.09c-1.13,1.95-1.84,3.86-2.12,5.73-.28,1.87-.09,3.59,.56,5.15,.66,1.57,1.81,2.84,3.45,3.84,1.81,1.09,3.55,1.79,5.23,2.09,1.68,.3,3.3,.28,4.86-.04l-.07,4.82c-1.68,.4-3.59,.44-5.75,.11-2.16-.33-4.45-1.23-6.87-2.69Zm3.62-23.28l13.52,8.19,.44-.72c.88-1.45,1.41-2.89,1.61-4.33,.19-1.44,0-2.79-.59-4.04-.59-1.25-1.62-2.33-3.1-3.23-1.19-.72-2.49-1.02-3.9-.9-1.41,.12-2.8,.61-4.17,1.45-1.37,.84-2.63,1.98-3.77,3.42l-.03,.17Z"/><path class="f" d="M738.43,215.29l2.4-3.32,4.72,2.28,14.71-20.38-3.65-3.76,2.42-3.35,8.7,6.29-2.19,3.95-.31,.54c1.84-.89,3.64-1.33,5.39-1.32,1.75,0,3.37,.55,4.86,1.63,.53,.38,1.04,.82,1.53,1.32,.49,.5,.82,.88,.99,1.14l-4.15,4.34-3.37-2.75c-1.27-1.05-2.62-1.55-4.04-1.49-1.42,.06-2.81,.5-4.17,1.34l-11.67,16.16,3.65,3.76-2.4,3.32-13.43-9.7Z"/><path class="f" d="M770.83,240.17l10.83-31.08-2.36-2.69,2.71-3.12,10.86,9.42-2.71,3.12-3.8-2.44-7.39,20.11-1.19,2.72,.14,.12,2.62-1.47,18.46-10.5-3.04-3.5,2.71-3.12,10.83,9.4-2.71,3.12-3.05-2-28.79,15.49-4.14-3.59Z"/><path class="f" d="M794.72,263.54c-2.45-2.6-3.66-5.18-3.63-7.76,.03-2.58,1.22-4.98,3.59-7.22,1.62-1.53,3.45-2.44,5.47-2.71,2.02-.27,4.15,.1,6.37,1.11,2.22,1.01,4.41,2.66,6.57,4.95l4.19,4.44,2.51-2.37c1.55-1.46,2.31-3.05,2.3-4.76-.01-1.72-.8-3.4-2.36-5.06-.99-1.04-1.97-1.83-2.96-2.35-.98-.52-2-.88-3.05-1.08l-4.03,2.89-3.3-3.5,5.87-5.54c1.99,.24,3.93,.88,5.81,1.92,1.89,1.04,3.68,2.46,5.39,4.27,2.85,3.03,4.35,6.1,4.49,9.22,.14,3.12-1.17,5.98-3.93,8.58l-12.32,11.63c-.33,.31-.65,.62-.96,.93-.31,.31-.61,.62-.89,.95l2.02,2.66-2.98,2.81-6.15-6.52c.56-.79,1.08-1.49,1.56-2.08,.48-.6,.98-1.17,1.5-1.72-1.98,.21-3.97,.02-5.97-.57-2-.59-3.71-1.63-5.11-3.12Zm4.53-3.01c1.42,1.5,3.09,2.53,5,3.07,1.92,.54,3.65,.59,5.19,.15l4.63-4.37-4.35-4.61c-1.97-2.09-3.96-3.17-5.97-3.25-2.01-.08-3.65,.48-4.91,1.67-1.12,1.06-1.66,2.2-1.61,3.44,.05,1.23,.71,2.53,2,3.9Z"/><path class="f" d="M818.41,290.48c-1.58-1.98-2.24-4.02-1.98-6.14,.26-2.12,1.7-4.23,4.33-6.33l16.67-13.36-3.39-4.23,3.71-2.97,3.39,4.23,6.62-5.31,3.9,4.87-6.62,5.31,4.65,5.81-3.71,2.97-4.65-5.81-16.67,13.36c-1.32,1.06-2.09,2.09-2.3,3.1-.22,1.01,.02,1.95,.7,2.8,.46,.58,1.03,1.18,1.71,1.8,.68,.62,1.22,1.1,1.62,1.42l-2.74,3.29c-.79-.53-1.68-1.25-2.67-2.14-.99-.9-1.85-1.79-2.56-2.68Z"/><path class="f" d="M833.01,310.67c-1.78-2.62-2.68-5.31-2.7-8.06s.74-5.4,2.27-7.95c1.53-2.55,3.74-4.79,6.61-6.74l.59-.4c2.87-1.95,5.77-3.16,8.71-3.65,2.93-.48,5.68-.21,8.24,.82,2.56,1.03,4.72,2.84,6.47,5.43,1.78,2.62,2.67,5.31,2.68,8.07,.01,2.76-.75,5.41-2.27,7.95-1.53,2.54-3.73,4.79-6.62,6.75l-.59,.4c-2.89,1.96-5.8,3.18-8.73,3.66-2.93,.48-5.67,.21-8.2-.83-2.54-1.04-4.69-2.86-6.45-5.46Zm4.14-2.81c1.11,1.64,2.51,2.71,4.19,3.19,1.68,.48,3.51,.46,5.5-.06,1.99-.52,4.01-1.47,6.06-2.86l.59-.4c2.04-1.39,3.68-2.91,4.9-4.57,1.22-1.66,1.91-3.36,2.08-5.1,.17-1.74-.32-3.45-1.44-5.11-1.11-1.64-2.51-2.71-4.19-3.2-1.68-.49-3.52-.47-5.5,.06-1.99,.53-4,1.49-6.05,2.88l-.59,.4c-2.05,1.39-3.68,2.9-4.91,4.55-1.23,1.65-1.92,3.35-2.08,5.1-.16,1.75,.32,3.46,1.45,5.12Z"/><path class="f" d="M843.98,326.24l3.58-2,3.31,4.06,21.95-12.25-1.72-4.95,3.61-2.01,5.23,9.37-3.66,2.66-.51,.36c2.04-.03,3.86,.33,5.44,1.08,1.58,.75,2.82,1.92,3.72,3.53,.32,.57,.59,1.19,.82,1.84,.23,.66,.37,1.14,.42,1.45l-5.6,2.18-1.89-3.92c-.71-1.49-1.72-2.51-3.03-3.06-1.31-.55-2.76-.73-4.35-.55l-17.41,9.71,1.72,4.95-3.58,2-8.07-14.46Z"/><path class="f" d="M847.04,362.07c-.2-.44-.4-1.05-.61-1.81-.21-.76-.35-1.36-.42-1.79l4.87-1.46c.11,.34,.27,.81,.5,1.41,.23,.59,.39,.99,.48,1.21,.54,1.22,1.45,1.99,2.74,2.34,1.29,.34,2.9,.48,4.84,.4l3.99-.14,22.35-23.17-1.01-3.57,3.78-1.67,5.83,13.15-3.78,1.67-2.28-3.53-13.38,13.24-3.54,3.33,.08,.17,23.48-1.75-1.18-4.26,3.78-1.67,5.71,12.88-3.78,1.67-1.91-3.03-38.32,2.23c-1.8,.11-3.49,.02-5.08-.26-1.58-.28-2.98-.86-4.2-1.74s-2.2-2.16-2.95-3.84Z"/></g><g><path d="M932.72,525c.03-1.95,.73-3.48,2.11-4.6,1.38-1.12,3.33-1.66,5.86-1.62l4.72,.07c2.53,.04,4.47,.63,5.82,1.78,1.34,1.15,2,2.7,1.97,4.65-.03,1.96-.74,3.5-2.12,4.61-1.38,1.12-3.34,1.66-5.87,1.62l-4.72-.07c-2.54-.04-4.48-.63-5.82-1.78-1.34-1.15-1.99-2.71-1.96-4.66Zm2.1,.03c-.02,1.19,.41,2.1,1.27,2.73,.86,.63,2.16,.96,3.9,.98l5.84,.09c1.72,.03,3.02-.27,3.9-.88,.88-.61,1.33-1.51,1.35-2.71,.02-1.17-.4-2.08-1.26-2.71-.86-.63-2.15-.96-3.88-.99l-5.84-.09c-1.72-.03-3.03,.27-3.92,.88-.89,.61-1.34,1.51-1.36,2.68Z"/><path d="M932.77,534.46l1.72,.08,.23,3.09,14.9,.73,.1-3.13,1.68,.08,.97,5.88-17.78-.87-.53,3.04-1.72-.08,.43-8.82Z"/><path d="M932.17,545.85l1.72,.13,.15,3.09,14.87,1.14,.19-3.12,1.68,.13,.81,5.9-17.75-1.37-.62,3.02-1.72-.13,.68-8.8Z"/><path d="M930.3,563.45c.21-1.94,1.06-3.4,2.53-4.38,1.48-.98,3.47-1.33,5.99-1.06l4.69,.52c2.52,.28,4.39,1.05,5.62,2.33,1.23,1.27,1.74,2.88,1.52,4.82-.22,1.95-1.06,3.41-2.54,4.39-1.48,.98-3.48,1.33-6,1.06l-4.69-.52c-2.53-.28-4.4-1.06-5.62-2.33-1.22-1.27-1.72-2.88-1.51-4.83Zm2.09,.23c-.13,1.19,.2,2.13,1.01,2.84,.8,.71,2.06,1.16,3.79,1.35l5.8,.64c1.71,.19,3.03,.02,3.97-.5,.93-.52,1.47-1.38,1.6-2.57,.13-1.17-.21-2.11-1-2.82-.8-.71-2.05-1.16-3.76-1.35l-5.8-.64c-1.71-.19-3.04-.02-3.98,.51-.94,.53-1.48,1.38-1.61,2.54Z"/><path d="M928.27,579.07c.29-1.93,1.19-3.35,2.7-4.28,1.51-.92,3.52-1.2,6.03-.82l4.67,.7c2.51,.38,4.35,1.22,5.53,2.54s1.62,2.94,1.34,4.87c-.29,1.94-1.19,3.37-2.71,4.29-1.52,.92-3.53,1.2-6.03,.82l-4.67-.7c-2.51-.38-4.36-1.22-5.53-2.54-1.17-1.32-1.61-2.95-1.32-4.88Zm2.08,.31c-.18,1.18,.12,2.14,.9,2.88,.77,.74,2.02,1.24,3.73,1.49l5.77,.87c1.7,.26,3.03,.14,3.98-.35,.95-.49,1.52-1.32,1.7-2.5,.18-1.16-.12-2.11-.89-2.86-.77-.74-2-1.24-3.71-1.5l-5.77-.87c-1.7-.26-3.04-.14-4,.35-.96,.49-1.53,1.32-1.71,2.48Z"/><path d="M927.06,588.45l1.69,.31-.18,3.09,14.67,2.7,.51-3.09,1.65,.3,.18,5.95-17.51-3.23-.93,2.94-1.69-.31,1.6-8.68Z"/><path d="M924.95,599.66l1.68,.36-.27,3.09,14.59,3.11,.6-3.07,1.65,.35v5.96l-17.39-3.72-1.01,2.91-1.68-.36,1.84-8.63Z"/><path d="M920.75,616.85c.47-1.89,1.5-3.23,3.1-4,1.59-.78,3.62-.86,6.08-.25l4.58,1.14c2.46,.61,4.21,1.63,5.26,3.05,1.05,1.42,1.34,3.08,.87,4.98-.47,1.9-1.51,3.24-3.1,4.02-1.6,.78-3.62,.86-6.08,.25l-4.58-1.14c-2.47-.61-4.22-1.63-5.26-3.05-1.04-1.42-1.32-3.08-.85-4.99Zm2.04,.51c-.29,1.16-.08,2.14,.62,2.95,.7,.81,1.89,1.42,3.57,1.84l5.67,1.41c1.67,.42,3,.43,4,.03,1-.4,1.64-1.17,1.92-2.33,.28-1.14,.08-2.12-.62-2.93-.7-.81-1.88-1.42-3.55-1.84l-5.67-1.41c-1.67-.42-3.01-.42-4.01-.03-1.01,.4-1.65,1.17-1.93,2.31Z"/><path d="M914.68,638.67c.57-1.86,1.68-3.14,3.31-3.83,1.63-.69,3.66-.66,6.08,.09l4.51,1.39c2.42,.75,4.12,1.86,5.08,3.34,.97,1.48,1.17,3.15,.59,5.02-.58,1.87-1.69,3.15-3.32,3.84-1.64,.69-3.67,.66-6.09-.09l-4.51-1.39c-2.43-.75-4.12-1.87-5.08-3.34-.96-1.48-1.15-3.15-.57-5.03Zm2.01,.62c-.35,1.14-.2,2.13,.45,2.98s1.81,1.52,3.46,2.04l5.58,1.72c1.65,.51,2.98,.59,3.99,.25s1.7-1.08,2.05-2.22c.35-1.12,.2-2.11-.45-2.96-.65-.85-1.8-1.53-3.44-2.04l-5.58-1.72c-1.65-.51-2.98-.59-4.01-.25-1.03,.34-1.71,1.07-2.06,2.2Z"/><path d="M912.08,647.75l1.63,.56-.64,3.03,14.1,4.87,.97-2.97,1.59,.55-.71,5.91-16.82-5.82-1.36,2.77-1.63-.56,2.88-8.34Z"/><path d="M908.31,658.52l1.61,.61-.73,3.01,13.96,5.27,1.05-2.95,1.57,.59-.88,5.89-16.65-6.29-1.44,2.73-1.61-.61,3.12-8.26Z"/><path d="M901.57,674.91c.75-1.8,1.97-2.96,3.66-3.49,1.69-.53,3.71-.31,6.05,.67l4.35,1.81c2.34,.97,3.92,2.24,4.74,3.81,.82,1.57,.86,3.25,.11,5.05-.75,1.81-1.98,2.98-3.67,3.5-1.7,.53-3.71,.3-6.05-.67l-4.36-1.81c-2.35-.98-3.93-2.25-4.74-3.81s-.85-3.25-.09-5.06Zm1.94,.81c-.46,1.1-.4,2.1,.17,3.01,.57,.9,1.66,1.69,3.26,2.36l5.39,2.24c1.59,.66,2.91,.87,3.95,.63,1.04-.24,1.79-.91,2.25-2.01,.45-1.08,.39-2.08-.17-2.99s-1.64-1.69-3.23-2.35l-5.39-2.24c-1.59-.66-2.91-.87-3.97-.63-1.05,.24-1.81,.91-2.26,1.99Z"/><path d="M898.12,683.71l1.57,.71-.93,2.96,13.57,6.19,1.25-2.87,1.53,.7-1.27,5.82-16.2-7.39-1.62,2.63-1.57-.71,3.66-8.03Z"/><path d="M890.31,699.6c.87-1.75,2.16-2.83,3.89-3.24,1.72-.42,3.72-.06,5.99,1.07l4.22,2.1c2.27,1.13,3.76,2.5,4.48,4.12,.72,1.62,.64,3.3-.23,5.05-.87,1.75-2.17,2.84-3.9,3.25s-3.73,.06-5.99-1.07l-4.22-2.1c-2.28-1.13-3.77-2.5-4.48-4.12-.71-1.61-.63-3.3,.24-5.05Zm1.89,.94c-.53,1.07-.54,2.07-.03,3.01,.51,.94,1.54,1.8,3.09,2.57l5.23,2.6c1.54,.77,2.84,1.07,3.9,.89,1.06-.17,1.85-.79,2.38-1.86,.52-1.05,.53-2.05,.03-2.99-.5-.94-1.53-1.8-3.07-2.56l-5.23-2.6c-1.54-.77-2.85-1.06-3.92-.89-1.07,.17-1.86,.78-2.39,1.83Z"/><path d="M883.02,713.57c.93-1.71,2.27-2.74,4.01-3.09,1.74-.35,3.72,.08,5.94,1.3l4.14,2.26c2.22,1.21,3.66,2.65,4.32,4.29s.51,3.32-.42,5.03c-.94,1.72-2.28,2.75-4.02,3.1-1.74,.35-3.72-.09-5.95-1.3l-4.14-2.26c-2.23-1.22-3.67-2.65-4.32-4.29-.65-1.64-.5-3.32,.44-5.04Zm1.85,1.01c-.57,1.05-.62,2.05-.15,3.01,.47,.96,1.47,1.85,2.99,2.68l5.12,2.8c1.51,.83,2.8,1.17,3.86,1.04,1.06-.13,1.88-.72,2.45-1.77,.56-1.03,.61-2.03,.15-2.99-.47-.96-1.46-1.85-2.97-2.68l-5.12-2.8c-1.51-.83-2.8-1.17-3.88-1.04-1.07,.13-1.89,.71-2.46,1.74Z"/><path d="M878.65,721.98l1.48,.88-1.23,2.84,12.84,7.59,1.54-2.72,1.45,.86-1.88,5.65-15.33-9.05-1.89,2.44-1.48-.88,4.49-7.6Z"/><path d="M865.47,742.72c1.07-1.63,2.49-2.54,4.25-2.74,1.76-.2,3.7,.4,5.81,1.79l3.94,2.6c2.11,1.4,3.43,2.94,3.94,4.63,.52,1.69,.24,3.35-.84,4.98-1.08,1.63-2.5,2.55-4.27,2.75-1.77,.2-3.7-.4-5.82-1.79l-3.94-2.6c-2.12-1.4-3.44-2.95-3.94-4.63-.51-1.69-.22-3.35,.86-4.98Zm1.76,1.16c-.66,1-.79,1.99-.4,2.99,.39,1,1.31,1.97,2.75,2.93l4.87,3.22c1.44,.95,2.69,1.4,3.76,1.36,1.07-.04,1.93-.56,2.59-1.56,.65-.98,.78-1.97,.39-2.97-.39-1-1.3-1.97-2.73-2.92l-4.87-3.22c-1.44-.95-2.7-1.4-3.78-1.36-1.08,.04-1.94,.55-2.59,1.53Z"/><path d="M860.42,750.72l1.4,1-1.47,2.73,12.17,8.63,1.77-2.58,1.37,.97-2.34,5.48-14.52-10.3-2.08,2.28-1.4-1,5.11-7.2Z"/><path d="M853.78,760.01l1.38,1.03-1.54,2.69,11.92,8.96,1.84-2.53,1.34,1.01-2.49,5.41-14.23-10.7-2.15,2.22-1.38-1.03,5.3-7.06Z"/><path d="M846.9,769.1l1.35,1.07-1.61,2.64,11.67,9.29,1.9-2.48,1.32,1.05-2.64,5.34-13.93-11.08-2.2,2.16-1.35-1.07,5.5-6.91Z"/><path d="M835.48,782.62c1.26-1.49,2.78-2.22,4.55-2.21,1.77,.01,3.62,.84,5.55,2.48l3.59,3.06c1.93,1.64,3.05,3.33,3.35,5.08,.31,1.74-.17,3.36-1.44,4.84-1.27,1.49-2.79,2.23-4.57,2.21-1.78-.02-3.63-.84-5.56-2.49l-3.59-3.06c-1.94-1.65-3.05-3.34-3.35-5.08-.3-1.74,.19-3.35,1.46-4.84Zm1.6,1.36c-.77,.91-1.03,1.88-.76,2.92,.27,1.04,1.06,2.11,2.38,3.24l4.45,3.78c1.31,1.12,2.5,1.72,3.57,1.81s1.99-.32,2.76-1.23c.76-.9,1.01-1.86,.75-2.9s-1.05-2.11-2.36-3.23l-4.45-3.78c-1.31-1.12-2.51-1.72-3.58-1.81-1.08-.09-2,.31-2.76,1.21Z"/><path d="M825.05,794.43c1.3-1.45,2.83-2.15,4.61-2.1,1.77,.06,3.6,.93,5.49,2.61l3.52,3.14c1.89,1.69,2.97,3.41,3.23,5.16,.26,1.75-.25,3.35-1.55,4.81-1.3,1.46-2.84,2.16-4.62,2.1-1.77-.06-3.61-.93-5.5-2.62l-3.52-3.14c-1.9-1.69-2.97-3.41-3.23-5.16-.26-1.75,.27-3.35,1.57-4.81Zm1.57,1.4c-.8,.89-1.07,1.86-.83,2.9,.24,1.04,1.01,2.14,2.3,3.29l4.35,3.89c1.29,1.15,2.46,1.78,3.52,1.89,1.07,.11,2-.27,2.79-1.16,.78-.88,1.06-1.84,.82-2.88-.24-1.04-1-2.14-2.28-3.28l-4.35-3.89c-1.28-1.15-2.47-1.78-3.54-1.9-1.07-.12-2,.26-2.79,1.14Z"/><path d="M818.78,801.56l1.23,1.21-1.88,2.46,10.66,10.44,2.15-2.27,1.2,1.18-3.18,5.04-12.72-12.46-2.42,1.92-1.23-1.21,6.18-6.31Z"/><path d="M806.04,813.83c1.41-1.35,2.99-1.92,4.76-1.73,1.76,.19,3.52,1.21,5.27,3.04l3.26,3.41c1.75,1.83,2.69,3.63,2.81,5.4s-.52,3.32-1.93,4.67c-1.42,1.35-3,1.93-4.77,1.73-1.76-.2-3.52-1.21-5.27-3.04l-3.26-3.41c-1.76-1.84-2.7-3.64-2.81-5.4-.12-1.76,.53-3.32,1.94-4.67Zm1.46,1.52c-.86,.83-1.21,1.77-1.05,2.82,.16,1.06,.84,2.21,2.04,3.46l4.04,4.22c1.19,1.25,2.31,1.97,3.37,2.17,1.05,.2,2.01-.12,2.87-.94,.85-.81,1.2-1.75,1.04-2.8-.15-1.06-.83-2.21-2.02-3.45l-4.04-4.22c-1.19-1.25-2.32-1.97-3.38-2.17-1.06-.2-2.02,.1-2.87,.92Z"/><path d="M789.25,829.02c1.48-1.27,3.09-1.76,4.84-1.47,1.75,.29,3.45,1.4,5.09,3.32l3.07,3.58c1.65,1.92,2.49,3.77,2.51,5.54,.03,1.77-.7,3.29-2.18,4.56-1.49,1.27-3.11,1.76-4.86,1.47-1.75-.29-3.45-1.4-5.1-3.33l-3.07-3.58c-1.65-1.93-2.49-3.78-2.51-5.54-.02-1.76,.71-3.28,2.2-4.55Zm1.37,1.6c-.91,.78-1.31,1.7-1.21,2.76,.1,1.06,.72,2.25,1.84,3.57l3.8,4.43c1.12,1.31,2.2,2.09,3.24,2.34,1.04,.26,2.01,0,2.92-.78,.89-.76,1.29-1.68,1.2-2.74-.1-1.06-.7-2.25-1.82-3.56l-3.8-4.43c-1.12-1.31-2.21-2.09-3.25-2.35-1.05-.26-2.02,0-2.91,.76Z"/><path d="M782.19,835.33l1.08,1.34-2.16,2.22,9.32,11.64,2.41-2,1.05,1.31-3.76,4.62-11.12-13.9-2.63,1.61-1.08-1.35,6.89-5.52Z"/><path d="M773.26,842.43l1.04,1.37-2.22,2.16,8.99,11.9,2.46-1.93,1.01,1.34-3.89,4.51-10.73-14.2-2.67,1.54-1.04-1.37,7.04-5.32Z"/><path d="M758.84,852.68c1.59-1.12,3.25-1.46,4.96-1,1.71,.45,3.3,1.72,4.76,3.79l2.72,3.86c1.46,2.07,2.12,3.99,1.98,5.75-.14,1.76-1,3.21-2.6,4.33-1.6,1.13-3.26,1.46-4.98,1.01s-3.3-1.72-4.76-3.79l-2.72-3.86c-1.46-2.08-2.12-4-1.98-5.75,.15-1.76,1.02-3.2,2.62-4.33Zm1.21,1.72c-.98,.69-1.46,1.57-1.46,2.63,0,1.07,.5,2.31,1.5,3.73l3.36,4.77c.99,1.41,1.99,2.29,3.01,2.64,1.01,.35,2,.18,2.98-.5,.96-.68,1.44-1.55,1.45-2.62,0-1.07-.49-2.31-1.48-3.71l-3.36-4.77c-.99-1.41-2-2.29-3.02-2.65-1.02-.36-2.01-.2-2.97,.48Z"/><path d="M745.77,861.51c1.64-1.06,3.3-1.33,5-.81,1.69,.52,3.23,1.84,4.61,3.97l2.57,3.96c1.38,2.13,1.96,4.07,1.76,5.83-.21,1.76-1.13,3.17-2.76,4.23-1.64,1.07-3.31,1.34-5.01,.81s-3.23-1.85-4.61-3.98l-2.57-3.96c-1.38-2.13-1.97-4.08-1.76-5.83,.21-1.75,1.14-3.16,2.78-4.22Zm1.15,1.77c-1,.65-1.52,1.51-1.56,2.58-.04,1.07,.41,2.33,1.35,3.78l3.18,4.9c.94,1.45,1.9,2.36,2.9,2.75,1,.39,2,.26,3-.39,.99-.64,1.5-1.49,1.55-2.56,.05-1.07-.4-2.32-1.34-3.77l-3.18-4.9c-.94-1.45-1.91-2.37-2.91-2.76-1.01-.4-2-.27-2.99,.37Z"/><path d="M737.96,866.81l.89,1.48-2.44,1.91,7.69,12.78,2.65-1.66,.87,1.44-4.34,4.08-9.18-15.25-2.82,1.25-.89-1.48,7.56-4.55Z"/><path d="M722.53,875.5c1.7-.95,3.38-1.11,5.04-.47,1.66,.63,3.1,2.05,4.33,4.27l2.3,4.12c1.23,2.21,1.69,4.19,1.36,5.93-.32,1.74-1.34,3.08-3.04,4.03-1.71,.95-3.4,1.11-5.05,.48-1.66-.64-3.1-2.06-4.34-4.27l-2.3-4.12c-1.24-2.22-1.69-4.2-1.36-5.93,.33-1.73,1.35-3.07,3.06-4.03Zm1.02,1.84c-1.04,.58-1.62,1.4-1.73,2.47-.11,1.06,.25,2.35,1.1,3.87l2.84,5.1c.84,1.5,1.74,2.49,2.71,2.94,.97,.46,1.98,.4,3.02-.19,1.03-.57,1.6-1.39,1.72-2.45s-.24-2.34-1.08-3.85l-2.84-5.1c-.84-1.51-1.75-2.49-2.72-2.95-.98-.46-1.98-.41-3.01,.16Z"/><path d="M714.34,880.29l.79,1.53-2.56,1.75,6.82,13.27,2.76-1.48,.77,1.5-4.6,3.78-8.14-15.83-2.9,1.06-.79-1.53,7.85-4.04Z"/><path d="M692.13,890.8c1.78-.8,3.46-.82,5.06-.05,1.6,.77,2.92,2.31,3.96,4.62l1.94,4.3c1.04,2.31,1.33,4.32,.86,6.02-.47,1.71-1.59,2.96-3.37,3.76-1.78,.81-3.48,.82-5.08,.05-1.6-.77-2.92-2.31-3.96-4.62l-1.94-4.3c-1.05-2.32-1.34-4.33-.86-6.02,.47-1.7,1.6-2.95,3.39-3.76Zm.87,1.92c-1.09,.49-1.73,1.26-1.93,2.31-.2,1.05,.06,2.36,.77,3.94l2.4,5.32c.71,1.57,1.53,2.62,2.45,3.16,.93,.54,1.94,.56,3.02,.07,1.07-.48,1.71-1.25,1.92-2.3,.21-1.05-.05-2.36-.75-3.93l-2.4-5.32c-.71-1.57-1.53-2.63-2.47-3.17-.93-.54-1.94-.57-3.01-.09Z"/><path d="M677.64,897.01c1.81-.73,3.49-.68,5.06,.15s2.83,2.42,3.78,4.77l1.77,4.37c.95,2.35,1.16,4.37,.63,6.05-.53,1.69-1.71,2.9-3.51,3.63-1.81,.74-3.51,.69-5.07-.15s-2.83-2.43-3.78-4.77l-1.77-4.37c-.96-2.36-1.17-4.37-.63-6.05,.54-1.68,1.71-2.89,3.53-3.62Zm.79,1.95c-1.11,.45-1.78,1.19-2.02,2.24-.24,1.04-.04,2.37,.62,3.97l2.19,5.41c.65,1.6,1.43,2.68,2.33,3.25,.91,.57,1.91,.63,3.02,.18,1.09-.44,1.76-1.18,2-2.22,.25-1.04,.05-2.36-.6-3.95l-2.19-5.41c-.65-1.6-1.43-2.68-2.34-3.26-.91-.58-1.91-.65-3-.2Z"/><path d="M668.96,900.75l.59,1.62-2.75,1.42,5.14,14,2.92-1.13,.58,1.58-5.03,3.19-6.14-16.71-3.01,.7-.59-1.62,8.29-3.04Z"/><path d="M652.17,906.37c1.85-.61,3.53-.45,5.04,.48,1.51,.93,2.66,2.6,3.45,5.01l1.48,4.48c.79,2.41,.87,4.43,.22,6.08-.65,1.65-1.89,2.78-3.75,3.39-1.86,.61-3.54,.45-5.05-.49-1.51-.94-2.66-2.61-3.45-5.01l-1.48-4.48c-.8-2.42-.87-4.44-.22-6.08,.65-1.64,1.9-2.77,3.76-3.38Zm.66,2c-1.13,.37-1.86,1.07-2.16,2.1-.31,1.02-.19,2.36,.35,4l1.83,5.54c.54,1.64,1.24,2.77,2.11,3.4,.86,.63,1.86,.76,3,.39,1.12-.37,1.83-1.06,2.15-2.08,.31-1.02,.2-2.35-.34-3.98l-1.83-5.54c-.54-1.64-1.25-2.77-2.12-3.41-.87-.64-1.87-.77-2.98-.4Z"/><path d="M637.09,911.02c1.88-.54,3.55-.31,5.02,.68,1.47,.99,2.55,2.7,3.25,5.14l1.3,4.53c.7,2.43,.69,4.46-.01,6.08-.71,1.62-2,2.7-3.88,3.24-1.88,.54-3.56,.31-5.03-.68-1.47-1-2.56-2.71-3.26-5.15l-1.3-4.53c-.7-2.44-.7-4.47,.01-6.08s2.01-2.69,3.89-3.23Zm.58,2.02c-1.15,.33-1.9,1-2.24,2.01-.35,1.01-.28,2.35,.19,4.01l1.61,5.61c.48,1.66,1.13,2.82,1.97,3.48,.84,.66,1.83,.83,2.98,.5,1.13-.33,1.87-.99,2.23-2,.35-1.01,.29-2.34-.18-4l-1.61-5.61c-.48-1.66-1.14-2.82-1.98-3.49-.85-.67-1.83-.85-2.96-.52Z"/><path d="M621.87,915.08c1.89-.47,3.56-.17,4.98,.87,1.43,1.05,2.45,2.8,3.05,5.26l1.13,4.58c.61,2.46,.52,4.49-.25,6.08-.77,1.59-2.1,2.62-4,3.09-1.9,.47-3.57,.18-5-.88-1.43-1.05-2.45-2.81-3.06-5.27l-1.13-4.58c-.61-2.47-.52-4.5,.25-6.08,.77-1.58,2.11-2.61,4.01-3.08Zm.5,2.04c-1.16,.29-1.93,.93-2.32,1.92-.39,1-.38,2.34,.04,4.02l1.39,5.67c.41,1.67,1.03,2.86,1.84,3.55,.81,.7,1.8,.9,2.96,.62,1.14-.28,1.91-.92,2.3-1.91s.38-2.33-.03-4l-1.39-5.67c-.41-1.67-1.03-2.86-1.85-3.56-.82-.7-1.8-.92-2.94-.63Z"/><path d="M606.5,918.54c1.91-.39,3.56-.04,4.95,1.06,1.39,1.1,2.34,2.89,2.85,5.38l.95,4.62c.51,2.48,.35,4.5-.48,6.07-.83,1.56-2.2,2.54-4.11,2.93-1.92,.39-3.57,.04-4.96-1.07-1.39-1.11-2.34-2.9-2.85-5.38l-.95-4.62c-.51-2.49-.35-4.51,.49-6.07,.83-1.55,2.21-2.53,4.13-2.92Zm.42,2.06c-1.17,.24-1.97,.85-2.39,1.83-.43,.98-.47,2.32-.12,4.02l1.17,5.72c.35,1.69,.91,2.9,1.7,3.62,.79,.73,1.76,.97,2.93,.73,1.15-.24,1.94-.84,2.37-1.82,.43-.98,.47-2.31,.13-4l-1.17-5.72c-.35-1.69-.92-2.9-1.71-3.63-.79-.74-1.77-.99-2.92-.75Z"/><path d="M591,921.41c1.92-.32,3.56,.1,4.9,1.25,1.34,1.15,2.22,2.98,2.64,5.48l.77,4.65c.41,2.5,.17,4.51-.72,6.04-.89,1.53-2.3,2.45-4.22,2.77-1.93,.32-3.57-.1-4.92-1.26-1.35-1.16-2.22-2.99-2.64-5.49l-.77-4.65c-.42-2.51-.18-4.52,.72-6.04,.89-1.52,2.31-2.44,4.24-2.76Zm.34,2.08c-1.18,.19-2,.77-2.46,1.74-.46,.96-.56,2.3-.27,4.01l.95,5.76c.28,1.7,.8,2.93,1.56,3.68,.76,.76,1.72,1.04,2.9,.84,1.16-.19,1.97-.77,2.44-1.73,.47-.96,.56-2.29,.28-3.99l-.95-5.76c-.28-1.7-.8-2.93-1.57-3.7-.76-.77-1.72-1.05-2.88-.86Z"/><path d="M568.57,924.48c1.94-.21,3.55,.3,4.82,1.53,1.28,1.23,2.05,3.1,2.33,5.62l.51,4.69c.27,2.52-.08,4.52-1.05,5.99-.98,1.48-2.43,2.32-4.37,2.53-1.95,.21-3.56-.3-4.84-1.53-1.28-1.23-2.06-3.11-2.33-5.63l-.51-4.69c-.28-2.53,.08-4.53,1.05-5.99,.98-1.47,2.44-2.31,4.39-2.52Zm.23,2.09c-1.19,.13-2.04,.66-2.56,1.6-.52,.94-.68,2.26-.5,3.99l.63,5.8c.19,1.71,.64,2.97,1.35,3.77,.71,.8,1.67,1.13,2.85,1,1.17-.13,2.01-.66,2.53-1.59,.52-.93,.69-2.25,.5-3.97l-.63-5.8c-.19-1.71-.64-2.97-1.36-3.78-.72-.81-1.66-1.15-2.83-1.02Z"/><path d="M559.19,925.69l.13,1.72-3.04,.61,1.11,14.87,3.12-.29,.13,1.68-5.71,1.69-1.33-17.75-3.08-.15-.13-1.72,8.8-.66Z"/><path d="M547.8,926.5l.08,1.72-3.05,.53,.69,14.9,3.12-.2,.08,1.68-5.76,1.53-.83-17.78-3.08-.24-.08-1.72,8.82-.41Z"/><path d="M536.43,926.98l.03,1.72-3.07,.44,.27,14.91,3.13-.11,.03,1.68-5.8,1.36-.33-17.8-3.07-.33-.03-1.72,8.83-.16Z"/><path d="M518.71,926.79c1.95,.03,3.48,.73,4.6,2.11,1.12,1.38,1.66,3.33,1.62,5.86l-.07,4.72c-.04,2.53-.63,4.47-1.78,5.82-1.15,1.35-2.7,2-4.65,1.97-1.96-.03-3.5-.73-4.62-2.11-1.12-1.38-1.66-3.34-1.62-5.87l.07-4.72c.04-2.54,.63-4.48,1.78-5.82,1.15-1.34,2.7-1.99,4.66-1.96Zm-.03,2.11c-1.19-.02-2.1,.41-2.73,1.27-.63,.87-.96,2.16-.98,3.9l-.09,5.84c-.03,1.72,.27,3.02,.88,3.9,.61,.88,1.51,1.33,2.71,1.35,1.17,.02,2.08-.4,2.71-1.26,.63-.86,.96-2.15,.99-3.88l.09-5.84c.03-1.72-.27-3.03-.88-3.92-.62-.89-1.51-1.34-2.69-1.36Z"/><path d="M509.26,926.85l-.08,1.72-3.09,.23-.73,14.9,3.13,.1-.08,1.68-5.88,.97,.87-17.78-3.04-.53,.08-1.72,8.82,.43Z"/><path d="M497.87,926.25l-.13,1.72-3.09,.14-1.15,14.87,3.12,.19-.13,1.68-5.9,.81,1.37-17.75-3.02-.62,.13-1.72,8.8,.68Z"/><path d="M486.52,925.33l-.18,1.71-3.1,.06-1.57,14.83,3.12,.28-.18,1.67-5.92,.64,1.87-17.7-3-.7,.18-1.71,8.78,.93Z"/><path d="M462.17,921.94c1.93,.3,3.35,1.21,4.26,2.73,.92,1.52,1.17,3.53,.78,6.03l-.73,4.66c-.39,2.5-1.26,4.34-2.58,5.51-1.33,1.17-2.96,1.6-4.88,1.3-1.93-.31-3.36-1.22-4.27-2.74-.91-1.52-1.17-3.54-.78-6.04l.73-4.66c.4-2.51,1.26-4.35,2.58-5.51,1.33-1.16,2.96-1.59,4.89-1.29Zm-.33,2.08c-1.18-.18-2.14,.11-2.88,.88-.74,.77-1.25,2.01-1.52,3.72l-.91,5.77c-.27,1.7-.16,3.03,.32,3.99,.48,.96,1.31,1.53,2.49,1.71,1.16,.18,2.12-.11,2.86-.87,.75-.76,1.26-2,1.52-3.7l.91-5.77c.27-1.7,.16-3.04-.32-4-.48-.97-1.31-1.54-2.47-1.72Z"/><path d="M446.66,919.19c1.91,.38,3.3,1.34,4.15,2.9,.85,1.55,1.03,3.57,.54,6.06l-.92,4.63c-.49,2.49-1.43,4.29-2.8,5.4-1.37,1.12-3.02,1.49-4.93,1.11-1.92-.38-3.31-1.35-4.16-2.91-.85-1.56-1.03-3.58-.54-6.07l.92-4.63c.49-2.5,1.43-4.3,2.8-5.4,1.37-1.11,3.02-1.47,4.94-1.09Zm-.41,2.07c-1.17-.23-2.14,.02-2.92,.76-.77,.74-1.33,1.96-1.66,3.66l-1.13,5.73c-.33,1.69-.28,3.02,.16,4,.44,.98,1.25,1.58,2.42,1.81,1.15,.23,2.12-.02,2.9-.76,.78-.73,1.33-1.94,1.67-3.63l1.13-5.73c.33-1.69,.28-3.03-.17-4.01-.45-.98-1.25-1.59-2.4-1.82Z"/><path d="M437.35,917.54l-.39,1.68-3.08-.33-3.39,14.52,3.06,.66-.38,1.64-5.95-.1,4.05-17.33-2.89-1.07,.39-1.68,8.6,2.01Z"/><path d="M420.21,913.01c1.88,.51,3.2,1.57,3.94,3.17,.75,1.61,.79,3.64,.13,6.08l-1.23,4.55c-.66,2.45-1.71,4.18-3.16,5.2-1.45,1.02-3.11,1.28-4.99,.77-1.89-.51-3.21-1.57-3.95-3.18-.74-1.61-.79-3.64-.13-6.09l1.23-4.55c.66-2.46,1.72-4.19,3.16-5.2,1.44-1.01,3.11-1.26,5-.75Zm-.55,2.03c-1.15-.31-2.14-.12-2.96,.56-.82,.68-1.46,1.86-1.91,3.54l-1.52,5.64c-.45,1.66-.49,3-.11,4,.38,1,1.14,1.66,2.29,1.97,1.13,.31,2.11,.12,2.94-.56,.82-.68,1.46-1.85,1.91-3.51l1.52-5.64c.45-1.66,.49-3,.11-4.01-.38-1.01-1.13-1.67-2.27-1.98Z"/><path d="M405.09,908.6c1.86,.58,3.13,1.69,3.81,3.33,.68,1.63,.64,3.66-.11,6.08l-1.41,4.5c-.76,2.42-1.88,4.11-3.36,5.07-1.48,.96-3.16,1.15-5.02,.57-1.87-.58-3.14-1.7-3.82-3.34-.68-1.64-.64-3.67,.12-6.09l1.41-4.5c.76-2.43,1.88-4.12,3.36-5.07,1.48-.95,3.16-1.14,5.03-.55Zm-.63,2.01c-1.14-.36-2.13-.21-2.98,.44-.85,.65-1.53,1.8-2.05,3.46l-1.74,5.57c-.51,1.64-.6,2.97-.27,3.99,.34,1.02,1.07,1.71,2.21,2.06,1.12,.35,2.11,.2,2.96-.44,.85-.65,1.53-1.79,2.05-3.43l1.74-5.57c.51-1.64,.6-2.98,.27-4.01-.34-1.03-1.07-1.72-2.19-2.07Z"/><path d="M390.15,903.6c1.84,.66,3.06,1.82,3.68,3.48,.62,1.66,.5,3.69-.36,6.07l-1.59,4.44c-.85,2.39-2.04,4.03-3.56,4.93-1.52,.9-3.2,1.03-5.04,.37-1.85-.66-3.07-1.82-3.69-3.49-.61-1.67-.49-3.69,.36-6.08l1.59-4.44c.86-2.39,2.04-4.04,3.56-4.93s3.2-1.01,5.05-.35Zm-.71,1.98c-1.12-.4-2.12-.29-3,.32-.87,.62-1.6,1.74-2.18,3.37l-1.96,5.5c-.58,1.62-.72,2.95-.43,3.98,.29,1.03,1,1.75,2.13,2.15,1.11,.4,2.1,.29,2.97-.33,.88-.61,1.6-1.73,2.18-3.35l1.96-5.5c.58-1.62,.72-2.95,.42-3.99-.3-1.04-1-1.76-2.1-2.15Z"/><path d="M375.42,898c1.81,.73,2.99,1.93,3.54,3.62,.55,1.69,.35,3.7-.6,6.05l-1.76,4.38c-.95,2.35-2.2,3.95-3.76,4.79-1.56,.84-3.24,.9-5.05,.17-1.82-.73-3-1.94-3.55-3.63-.55-1.69-.35-3.71,.6-6.06l1.76-4.38c.95-2.36,2.2-3.95,3.76-4.79,1.55-.83,3.24-.88,5.06-.15Zm-.79,1.95c-1.11-.45-2.11-.38-3.01,.2-.9,.58-1.67,1.68-2.32,3.28l-2.18,5.42c-.64,1.6-.84,2.92-.59,3.96,.25,1.04,.93,1.79,2.04,2.23,1.09,.44,2.08,.37,2.98-.21s1.67-1.66,2.32-3.26l2.18-5.42c.64-1.6,.84-2.92,.58-3.97s-.93-1.8-2.02-2.23Z"/><path d="M360.94,891.83c1.78,.8,2.91,2.05,3.39,3.76,.48,1.71,.2,3.71-.84,6.02l-1.94,4.3c-1.04,2.31-2.35,3.85-3.94,4.63-1.59,.78-3.27,.77-5.05-.03-1.79-.8-2.92-2.06-3.4-3.77-.48-1.71-.2-3.72,.84-6.03l1.94-4.3c1.04-2.32,2.36-3.86,3.94-4.63,1.58-.77,3.27-.75,5.06,.05Zm-.86,1.92c-1.09-.49-2.09-.46-3.01,.08-.92,.55-1.74,1.61-2.45,3.19l-2.4,5.32c-.71,1.57-.95,2.88-.74,3.93,.21,1.05,.86,1.82,1.95,2.31,1.07,.48,2.07,.45,2.99-.09,.92-.54,1.74-1.59,2.44-3.17l2.4-5.32c.71-1.57,.95-2.89,.74-3.95-.21-1.06-.85-1.83-1.93-2.31Z"/><path d="M340.57,881.94c1.73,.9,2.78,2.22,3.17,3.95,.38,1.73-.01,3.72-1.18,5.97l-2.18,4.18c-1.17,2.25-2.57,3.71-4.2,4.4-1.63,.69-3.31,.58-5.04-.32-1.74-.91-2.8-2.23-3.18-3.96-.38-1.73,.02-3.72,1.19-5.97l2.18-4.18c1.18-2.25,2.58-3.72,4.2-4.4,1.63-.68,3.31-.56,5.05,.34Zm-.97,1.87c-1.06-.55-2.06-.58-3.01-.09-.95,.49-1.83,1.5-2.63,3.04l-2.7,5.18c-.8,1.53-1.12,2.82-.97,3.88,.15,1.06,.76,1.87,1.81,2.42,1.04,.54,2.04,.57,2.99,.09,.95-.49,1.82-1.49,2.62-3.02l2.7-5.18c.8-1.53,1.12-2.83,.97-3.9s-.75-1.88-1.79-2.42Z"/><path d="M332.09,877.74l-.85,1.5-2.86-1.18-7.35,12.98,2.75,1.49-.83,1.46-5.69-1.77,8.77-15.49-2.48-1.84,.85-1.5,7.68,4.35Z"/><path d="M322.2,872.1l-.89,1.47-2.83-1.26-7.72,12.76,2.71,1.57-.87,1.44-5.63-1.94,9.21-15.23-2.42-1.91,.89-1.47,7.55,4.57Z"/><path d="M307.32,862.49c1.63,1.07,2.56,2.48,2.77,4.24,.21,1.76-.38,3.7-1.76,5.82l-2.58,3.95c-1.39,2.12-2.92,3.44-4.61,3.97-1.69,.52-3.35,.25-4.98-.81-1.64-1.07-2.57-2.49-2.77-4.25-.21-1.76,.38-3.71,1.76-5.83l2.58-3.95c1.39-2.13,2.93-3.45,4.61-3.97,1.69-.52,3.35-.24,4.99,.83Zm-1.15,1.76c-1-.65-2-.78-2.99-.38-.99,.4-1.96,1.32-2.91,2.77l-3.19,4.89c-.94,1.44-1.39,2.7-1.34,3.77,.05,1.07,.57,1.93,1.57,2.58,.98,.64,1.97,.77,2.97,.38,1-.39,1.96-1.31,2.9-2.75l3.19-4.89c.94-1.44,1.39-2.71,1.34-3.79-.05-1.08-.56-1.94-1.54-2.58Z"/><path d="M294.31,853.63c1.59,1.13,2.45,2.58,2.6,4.34,.14,1.77-.52,3.68-1.99,5.75l-2.73,3.84c-1.47,2.07-3.06,3.33-4.77,3.78-1.71,.46-3.36,.12-4.95-1.01-1.6-1.13-2.46-2.59-2.6-4.36-.14-1.77,.53-3.69,1.99-5.75l2.73-3.84c1.47-2.07,3.06-3.33,4.77-3.78,1.7-.45,3.36-.11,4.95,1.03Zm-1.22,1.72c-.97-.69-1.96-.86-2.97-.5-1.01,.36-2.01,1.24-3.02,2.65l-3.38,4.76c-1,1.4-1.5,2.64-1.49,3.71s.49,1.95,1.46,2.64c.96,.68,1.94,.85,2.95,.5,1.01-.35,2.01-1.23,3.01-2.63l3.38-4.76c1-1.4,1.5-2.65,1.49-3.73,0-1.08-.48-1.96-1.44-2.64Z"/><path d="M286.48,848.3l-1.05,1.37-2.68-1.56-9.05,11.86,2.52,1.86-1.02,1.34-5.39-2.53,10.8-14.15-2.2-2.16,1.05-1.37,7.02,5.36Z"/><path d="M277.46,841.35l-1.08,1.34-2.63-1.64-9.39,11.59,2.47,1.93-1.06,1.31-5.32-2.69,11.2-13.83-2.14-2.22,1.08-1.34,6.86,5.56Z"/><path d="M264.03,829.81c1.47,1.28,2.19,2.8,2.16,4.57-.03,1.77-.87,3.62-2.54,5.53l-3.09,3.56c-1.66,1.91-3.36,3.02-5.11,3.3-1.75,.29-3.35-.21-4.83-1.48-1.48-1.28-2.2-2.81-2.17-4.59s.88-3.62,2.54-5.53l3.09-3.56c1.67-1.92,3.37-3.02,5.11-3.31,1.74-.28,3.35,.22,4.83,1.5Zm-1.38,1.59c-.9-.78-1.87-1.04-2.91-.79-1.04,.26-2.12,1.04-3.26,2.35l-3.83,4.41c-1.13,1.3-1.74,2.49-1.84,3.55-.1,1.07,.3,1.99,1.2,2.77,.89,.77,1.85,1.03,2.89,.78,1.04-.25,2.12-1.03,3.25-2.33l3.83-4.41c1.13-1.3,1.74-2.49,1.85-3.57,.1-1.08-.29-2-1.18-2.77Z"/><path d="M247.37,814.52c1.4,1.36,2.03,2.92,1.9,4.69s-1.08,3.56-2.84,5.38l-3.29,3.38c-1.77,1.82-3.53,2.82-5.29,3.01s-3.34-.39-4.74-1.75c-1.4-1.36-2.04-2.93-1.91-4.7,.13-1.77,1.08-3.57,2.85-5.38l3.29-3.38c1.77-1.82,3.53-2.83,5.29-3.01,1.75-.18,3.33,.41,4.74,1.77Zm-1.47,1.51c-.86-.83-1.81-1.15-2.86-.95-1.05,.2-2.18,.92-3.39,2.16l-4.07,4.19c-1.2,1.24-1.88,2.38-2.04,3.44-.16,1.06,.19,2,1.05,2.84,.84,.82,1.79,1.13,2.84,.94,1.05-.19,2.18-.91,3.38-2.14l4.07-4.19c1.2-1.24,1.88-2.39,2.04-3.46,.16-1.07-.18-2.01-1.02-2.83Z"/><path d="M240.44,808.06l-1.24,1.19-2.41-1.95-10.75,10.34,2.21,2.22-1.21,1.17-4.94-3.32,12.83-12.34-1.85-2.47,1.24-1.2,6.12,6.36Z"/><path d="M232.57,799.82l-1.27,1.16-2.35-2.02-11.04,10.03,2.15,2.28-1.24,1.13-4.85-3.46,13.17-11.97-1.77-2.52,1.27-1.16,5.94,6.53Z"/><path d="M221.06,786.39c1.26,1.49,1.74,3.1,1.44,4.85-.3,1.75-1.41,3.44-3.35,5.08l-3.6,3.05c-1.93,1.64-3.78,2.47-5.55,2.49-1.77,.02-3.29-.71-4.55-2.2-1.27-1.49-1.75-3.12-1.45-4.87,.3-1.75,1.42-3.44,3.35-5.08l3.6-3.05c1.94-1.65,3.79-2.47,5.55-2.49,1.76-.01,3.28,.73,4.54,2.22Zm-1.61,1.36c-.77-.91-1.69-1.32-2.76-1.22-1.06,.1-2.26,.71-3.58,1.83l-4.45,3.78c-1.31,1.12-2.1,2.19-2.36,3.23-.26,1.04,0,2.01,.77,2.92,.76,.9,1.67,1.3,2.74,1.21,1.06-.09,2.25-.69,3.57-1.81l4.45-3.78c1.31-1.11,2.1-2.2,2.37-3.24,.26-1.05,.02-2.02-.74-2.92Z"/><path d="M214.78,779.28l-1.35,1.07-2.21-2.17-11.7,9.25,1.98,2.42-1.32,1.04-4.6-3.79,13.96-11.04-1.6-2.64,1.35-1.07,5.48,6.92Z"/><path d="M204.22,765.09c1.16,1.57,1.52,3.21,1.11,4.94-.42,1.72-1.65,3.33-3.69,4.84l-3.8,2.8c-2.04,1.5-3.94,2.2-5.71,2.1-1.77-.1-3.23-.94-4.39-2.51-1.16-1.58-1.53-3.23-1.11-4.95,.42-1.72,1.65-3.34,3.69-4.84l3.8-2.8c2.05-1.51,3.95-2.21,5.71-2.1,1.76,.11,3.22,.95,4.38,2.53Zm-1.7,1.25c-.71-.96-1.6-1.43-2.67-1.41-1.07,.02-2.3,.55-3.69,1.58l-4.7,3.46c-1.39,1.02-2.25,2.04-2.58,3.06-.33,1.02-.14,2.01,.57,2.97,.7,.95,1.58,1.41,2.65,1.39,1.07-.02,2.3-.54,3.68-1.56l4.7-3.46c1.39-1.02,2.25-2.05,2.58-3.07,.34-1.03,.15-2.01-.54-2.96Z"/><path d="M195.13,752.23c1.09,1.62,1.4,3.27,.91,4.98-.49,1.7-1.78,3.27-3.88,4.69l-3.91,2.64c-2.1,1.42-4.03,2.04-5.79,1.87-1.76-.17-3.19-1.06-4.28-2.68-1.1-1.62-1.4-3.29-.91-4.99,.49-1.71,1.79-3.27,3.88-4.69l3.91-2.64c2.11-1.42,4.04-2.05,5.79-1.87s3.18,1.08,4.28,2.7Zm-1.74,1.18c-.67-.99-1.54-1.49-2.61-1.51-1.07-.02-2.32,.46-3.75,1.43l-4.84,3.27c-1.43,.97-2.33,1.95-2.7,2.96s-.22,2,.45,2.99c.66,.97,1.52,1.47,2.59,1.5,1.07,.03,2.31-.45,3.74-1.41l4.83-3.27c1.43-.96,2.33-1.96,2.7-2.97,.38-1.01,.24-2.01-.42-2.98Z"/><path d="M189.67,744.5l-1.46,.92-1.96-2.4-12.63,7.93,1.71,2.62-1.42,.89-4.16-4.26,15.08-9.46-1.3-2.8,1.46-.92,4.69,7.48Z"/><path d="M177.3,723.26c.95,1.7,1.11,3.38,.48,5.04-.63,1.66-2.05,3.1-4.27,4.33l-4.12,2.3c-2.21,1.23-4.19,1.69-5.93,1.37-1.74-.32-3.09-1.34-4.04-3.04-.95-1.71-1.11-3.39-.48-5.05,.64-1.66,2.06-3.1,4.27-4.34l4.12-2.3c2.22-1.24,4.2-1.69,5.93-1.37,1.73,.33,3.07,1.35,4.03,3.06Zm-1.84,1.03c-.58-1.04-1.4-1.62-2.47-1.73-1.06-.11-2.35,.26-3.86,1.1l-5.1,2.84c-1.5,.84-2.49,1.74-2.94,2.71-.46,.97-.39,1.97,.19,3.02,.57,1.03,1.39,1.6,2.45,1.72,1.06,.12,2.34-.24,3.85-1.08l5.1-2.84c1.5-.84,2.49-1.75,2.95-2.72,.46-.98,.41-1.98-.16-3.01Z"/><path d="M172.53,715.1l-1.53,.79-1.74-2.56-13.27,6.81,1.48,2.76-1.5,.77-3.78-4.61,15.84-8.13-1.06-2.9,1.53-.79,4.03,7.85Z"/><path d="M167.37,704.95l-1.55,.74-1.67-2.61-13.46,6.42,1.4,2.8-1.52,.72-3.64-4.71,16.06-7.67-.97-2.93,1.55-.74,3.8,7.97Z"/><path d="M162.51,694.65l-1.58,.7-1.59-2.66-13.64,6.04,1.32,2.84-1.54,.68-3.51-4.82,16.28-7.2-.89-2.95,1.58-.7,3.57,8.07Z"/><path d="M155.82,678.25c.73,1.81,.67,3.5-.16,5.06-.84,1.56-2.43,2.82-4.78,3.76l-4.38,1.76c-2.35,.95-4.37,1.15-6.06,.61-1.69-.54-2.89-1.71-3.62-3.52-.73-1.82-.68-3.51,.16-5.07,.84-1.57,2.44-2.82,4.79-3.76l4.38-1.76c2.36-.95,4.38-1.15,6.06-.61,1.68,.54,2.88,1.72,3.61,3.54Zm-1.95,.79c-.45-1.11-1.19-1.78-2.23-2.03-1.04-.24-2.36-.04-3.97,.6l-5.42,2.18c-1.6,.64-2.68,1.42-3.26,2.32-.57,.9-.64,1.91-.19,3.02,.44,1.09,1.18,1.76,2.22,2.01,1.04,.25,2.36,.05,3.96-.59l5.42-2.18c1.6-.64,2.69-1.42,3.27-2.33,.58-.91,.65-1.91,.21-3Z"/><path d="M150.23,663.51c.65,1.84,.53,3.52-.36,5.05-.9,1.53-2.54,2.72-4.92,3.57l-4.44,1.58c-2.39,.85-4.41,.97-6.07,.37-1.66-.61-2.82-1.83-3.48-3.67-.66-1.84-.54-3.53,.37-5.06,.9-1.53,2.54-2.72,4.93-3.57l4.44-1.58c2.4-.85,4.42-.98,6.07-.37,1.65,.61,2.81,1.84,3.47,3.68Zm-1.98,.71c-.4-1.12-1.12-1.83-2.15-2.11-1.03-.29-2.36-.14-3.99,.44l-5.5,1.96c-1.62,.58-2.74,1.31-3.35,2.19-.61,.88-.72,1.88-.31,3.01,.4,1.11,1.11,1.81,2.13,2.1,1.03,.29,2.35,.15,3.98-.43l5.5-1.96c1.62-.58,2.74-1.31,3.36-2.2,.62-.89,.73-1.89,.33-2.99Z"/><path d="M146.87,654.67l-1.64,.52-1.3-2.81-14.21,4.53,1,2.96-1.6,.51-2.97-5.17,16.96-5.4-.56-3.03,1.64-.52,2.68,8.41Z"/><path d="M141.99,637.65c.53,1.88,.29,3.55-.71,5.01-1,1.46-2.72,2.54-5.16,3.23l-4.54,1.28c-2.44,.69-4.47,.67-6.09-.05-1.62-.72-2.69-2.01-3.22-3.89-.53-1.89-.29-3.56,.71-5.03,1-1.46,2.72-2.54,5.16-3.23l4.54-1.28c2.45-.69,4.48-.67,6.08,.05,1.61,.72,2.68,2.02,3.21,3.91Zm-2.03,.57c-.32-1.15-.99-1.9-2-2.25s-2.35-.3-4.01,.17l-5.62,1.58c-1.66,.47-2.82,1.12-3.49,1.96-.67,.84-.84,1.83-.52,2.98,.32,1.13,.98,1.88,1.99,2.24,1.01,.36,2.34,.31,4-.16l5.62-1.58c1.66-.47,2.83-1.12,3.5-1.97,.68-.84,.86-1.83,.54-2.96Z"/><path d="M136.48,615.7c.42,1.9,.09,3.56-.99,4.96-1.08,1.41-2.86,2.38-5.33,2.93l-4.6,1.02c-2.47,.55-4.5,.42-6.07-.39-1.57-.81-2.57-2.16-2.99-4.07-.42-1.91-.09-3.57,.99-4.98,1.08-1.41,2.86-2.38,5.34-2.93l4.61-1.02c2.48-.55,4.51-.42,6.07,.39,1.57,.81,2.56,2.17,2.98,4.08Zm-2.06,.46c-.26-1.17-.88-1.95-1.87-2.37-.99-.41-2.33-.43-4.02-.05l-5.7,1.26c-1.68,.37-2.88,.96-3.6,1.75s-.94,1.78-.69,2.94c.25,1.15,.87,1.93,1.86,2.35,.98,.42,2.32,.44,4,.07l5.7-1.26c1.68-.37,2.88-.96,3.61-1.76,.72-.8,.96-1.78,.7-2.93Z"/><path d="M134.24,606.51l-1.69,.32-.94-2.95-14.66,2.73,.63,3.07-1.65,.31-2.3-5.49,17.5-3.26-.18-3.08,1.69-.32,1.62,8.68Z"/><path d="M132.19,595.28l-1.7,.27-.86-2.98-14.74,2.32,.54,3.08-1.66,.26-2.15-5.56,17.58-2.76-.1-3.08,1.7-.27,1.37,8.72Z"/><path d="M129.96,577.73c.24,1.94-.25,3.55-1.46,4.85-1.21,1.3-3.07,2.1-5.59,2.41l-4.68,.58c-2.51,.31-4.52-.01-6.01-.97-1.49-.96-2.35-2.4-2.59-4.33-.24-1.94,.25-3.56,1.46-4.86,1.21-1.3,3.08-2.1,5.59-2.41l4.68-.58c2.52-.31,4.53,.01,6.01,.97,1.48,.96,2.34,2.41,2.58,4.35Zm-2.09,.26c-.15-1.18-.69-2.03-1.63-2.53-.94-.5-2.27-.65-3.99-.44l-5.79,.71c-1.71,.21-2.96,.68-3.75,1.4-.79,.72-1.11,1.68-.96,2.86,.14,1.17,.68,2,1.62,2.51,.94,.51,2.27,.66,3.97,.45l5.79-.71c1.71-.21,2.96-.68,3.76-1.41,.8-.73,1.12-1.68,.98-2.85Z"/><path d="M128.34,562.06c.16,1.94-.39,3.54-1.64,4.79-1.26,1.25-3.15,1.98-5.68,2.19l-4.7,.39c-2.52,.21-4.51-.19-5.97-1.2-1.45-1.01-2.26-2.49-2.42-4.43-.16-1.95,.39-3.55,1.65-4.8,1.26-1.25,3.16-1.98,5.68-2.19l4.7-.39c2.53-.21,4.52,.19,5.97,1.2,1.44,1.01,2.25,2.5,2.41,4.45Zm-2.1,.17c-.1-1.19-.61-2.05-1.53-2.59-.92-.54-2.25-.74-3.97-.59l-5.82,.49c-1.72,.14-2.98,.56-3.8,1.26-.81,.7-1.17,1.64-1.07,2.83,.1,1.17,.61,2.03,1.52,2.57,.92,.54,2.24,.75,3.95,.6l5.82-.49c1.72-.14,2.99-.56,3.81-1.26,.82-.7,1.19-1.64,1.09-2.81Z"/><path d="M127.36,552.63l-1.72,.09-.54-3.05-14.9,.74,.21,3.12-1.68,.08-1.55-5.75,17.78-.89,.23-3.08,1.72-.09,.44,8.82Z"/><path d="M126.99,534.94c.03,1.95-.62,3.5-1.96,4.67-1.34,1.16-3.28,1.76-5.81,1.8l-4.72,.08c-2.53,.04-4.49-.49-5.87-1.6-1.38-1.11-2.09-2.64-2.12-4.58-.03-1.96,.62-3.52,1.97-4.68,1.34-1.16,3.28-1.76,5.82-1.8l4.72-.08c2.54-.04,4.5,.49,5.87,1.6,1.37,1.11,2.07,2.64,2.11,4.6Zm-2.1,.03c-.02-1.19-.47-2.09-1.36-2.69-.88-.6-2.19-.89-3.92-.86l-5.84,.1c-1.72,.03-3.01,.36-3.87,1-.86,.64-1.28,1.55-1.26,2.75,.02,1.17,.47,2.06,1.35,2.67,.88,.6,2.18,.89,3.9,.87l5.84-.1c1.72-.03,3.02-.36,3.89-1.01,.87-.64,1.29-1.55,1.27-2.73Z"/><path d="M126.64,525.49l-1.72-.03-.33-3.08-14.91-.25v3.13l-1.68-.03-1.16-5.84,17.8,.3,.44-3.05,1.72,.03-.15,8.83Z"/></g><circle class="h" cx="528.8" cy="529.42" r="436.86"/></g></g></g></svg>