<?xml version="1.0" encoding="UTF-8"?><svg xmlns="http://www.w3.org/2000/svg" viewBox="0 0 317.98 317.98"><defs><style>.d,.e,.f{fill:#fff;}.g{stroke-width:2.55px;}.g,.e,.f,.h,.i{stroke-miterlimit:10;}.g,.f,.h,.i{stroke:#000;}.g,.h,.i{fill:none;}.e{stroke:#fff;}.e,.f{stroke-width:31.31px;}.h{stroke-width:3.54px;}.i{stroke-width:2.83px;}</style></defs><g id="a"/><g id="b"><g id="c"><g><path class="f" d="M301.29,158.52c0-77.91-63.16-141.08-141.08-141.08S19.14,80.61,19.14,158.52"/><path class="e" d="M19.15,158.52c0,.15,0,.3,0,.45,0,77.91,63.16,141.08,141.08,141.08s141.08-63.16,141.08-141.08c0-.15,0-.3,0-.45"/></g><g><path d="M109.4,44.63c-.73,.34-1.45,.46-2.15,.38-.7-.09-1.33-.36-1.9-.82-.57-.46-1.03-1.08-1.39-1.87l-.15-.32c-.35-.75-.5-1.5-.46-2.24,.04-.74,.24-1.4,.59-1.98,.36-.58,.84-1.01,1.46-1.29,.71-.33,1.38-.46,2-.38,.62,.07,1.17,.32,1.66,.74,.49,.42,.9,.99,1.23,1.71l.42,.9-5.16,2.37v.05c.24,.51,.53,.92,.88,1.23,.35,.32,.74,.51,1.16,.59,.42,.08,.86,.02,1.3-.19,.49-.22,.89-.49,1.19-.8,.31-.31,.54-.65,.69-1.02l1,.68c-.16,.41-.43,.81-.81,1.21-.38,.4-.9,.76-1.56,1.06Zm-4.34-3.97l3.67-1.68-.09-.19c-.17-.38-.4-.69-.67-.93s-.58-.38-.93-.44c-.35-.05-.72,.02-1.12,.2-.32,.15-.57,.38-.75,.69s-.28,.67-.3,1.07c-.02,.4,.03,.82,.17,1.26l.03,.03Z"/><path d="M113.07,42.76l-.36-.95,.84-.51,1.32-3.93-3.48-2.02-.88,.13-.36-.96,3.21-1.2,.36,.96-.78,.4,2.46,1.46,.85-2.71-.91,.25-.36-.96,3.16-1.18,.36,.96-.77,.49-1.14,3.72,3.69,2.08,.91-.14,.36,.95-3.48,1.3-.36-.95,.95-.45-2.61-1.52-.92,2.84,.92-.25,.36,.95-3.35,1.25Z"/><path d="M129.15,37.55c-.62,.17-1.17,.12-1.64-.15-.47-.27-.81-.8-1.03-1.61l-1.38-5.13-1.33,.36-.31-1.14,1.33-.36-.55-2.04,1.54-.42,.55,2.04,1.83-.5,.31,1.14-1.83,.5,1.39,5.13c.11,.41,.27,.68,.48,.83,.21,.15,.46,.19,.73,.11,.18-.05,.38-.12,.6-.21,.21-.09,.38-.17,.5-.23l.48,.95c-.21,.13-.46,.26-.78,.4s-.61,.25-.89,.32Z"/><path d="M135.44,36.1c-.79,.17-1.52,.13-2.18-.11-.66-.24-1.22-.64-1.67-1.22-.45-.58-.77-1.29-.95-2.13l-.07-.35c-.17-.81-.16-1.57,.04-2.29,.2-.71,.54-1.31,1.02-1.8,.48-.49,1.05-.8,1.71-.94,.77-.16,1.45-.14,2.03,.07s1.07,.57,1.46,1.09c.38,.52,.66,1.16,.82,1.94l.21,.97-5.55,1.17-.02,.04c.13,.55,.32,1.01,.6,1.4,.27,.39,.6,.67,1,.83,.39,.17,.83,.21,1.31,.1,.53-.11,.97-.28,1.34-.52s.67-.51,.9-.84l.82,.88c-.24,.36-.6,.69-1.06,1s-1.04,.54-1.75,.69Zm-3.36-4.83l3.95-.83-.04-.21c-.09-.41-.24-.76-.45-1.06-.21-.29-.48-.5-.81-.63-.33-.13-.71-.14-1.14-.05-.35,.07-.64,.24-.88,.5-.24,.26-.42,.59-.53,.97s-.15,.81-.11,1.26l.02,.04Z"/><path d="M139.68,35.03l-.13-1.01,1.28-.4-.81-6.2-1.34-.05-.13-1.02,2.72-.36,.28,1.28c.23-.5,.54-.9,.95-1.21,.4-.31,.88-.5,1.44-.58,.94-.12,1.69,.06,2.28,.54s.95,1.29,1.1,2.44l.56,4.24,1.34,.05,.13,1.01-4.19,.55-.13-1.01,1.28-.4-.55-4.21c-.1-.76-.32-1.29-.67-1.57-.34-.28-.83-.38-1.45-.3-.45,.06-.84,.22-1.16,.49-.32,.26-.56,.6-.72,1.01l.67,5.09,1.34,.05,.13,1.01-4.19,.55Z"/><path d="M154.12,33.68c-.81,.04-1.52-.1-2.14-.44-.62-.34-1.11-.82-1.47-1.46-.36-.64-.57-1.39-.61-2.25l-.02-.35c-.04-.83,.08-1.58,.39-2.25,.31-.67,.73-1.21,1.28-1.62s1.16-.63,1.83-.67c.79-.04,1.45,.08,2,.38,.55,.29,.97,.73,1.27,1.29,.3,.57,.47,1.25,.52,2.04l.05,.99-5.67,.31-.02,.04c.04,.56,.17,1.05,.38,1.47,.21,.42,.5,.75,.86,.98,.36,.23,.79,.33,1.28,.3,.54-.03,1.01-.13,1.4-.31,.4-.18,.74-.41,1.02-.69l.68,1c-.3,.32-.7,.6-1.2,.83-.5,.24-1.11,.37-1.84,.41Zm-2.58-5.28l4.03-.22v-.21c-.03-.42-.13-.79-.29-1.11-.17-.32-.4-.57-.7-.75-.3-.17-.68-.25-1.12-.23-.36,.02-.67,.14-.95,.36-.28,.22-.5,.52-.67,.88s-.27,.78-.3,1.23l.02,.04Z"/><path d="M163.11,33.54c-.57,0-1.06-.13-1.48-.35s-.76-.55-1.04-.98l-.16,1.12-1.37-.02,.18-11.36-1.31-.25,.02-1.03,2.91,.05-.08,4.9c.28-.38,.63-.67,1.04-.87,.41-.2,.89-.29,1.43-.28,.72,.01,1.33,.22,1.84,.61,.5,.4,.89,.95,1.15,1.66,.26,.71,.38,1.53,.37,2.47v.17c-.02,.84-.16,1.57-.45,2.2-.28,.63-.68,1.11-1.19,1.46-.51,.35-1.13,.51-1.84,.5Zm-.38-1.3c.75,.01,1.31-.25,1.68-.77s.56-1.23,.58-2.11v-.17c.01-.67-.06-1.27-.21-1.78-.15-.51-.39-.91-.72-1.21-.32-.29-.74-.44-1.25-.45-.49,0-.91,.1-1.25,.34-.34,.23-.61,.55-.82,.94l-.06,3.86c.19,.41,.46,.73,.8,.97,.34,.24,.75,.37,1.24,.37Z"/><path d="M167.53,33.51l.08-1.01,1.33-.12,.49-6.23-1.3-.33,.08-1.02,2.73,.22,.05,1.12v.15c.29-.43,.62-.75,1-.97,.38-.22,.81-.32,1.27-.28,.17,.01,.34,.04,.51,.09,.17,.04,.29,.08,.37,.11l-.33,1.46-1.1-.15c-.42-.06-.78,0-1.08,.2-.3,.2-.55,.47-.73,.82l-.39,4.94,1.29,.33-.08,1.02-4.21-.33Z"/><path d="M174.24,34.08l.13-1.01,1.33-.06,.79-6.2-1.28-.39,.13-1.02,2.89,.37-.95,7.44,1.28,.39-.13,1.01-4.19-.53Zm2.6-10.66l.22-1.69,1.66,.21-.21,1.69-1.66-.21Z"/><path d="M182.84,35.52c-.58-.1-1.11-.26-1.59-.47-.48-.21-.99-.49-1.51-.83l.35-2.05,1.18,.21,.07,1.29c.27,.18,.55,.32,.81,.42,.27,.11,.56,.19,.89,.25,.64,.12,1.11,.08,1.43-.12,.32-.19,.51-.47,.58-.83,.06-.34-.03-.65-.26-.94s-.7-.58-1.41-.88c-1-.43-1.7-.88-2.12-1.37s-.57-1.07-.45-1.74c.08-.47,.29-.86,.63-1.18,.34-.32,.77-.54,1.29-.67,.52-.13,1.1-.14,1.75-.02,.65,.12,1.2,.29,1.63,.53s.81,.5,1.1,.82l-.28,1.98-1.18-.21-.05-1.19c-.16-.17-.36-.32-.6-.44s-.53-.21-.85-.27c-.49-.09-.91-.05-1.25,.13-.35,.17-.55,.43-.61,.78-.04,.2-.02,.38,.04,.55,.06,.16,.2,.33,.43,.49,.23,.17,.57,.35,1.03,.55,1.15,.5,1.92,1.01,2.32,1.53,.4,.52,.54,1.1,.42,1.74-.13,.73-.51,1.29-1.14,1.68-.63,.39-1.52,.48-2.68,.28Z"/><path d="M191.2,37.14l.27-.98,1.33,.12,2.64-9.76-1.21-.56,.27-.99,2.81,.76-2.97,10.97,1.21,.56-.27,.98-4.08-1.1Z"/><path d="M199.81,39.84c-.9-.3-1.5-.83-1.82-1.57-.31-.75-.26-1.73,.15-2.95l1.24-3.7-.88-.54,.33-.97,.95,.32,1.51,.51-1.65,4.9c-.3,.88-.37,1.54-.22,1.96,.15,.42,.5,.72,1.05,.91,.54,.18,1.02,.22,1.44,.12,.42-.1,.79-.32,1.1-.66l1.61-4.79-1.04-.59,.33-.97,1.11,.37,1.51,.51-2.39,7.11,.88,.53-.32,.97-2.31-.78,.31-1.26c-.41,.36-.86,.59-1.35,.69-.49,.1-1.01,.06-1.54-.12Z"/><path d="M205.3,41.53l.4-.94,.97,.21,3.66-1.94-1.13-3.86-.72-.51,.4-.94,3.15,1.34-.4,.94-.84-.25,.78,2.76,2.48-1.38-.83-.45,.4-.94,3.1,1.32-.4,.94-.89-.18-3.39,1.91,1.24,4.05,.76,.53-.4,.94-3.41-1.46,.4-.94,1,.33-.85-2.9-2.63,1.42,.83,.45-.4,.94-3.29-1.4Z"/></g><ellipse class="g" cx="159.39" cy="159.75" rx="141.17" ry="139.4"/><circle class="h" cx="158.99" cy="158.99" r="157.22"/><circle class="i" cx="159.74" cy="158.29" r="125.83"/><path class="d" d="M265.48,235.95c-5.97-31.04-207.32-33.53-215.31-.39-3.99,16.56,39.92,43.54,77.26,51.77,71.32,15.72,141.81-31.83,138.05-51.38Z"/><rect class="d" x="148.92" y="147.9" width="28.02" height="11.71"/><g><path d="M51.85,174.99v-3.38l4.38-.75v-20.76l-4.38-.75v-3.41h9.1l.46,3.71,.05,.51c.82-1.49,1.84-2.65,3.05-3.49,1.21-.84,2.59-1.26,4.15-1.26,.55,0,1.12,.05,1.71,.15,.58,.1,1,.19,1.25,.28l-.7,4.91-3.68-.21c-1.4-.09-2.57,.23-3.52,.95-.95,.72-1.68,1.7-2.2,2.91v16.46l4.38,.75v3.38h-14.05Z"/><path d="M87.54,175.55c-2.69,0-5.02-.61-7.01-1.84-1.99-1.23-3.52-2.93-4.61-5.12-1.08-2.18-1.62-4.71-1.62-7.57v-1.18c0-2.76,.57-5.22,1.71-7.4,1.14-2.18,2.65-3.89,4.54-5.16,1.89-1.26,3.95-1.89,6.19-1.89,2.61,0,4.8,.54,6.57,1.61,1.76,1.07,3.09,2.58,3.99,4.53,.9,1.94,1.34,4.23,1.34,6.86v3.3h-18.85l-.08,.13c.04,1.86,.36,3.51,.98,4.96,.62,1.44,1.51,2.57,2.67,3.4,1.16,.82,2.56,1.24,4.19,1.24,1.79,0,3.36-.26,4.71-.77,1.35-.51,2.52-1.21,3.5-2.11l2.07,3.44c-1.04,1-2.41,1.85-4.12,2.54-1.71,.69-3.76,1.03-6.16,1.03Zm-7.6-17.99h13.4v-.7c0-1.4-.25-2.65-.74-3.75-.49-1.1-1.23-1.97-2.2-2.6-.98-.64-2.2-.95-3.67-.95-1.18,0-2.26,.34-3.22,1.03-.97,.69-1.76,1.62-2.39,2.81-.63,1.18-1.04,2.52-1.24,4.03l.05,.13Z"/><path d="M114.64,175.55c-1.95,0-3.78-.2-5.48-.59-1.7-.39-3.51-1-5.42-1.83l-.05-6.9h4l.99,4.16c1,.41,1.97,.71,2.91,.9,.94,.19,1.96,.28,3.05,.28,2.15,0,3.69-.41,4.62-1.24,.93-.82,1.4-1.84,1.4-3.06,0-1.15-.47-2.12-1.41-2.91-.94-.8-2.65-1.47-5.12-2.03-3.51-.81-6.09-1.88-7.75-3.24-1.66-1.35-2.48-3.16-2.48-5.41,0-1.58,.46-2.99,1.37-4.23,.91-1.24,2.18-2.23,3.81-2.97,1.63-.73,3.53-1.1,5.69-1.1s4.09,.25,5.65,.75c1.57,.5,2.93,1.17,4.1,2.01l.27,6.63h-3.97l-.86-3.87c-.63-.47-1.37-.82-2.23-1.07-.86-.25-1.84-.38-2.95-.38-1.65,0-2.99,.39-4.02,1.15-1.03,.77-1.54,1.74-1.54,2.9,0,.68,.15,1.27,.44,1.77,.29,.5,.86,.95,1.71,1.36,.84,.4,2.08,.8,3.71,1.2,4.05,.95,6.87,2.16,8.47,3.63,1.6,1.47,2.4,3.28,2.4,5.42,0,2.45-.91,4.51-2.73,6.16-1.82,1.66-4.68,2.48-8.58,2.48Z"/><path d="M143.56,175.55c-2.69,0-5.02-.61-7.01-1.84-1.99-1.23-3.52-2.93-4.61-5.12-1.08-2.18-1.62-4.71-1.62-7.57v-1.18c0-2.76,.57-5.22,1.71-7.4,1.14-2.18,2.65-3.89,4.54-5.16,1.89-1.26,3.95-1.89,6.19-1.89,2.61,0,4.8,.54,6.57,1.61,1.76,1.07,3.09,2.58,3.99,4.53,.9,1.94,1.34,4.23,1.34,6.86v3.3h-18.85l-.08,.13c.04,1.86,.36,3.51,.98,4.96,.62,1.44,1.51,2.57,2.67,3.4,1.16,.82,2.56,1.24,4.19,1.24,1.79,0,3.36-.26,4.71-.77,1.35-.51,2.52-1.21,3.5-2.11l2.07,3.44c-1.04,1-2.41,1.85-4.12,2.54-1.71,.69-3.76,1.03-6.16,1.03Zm-7.6-17.99h13.4v-.7c0-1.4-.25-2.65-.74-3.75-.49-1.1-1.23-1.97-2.2-2.6-.98-.64-2.2-.95-3.67-.95-1.18,0-2.26,.34-3.22,1.03-.97,.69-1.76,1.62-2.39,2.81-.63,1.18-1.04,2.52-1.24,4.03l.05,.13Z"/><path d="M168.57,175.55c-3.03,0-5.33-.74-6.9-2.22-1.58-1.48-2.36-3.56-2.36-6.24,0-1.84,.51-3.45,1.52-4.82,1.01-1.37,2.48-2.44,4.39-3.2,1.92-.76,4.21-1.14,6.88-1.14h5.18v-2.85c0-1.75-.53-3.12-1.6-4.08-1.07-.97-2.56-1.45-4.5-1.45-1.22,0-2.27,.15-3.17,.44-.9,.3-1.71,.7-2.44,1.22l-.56,4.06h-4.08v-6.66c1.31-1.06,2.83-1.86,4.57-2.4,1.74-.55,3.66-.82,5.77-.82,3.53,0,6.29,.84,8.3,2.52,2,1.68,3.01,4.09,3.01,7.22v13.99c0,.38,0,.74,.01,1.1,0,.36,.03,.72,.07,1.07l2.82,.3v3.38h-7.6c-.16-.79-.29-1.49-.38-2.12-.09-.63-.15-1.25-.19-1.88-1.02,1.31-2.3,2.39-3.83,3.26-1.53,.87-3.17,1.3-4.9,1.3Zm.78-4.43c1.75,0,3.36-.42,4.81-1.26,1.45-.84,2.49-1.85,3.12-3.03v-5.26h-5.37c-2.44,0-4.26,.58-5.48,1.75-1.22,1.16-1.83,2.46-1.83,3.89,0,1.27,.39,2.24,1.18,2.91,.79,.67,1.98,1.01,3.57,1.01Z"/><path d="M189.51,174.99v-3.38l4.38-.75v-20.76l-4.38-.75v-3.41h9.1l.46,3.71,.05,.51c.82-1.49,1.84-2.65,3.05-3.49,1.21-.84,2.59-1.26,4.15-1.26,.55,0,1.12,.05,1.71,.15,.58,.1,1,.19,1.25,.28l-.7,4.91-3.68-.21c-1.4-.09-2.57,.23-3.52,.95-.95,.72-1.68,1.7-2.2,2.91v16.46l4.38,.75v3.38h-14.05Z"/><path d="M225.12,175.55c-2.63,0-4.92-.61-6.88-1.84-1.95-1.23-3.46-2.93-4.54-5.12-1.07-2.18-1.61-4.71-1.61-7.57v-1.13c0-2.76,.52-5.23,1.56-7.41,1.04-2.18,2.53-3.91,4.48-5.18,1.95-1.27,4.28-1.91,6.98-1.91,2.35,0,4.4,.39,6.16,1.15,1.76,.77,3.24,1.83,4.44,3.17l.13,6.98h-4.14l-.91-5.08c-.61-.63-1.37-1.13-2.28-1.5s-1.99-.56-3.22-.56c-1.58,0-2.96,.47-4.15,1.4-1.19,.93-2.12,2.18-2.78,3.73-.66,1.56-.99,3.29-.99,5.21v1.13c0,2.11,.31,3.95,.93,5.51,.62,1.56,1.5,2.76,2.66,3.61,1.15,.85,2.53,1.28,4.12,1.28,1.79,0,3.28-.49,4.46-1.48,1.18-.98,1.91-2.34,2.18-4.06h4.75l.05,.16c-.09,1.67-.58,3.22-1.48,4.67-.9,1.45-2.17,2.62-3.83,3.5-1.66,.89-3.69,1.33-6.11,1.33Z"/><path d="M239.98,174.99v-3.38l4.38-.75v-33.6l-4.38-.75v-3.41h9.67v16.7c1-1.4,2.23-2.48,3.68-3.25,1.45-.77,3.06-1.15,4.83-1.15,3.12,0,5.53,.93,7.25,2.79,1.72,1.86,2.58,4.73,2.58,8.59v14.07l4.38,.75v3.38h-14.05v-3.38l4.38-.75v-14.13c0-2.4-.51-4.17-1.54-5.32-1.03-1.15-2.56-1.72-4.61-1.72-1.45,0-2.77,.34-3.96,1.03-1.19,.69-2.17,1.62-2.94,2.81v17.32l4.38,.75v3.38h-14.05Z"/></g></g></g></svg>