<?xml version="1.0" encoding="UTF-8"?><svg xmlns="http://www.w3.org/2000/svg" viewBox="0 0 317.98 317.98"><defs><style>.d,.e,.f{fill:#fff;}.g{stroke-width:2.55px;}.g,.e,.f,.h,.i{stroke-miterlimit:10;}.g,.f,.h,.i{stroke:#000;}.g,.h,.i{fill:none;}.e{stroke:#fff;}.e,.f{stroke-width:31.31px;}.h{stroke-width:3.54px;}.i{stroke-width:2.83px;}</style></defs><g id="a"/><g id="b"><g id="c"><g><path class="f" d="M301.29,158.52c0-77.91-63.16-141.08-141.08-141.08S19.14,80.61,19.14,158.52"/><path class="e" d="M19.15,158.52c0,.15,0,.3,0,.45,0,77.91,63.16,141.08,141.08,141.08s141.08-63.16,141.08-141.08c0-.15,0-.3,0-.45"/></g><g><path d="M109.4,44.63c-.73,.34-1.45,.46-2.15,.38-.7-.09-1.33-.36-1.9-.82-.57-.46-1.03-1.08-1.39-1.87l-.15-.32c-.35-.75-.5-1.5-.46-2.24,.04-.74,.24-1.4,.59-1.98,.36-.58,.84-1.01,1.46-1.29,.71-.33,1.38-.46,2-.38,.62,.07,1.17,.32,1.66,.74,.49,.42,.9,.99,1.23,1.71l.42,.9-5.16,2.37v.05c.24,.51,.53,.92,.88,1.23,.35,.32,.74,.51,1.16,.59,.42,.08,.86,.02,1.3-.19,.49-.22,.89-.49,1.19-.8,.31-.31,.54-.65,.69-1.02l1,.68c-.16,.41-.43,.81-.81,1.21-.38,.4-.9,.76-1.56,1.06Zm-4.34-3.97l3.67-1.68-.09-.19c-.17-.38-.4-.69-.67-.93s-.58-.38-.93-.44c-.35-.05-.72,.02-1.12,.2-.32,.15-.57,.38-.75,.69s-.28,.67-.3,1.07c-.02,.4,.03,.82,.17,1.26l.03,.03Z"/><path d="M113.07,42.76l-.36-.95,.84-.51,1.32-3.93-3.48-2.02-.88,.13-.36-.96,3.21-1.2,.36,.96-.78,.4,2.46,1.46,.85-2.71-.91,.25-.36-.96,3.16-1.18,.36,.96-.77,.49-1.14,3.72,3.69,2.08,.91-.14,.36,.95-3.48,1.3-.36-.95,.95-.45-2.61-1.52-.92,2.84,.92-.25,.36,.95-3.35,1.25Z"/><path d="M129.15,37.55c-.62,.17-1.17,.12-1.64-.15-.47-.27-.81-.8-1.03-1.61l-1.38-5.13-1.33,.36-.31-1.14,1.33-.36-.55-2.04,1.54-.42,.55,2.04,1.83-.5,.31,1.14-1.83,.5,1.39,5.13c.11,.41,.27,.68,.48,.83,.21,.15,.46,.19,.73,.11,.18-.05,.38-.12,.6-.21,.21-.09,.38-.17,.5-.23l.48,.95c-.21,.13-.46,.26-.78,.4s-.61,.25-.89,.32Z"/><path d="M135.44,36.1c-.79,.17-1.52,.13-2.18-.11-.66-.24-1.22-.64-1.67-1.22-.45-.58-.77-1.29-.95-2.13l-.07-.35c-.17-.81-.16-1.57,.04-2.29,.2-.71,.54-1.31,1.02-1.8,.48-.49,1.05-.8,1.71-.94,.77-.16,1.45-.14,2.03,.07s1.07,.57,1.46,1.09c.38,.52,.66,1.16,.82,1.94l.21,.97-5.55,1.17-.02,.04c.13,.55,.32,1.01,.6,1.4,.27,.39,.6,.67,1,.83,.39,.17,.83,.21,1.31,.1,.53-.11,.97-.28,1.34-.52s.67-.51,.9-.84l.82,.88c-.24,.36-.6,.69-1.06,1s-1.04,.54-1.75,.69Zm-3.36-4.83l3.95-.83-.04-.21c-.09-.41-.24-.76-.45-1.06-.21-.29-.48-.5-.81-.63-.33-.13-.71-.14-1.14-.05-.35,.07-.64,.24-.88,.5-.24,.26-.42,.59-.53,.97s-.15,.81-.11,1.26l.02,.04Z"/><path d="M139.68,35.03l-.13-1.01,1.28-.4-.81-6.2-1.34-.05-.13-1.02,2.72-.36,.28,1.28c.23-.5,.54-.9,.95-1.21,.4-.31,.88-.5,1.44-.58,.94-.12,1.69,.06,2.28,.54s.95,1.29,1.1,2.44l.56,4.24,1.34,.05,.13,1.01-4.19,.55-.13-1.01,1.28-.4-.55-4.21c-.1-.76-.32-1.29-.67-1.57-.34-.28-.83-.38-1.45-.3-.45,.06-.84,.22-1.16,.49-.32,.26-.56,.6-.72,1.01l.67,5.09,1.34,.05,.13,1.01-4.19,.55Z"/><path d="M154.12,33.68c-.81,.04-1.52-.1-2.14-.44-.62-.34-1.11-.82-1.47-1.46-.36-.64-.57-1.39-.61-2.25l-.02-.35c-.04-.83,.08-1.58,.39-2.25,.31-.67,.73-1.21,1.28-1.62s1.16-.63,1.83-.67c.79-.04,1.45,.08,2,.38,.55,.29,.97,.73,1.27,1.29,.3,.57,.47,1.25,.52,2.04l.05,.99-5.67,.31-.02,.04c.04,.56,.17,1.05,.38,1.47,.21,.42,.5,.75,.86,.98,.36,.23,.79,.33,1.28,.3,.54-.03,1.01-.13,1.4-.31,.4-.18,.74-.41,1.02-.69l.68,1c-.3,.32-.7,.6-1.2,.83-.5,.24-1.11,.37-1.84,.41Zm-2.58-5.28l4.03-.22v-.21c-.03-.42-.13-.79-.29-1.11-.17-.32-.4-.57-.7-.75-.3-.17-.68-.25-1.12-.23-.36,.02-.67,.14-.95,.36-.28,.22-.5,.52-.67,.88s-.27,.78-.3,1.23l.02,.04Z"/><path d="M163.11,33.54c-.57,0-1.06-.13-1.48-.35s-.76-.55-1.04-.98l-.16,1.12-1.37-.02,.18-11.36-1.31-.25,.02-1.03,2.91,.05-.08,4.9c.28-.38,.63-.67,1.04-.87,.41-.2,.89-.29,1.43-.28,.72,.01,1.33,.22,1.84,.61,.5,.4,.89,.95,1.15,1.66,.26,.71,.38,1.53,.37,2.47v.17c-.02,.84-.16,1.57-.45,2.2-.28,.63-.68,1.11-1.19,1.46-.51,.35-1.13,.51-1.84,.5Zm-.38-1.3c.75,.01,1.31-.25,1.68-.77s.56-1.23,.58-2.11v-.17c.01-.67-.06-1.27-.21-1.78-.15-.51-.39-.91-.72-1.21-.32-.29-.74-.44-1.25-.45-.49,0-.91,.1-1.25,.34-.34,.23-.61,.55-.82,.94l-.06,3.86c.19,.41,.46,.73,.8,.97,.34,.24,.75,.37,1.24,.37Z"/><path d="M167.53,33.51l.08-1.01,1.33-.12,.49-6.23-1.3-.33,.08-1.02,2.73,.22,.05,1.12v.15c.29-.43,.62-.75,1-.97,.38-.22,.81-.32,1.27-.28,.17,.01,.34,.04,.51,.09,.17,.04,.29,.08,.37,.11l-.33,1.46-1.1-.15c-.42-.06-.78,0-1.08,.2-.3,.2-.55,.47-.73,.82l-.39,4.94,1.29,.33-.08,1.02-4.21-.33Z"/><path d="M174.24,34.08l.13-1.01,1.33-.06,.79-6.2-1.28-.39,.13-1.02,2.89,.37-.95,7.44,1.28,.39-.13,1.01-4.19-.53Zm2.6-10.66l.22-1.69,1.66,.21-.21,1.69-1.66-.21Z"/><path d="M182.84,35.52c-.58-.1-1.11-.26-1.59-.47-.48-.21-.99-.49-1.51-.83l.35-2.05,1.18,.21,.07,1.29c.27,.18,.55,.32,.81,.42,.27,.11,.56,.19,.89,.25,.64,.12,1.11,.08,1.43-.12,.32-.19,.51-.47,.58-.83,.06-.34-.03-.65-.26-.94s-.7-.58-1.41-.88c-1-.43-1.7-.88-2.12-1.37s-.57-1.07-.45-1.74c.08-.47,.29-.86,.63-1.18,.34-.32,.77-.54,1.29-.67,.52-.13,1.1-.14,1.75-.02,.65,.12,1.2,.29,1.63,.53s.81,.5,1.1,.82l-.28,1.98-1.18-.21-.05-1.19c-.16-.17-.36-.32-.6-.44s-.53-.21-.85-.27c-.49-.09-.91-.05-1.25,.13-.35,.17-.55,.43-.61,.78-.04,.2-.02,.38,.04,.55,.06,.16,.2,.33,.43,.49,.23,.17,.57,.35,1.03,.55,1.15,.5,1.92,1.01,2.32,1.53,.4,.52,.54,1.1,.42,1.74-.13,.73-.51,1.29-1.14,1.68-.63,.39-1.52,.48-2.68,.28Z"/><path d="M191.2,37.14l.27-.98,1.33,.12,2.64-9.76-1.21-.56,.27-.99,2.81,.76-2.97,10.97,1.21,.56-.27,.98-4.08-1.1Z"/><path d="M199.81,39.84c-.9-.3-1.5-.83-1.82-1.57-.31-.75-.26-1.73,.15-2.95l1.24-3.7-.88-.54,.33-.97,.95,.32,1.51,.51-1.65,4.9c-.3,.88-.37,1.54-.22,1.96,.15,.42,.5,.72,1.05,.91,.54,.18,1.02,.22,1.44,.12,.42-.1,.79-.32,1.1-.66l1.61-4.79-1.04-.59,.33-.97,1.11,.37,1.51,.51-2.39,7.11,.88,.53-.32,.97-2.31-.78,.31-1.26c-.41,.36-.86,.59-1.35,.69-.49,.1-1.01,.06-1.54-.12Z"/><path d="M205.3,41.53l.4-.94,.97,.21,3.66-1.94-1.13-3.86-.72-.51,.4-.94,3.15,1.34-.4,.94-.84-.25,.78,2.76,2.48-1.38-.83-.45,.4-.94,3.1,1.32-.4,.94-.89-.18-3.39,1.91,1.24,4.05,.76,.53-.4,.94-3.41-1.46,.4-.94,1,.33-.85-2.9-2.63,1.42,.83,.45-.4,.94-3.29-1.4Z"/></g><g><polygon points="69.81 82.59 91.05 102 92.68 98.42 116.25 119.25 117.44 116.06 130.46 128.32 120.57 122.91 119.27 125.67 95.25 105.23 93.96 107.99 69.81 82.59"/><polygon points="67.3 219.47 88.55 200.05 90.18 203.64 113.75 182.81 114.93 186 127.95 173.74 118.07 179.15 116.77 176.39 92.75 196.82 91.45 194.07 67.3 219.47"/><polygon points="51.66 137.98 78.74 147.74 78.87 143.8 108.63 153.98 108.5 150.58 125.23 156.9 114.03 155.7 113.89 158.75 83.86 149.11 83.72 152.15 51.66 137.98"/></g><g><polygon points="254.84 82.59 233.59 102 231.96 98.42 208.39 119.25 207.2 116.06 194.18 128.32 204.07 122.91 205.37 125.67 229.39 105.23 230.69 107.99 254.84 82.59"/><polygon points="257.34 219.47 236.1 200.05 234.46 203.64 210.89 182.81 209.71 186 196.69 173.74 206.57 179.15 207.87 176.39 231.89 196.82 233.19 194.07 257.34 219.47"/><polygon points="272.98 137.98 245.9 147.74 245.78 143.8 216.01 153.98 216.14 150.58 199.41 156.9 210.61 155.7 210.75 158.75 240.78 149.11 240.92 152.15 272.98 137.98"/></g><ellipse class="g" cx="159.39" cy="159.75" rx="141.17" ry="139.4"/><circle class="h" cx="158.99" cy="158.99" r="157.22"/><circle class="i" cx="159.74" cy="158.29" r="125.83"/><path class="d" d="M265.48,235.95c-5.97-31.04-207.32-33.53-215.31-.39-3.99,16.56,39.92,43.54,77.26,51.77,71.32,15.72,141.81-31.83,138.05-51.38Z"/><rect class="d" x="148.92" y="147.9" width="28.02" height="11.71"/><g><path d="M77.34,262.58v-2.56l3.32-.57v-15.73l-3.32-.57v-2.58h6.9l.35,2.81,.04,.39c.62-1.13,1.39-2.01,2.31-2.65s1.96-.96,3.14-.96c.42,0,.85,.04,1.29,.11,.44,.08,.76,.15,.95,.21l-.53,3.72-2.79-.16c-1.06-.07-1.95,.17-2.67,.72-.72,.55-1.28,1.29-1.67,2.21v12.48l3.32,.57v2.56h-10.64Z"/><path d="M104.39,263c-2.04,0-3.81-.46-5.31-1.39-1.51-.93-2.67-2.22-3.49-3.88-.82-1.66-1.23-3.57-1.23-5.74v-.9c0-2.09,.43-3.96,1.29-5.61,.86-1.65,2.01-2.95,3.44-3.91,1.43-.96,2.99-1.44,4.69-1.44,1.98,0,3.64,.41,4.98,1.22,1.34,.81,2.34,1.96,3.02,3.43,.68,1.47,1.02,3.21,1.02,5.2v2.5h-14.29l-.06,.1c.03,1.41,.27,2.66,.74,3.75,.47,1.09,1.14,1.95,2.02,2.58s1.94,.94,3.17,.94c1.36,0,2.55-.19,3.57-.58s1.91-.92,2.66-1.6l1.57,2.61c-.79,.76-1.83,1.4-3.12,1.92-1.3,.52-2.85,.78-4.67,.78Zm-5.76-13.64h10.16v-.53c0-1.06-.19-2-.56-2.84-.37-.83-.93-1.49-1.67-1.97-.74-.48-1.67-.72-2.78-.72-.9,0-1.71,.26-2.44,.78-.73,.52-1.34,1.23-1.81,2.13-.48,.9-.79,1.91-.94,3.05l.04,.1Z"/><path d="M124.92,263c-1.48,0-2.86-.15-4.15-.45-1.29-.3-2.66-.76-4.11-1.38l-.04-5.23h3.03l.75,3.15c.76,.31,1.5,.54,2.21,.68,.71,.14,1.48,.21,2.31,.21,1.63,0,2.79-.31,3.5-.94,.71-.62,1.06-1.4,1.06-2.32,0-.87-.36-1.6-1.07-2.21s-2-1.12-3.88-1.54c-2.66-.61-4.62-1.43-5.87-2.45-1.26-1.02-1.88-2.39-1.88-4.1,0-1.19,.35-2.26,1.04-3.21s1.66-1.69,2.89-2.25,2.67-.83,4.31-.83,3.1,.19,4.28,.57c1.19,.38,2.22,.89,3.1,1.53l.2,5.03h-3.01l-.65-2.93c-.48-.35-1.04-.62-1.69-.81s-1.4-.29-2.24-.29c-1.25,0-2.26,.29-3.04,.88-.78,.58-1.17,1.32-1.17,2.2,0,.52,.11,.96,.34,1.34,.22,.38,.65,.72,1.29,1.03,.64,.3,1.57,.61,2.81,.91,3.07,.72,5.21,1.64,6.42,2.75,1.21,1.11,1.82,2.48,1.82,4.11,0,1.86-.69,3.42-2.07,4.67-1.38,1.25-3.54,1.88-6.5,1.88Z"/><path d="M146.84,263c-2.04,0-3.81-.46-5.31-1.39-1.51-.93-2.67-2.22-3.49-3.88-.82-1.66-1.23-3.57-1.23-5.74v-.9c0-2.09,.43-3.96,1.29-5.61,.86-1.65,2.01-2.95,3.44-3.91,1.43-.96,2.99-1.44,4.69-1.44,1.98,0,3.64,.41,4.98,1.22,1.34,.81,2.34,1.96,3.02,3.43,.68,1.47,1.02,3.21,1.02,5.2v2.5h-14.29l-.06,.1c.03,1.41,.27,2.66,.74,3.75,.47,1.09,1.14,1.95,2.02,2.58s1.94,.94,3.17,.94c1.36,0,2.55-.19,3.57-.58s1.91-.92,2.66-1.6l1.57,2.61c-.79,.76-1.83,1.4-3.12,1.92-1.3,.52-2.85,.78-4.67,.78Zm-5.76-13.64h10.16v-.53c0-1.06-.19-2-.56-2.84-.37-.83-.93-1.49-1.67-1.97-.74-.48-1.67-.72-2.78-.72-.9,0-1.71,.26-2.44,.78-.73,.52-1.34,1.23-1.81,2.13-.48,.9-.79,1.91-.94,3.05l.04,.1Z"/><path d="M165.79,263c-2.29,0-4.04-.56-5.23-1.68-1.19-1.12-1.79-2.7-1.79-4.73,0-1.4,.38-2.62,1.15-3.65,.77-1.04,1.88-1.84,3.33-2.42,1.45-.58,3.19-.86,5.21-.86h3.93v-2.16c0-1.33-.4-2.36-1.21-3.09s-1.94-1.1-3.41-1.1c-.92,0-1.72,.11-2.4,.34-.68,.22-1.3,.53-1.85,.93l-.43,3.07h-3.09v-5.05c.99-.8,2.14-1.41,3.46-1.82s2.77-.62,4.38-.62c2.67,0,4.77,.64,6.29,1.91,1.52,1.28,2.28,3.1,2.28,5.47v10.6c0,.29,0,.56,.01,.83,0,.27,.02,.54,.05,.81l2.14,.22v2.56h-5.76c-.12-.6-.22-1.13-.28-1.61-.07-.48-.12-.95-.14-1.42-.77,.99-1.74,1.81-2.9,2.47-1.16,.66-2.4,.99-3.71,.99Zm.59-3.36c1.33,0,2.54-.32,3.64-.96,1.1-.64,1.89-1.4,2.36-2.3v-3.99h-4.07c-1.85,0-3.23,.44-4.15,1.32-.92,.88-1.38,1.87-1.38,2.95,0,.96,.3,1.7,.9,2.21,.6,.51,1.5,.76,2.71,.76Z"/><path d="M181.66,262.58v-2.56l3.32-.57v-15.73l-3.32-.57v-2.58h6.9l.35,2.81,.04,.39c.62-1.13,1.39-2.01,2.31-2.65s1.96-.96,3.14-.96c.42,0,.85,.04,1.29,.11,.44,.08,.76,.15,.95,.21l-.53,3.72-2.79-.16c-1.06-.07-1.95,.17-2.67,.72-.72,.55-1.28,1.29-1.67,2.21v12.48l3.32,.57v2.56h-10.64Z"/><path d="M208.65,263c-1.99,0-3.73-.46-5.21-1.39-1.48-.93-2.63-2.22-3.44-3.88s-1.22-3.57-1.22-5.74v-.85c0-2.09,.39-3.96,1.18-5.62,.79-1.66,1.92-2.96,3.4-3.93,1.48-.96,3.24-1.45,5.29-1.45,1.78,0,3.33,.29,4.67,.88,1.34,.58,2.46,1.38,3.37,2.4l.1,5.29h-3.13l-.69-3.85c-.46-.47-1.04-.85-1.73-1.14-.69-.28-1.51-.43-2.44-.43-1.19,0-2.24,.35-3.14,1.06-.9,.71-1.6,1.65-2.11,2.83s-.75,2.5-.75,3.95v.85c0,1.6,.23,2.99,.7,4.17,.47,1.18,1.14,2.09,2.01,2.74,.88,.64,1.92,.97,3.12,.97,1.36,0,2.48-.37,3.38-1.12s1.44-1.77,1.65-3.07h3.6l.04,.12c-.07,1.26-.44,2.44-1.12,3.54-.68,1.1-1.65,1.98-2.9,2.66-1.26,.67-2.8,1.01-4.63,1.01Z"/><path d="M219.9,262.58v-2.56l3.32-.57v-25.46l-3.32-.57v-2.58h7.33v12.66c.76-1.06,1.69-1.88,2.79-2.46,1.1-.58,2.32-.88,3.66-.88,2.36,0,4.19,.71,5.5,2.12,1.3,1.41,1.95,3.58,1.95,6.51v10.66l3.32,.57v2.56h-10.64v-2.56l3.32-.57v-10.71c0-1.82-.39-3.16-1.17-4.03-.78-.87-1.94-1.3-3.49-1.3-1.1,0-2.1,.26-3,.78-.9,.52-1.65,1.23-2.23,2.13v13.13l3.32,.57v2.56h-10.64Z"/></g><path d="M129.41,188.74v-6.73l8.71-1.5v-61.3l-8.71-1.5v-6.73h34.68c5.66,0,10.45,.85,14.35,2.54,3.9,1.69,6.87,4.14,8.9,7.35s3.05,7.13,3.05,11.76-.99,8.39-2.97,11.49-4.78,5.44-8.42,7.03c-3.63,1.59-7.95,2.43-12.93,2.54l-17.42,.32v26.51l8.71,1.5v6.73h-27.95Zm19.24-43.02h14.38c5.88,0,10.15-1.12,12.83-3.37,2.67-2.24,4.01-5.52,4.01-9.83s-1.28-7.34-3.85-9.73c-2.57-2.39-6.54-3.58-11.92-3.58h-15.44v26.51Zm32.12,43.02l-17.31-38.85,10.53-.11,14.38,31.1,5.4,.96v6.89h-12.99Z"/></g></g></svg>