<?xml version="1.0" encoding="UTF-8"?><svg xmlns="http://www.w3.org/2000/svg" viewBox="0 0 1981.78 456.58"><defs><style>.d{fill:#fff;}</style></defs><g id="a"/><g id="b"><g id="c"><path class="d" d="M79.71,412.96c9.11-.42,17.73-.81,27.08-1.24v-55.62h-25.96v.18h-.2c-.6,8.53-1.2,17.07-1.9,27.07-8.94,.47-18.09,.94-27.24,1.42,0,.1,0,.2,.01,.31l-.31-.02v25.61c-30.66,5.18-27.24,3.02-24.97-26.94,8.24,.44,16.6,.88,24.97,1.32v-.27l.3-.02c-.38-9.28-.81-18.61-1.25-28.49h30.39c0-.06,0-.12,.01-.18h.19c-.71-9.25-1.48-18.55-2.33-28.8h29.03v27.36h28.53v58.79h57.46v-28.63c-9.69-.43-18.3-.81-27.92-1.24v-27.6h57.16c0-.13,0-.26,0-.39h.35c-.45-9.27-.9-18.56-1.38-28.47h28.4v28.47h-27.03c0,.13,.01,.26,.02,.39h-.37c-.15,19.17-.34,38.31-.53,57.44,8.71-.62,17.42-1.23,27.57-1.95,.42-8.53,.85-17.11,1.26-25.44,.92-.73,1.49-1.58,2.16-1.65,8.17-.93,19.43,1.14,23.68-3.39,4.42-4.71,2.07-15.77,2.81-25.86h55.85c0-.09,0-.18,0-.26h.29c.23-9.65,.47-19.3,.7-28.95-.12,0-.23,0-.35,0v-.33c-9.26,.48-18.53,.97-28.44,1.49v-28.46h28.44v26.98l.35-.02c0,.12,0,.24,0,.36,9.42,.12,18.82,.26,28.22,.41v-.27h.27c0-18.3,0-36.6,0-55.89,9.41-.42,18.03-.81,27.7-1.25v-26.76h29.69c-.73,9.13,1.56,20.32-2.99,25.5-4,4.56-15.66,2.38-25.65,3.35v55.05h-28.74v.27c-.09,0-.18,0-.27,0v28.55h-28.93c0,.09,0,.18,0,.26h-.28c-.01,18.34-.01,36.69-.01,56.1h28.32c.4-8.46,.8-17.06,1.29-27.27h56.26v-85.21h56.99v27.6c9.52-.16,19.04-.31,28.56-.47,0-.1,0-.2,0-.3l.31,.02v-26.88h27.91v28.25c-9.42-.46-18.67-.92-27.91-1.37v.28h-.3c.13,9.82,.28,19.67,.44,29.52h29.06v29.01c8.74-.39,17.49-.78,27.68-1.24v-27.98h28.7v-27.99h27.96v27.3c9.41,.43,18.84,.86,29.23,1.33v56.38c17.76,0,34.54,.24,51.29-.31,2.06-.07,5.25-4.2,5.72-6.84,1.16-6.52,1.11-13.26,1.51-19.91-9.4-.58-18.81-1.16-29.7-1.83v-56.39h-28.05v-29.62h57.27c0-.09,0-.17,0-.26,.08,0,.17,.02,.25,.03v-27.53c5.34,0,10.44,.51,15.42-.11,10.17-1.25,13.11,2.98,12.72,12.85-.64,16.08-.08,16.18-16.58,15.98-3.85-.05-7.7-.76-11.55-1.19v.23h-.25c0,9.08,0,18.17,0,28.65h27.37c.49,10.01,.92,18.67,1.41,28.79h27.05v29.33c19.33,.12,38.66,.23,57.99,.35-.03-9.66-.06-19.31-.09-28.97h-.28v-.29h-28.55v-28.97h-.28v-.28h-27.81v-27.26h27.81v27.26h.28v.28c8.99,0,17.99,0,28.55,0v28.98h.28c0,.1,0,.19,0,.29,9.01,0,18.04,0,28.34,0v-29.11h29.78l-.07-55.57-.23,.04v-.22h-28.9v26.9h-28.35v-27.26c8.91-.43,17.57-.86,27.22-1.33,.41-9.15,.79-17.77,1.21-27.06h28.83v28.75h.23c0,.06,0,.12,0,.18,27.15-4.71,27.68-4.22,27.68,22.28,0,10.68,0,21.37,0,33.17h27.55v29.17c19.54-.34,39.08-.68,58.62-1.02,.04-17.94,.04-35.86,.04-56.06-14.36,0-27.39,0-40.43,0q-18.02-.01-17.72-18.38c.05-2.76,.27-5.52,.48-9.55,9.39-.56,18.35-1.09,28.23-1.68v-28.04c10.66,.77,20.27,1.46,29.86,2.15v-.32h.31c-.66-9.35-1.33-18.71-2.06-29.1h57.1v29.1h-55.03c0,.12,.02,.23,.02,.35l-.33-.02c.06,17.85,.06,35.64,.06,54.97,14.55,0,28.89,.7,43.13-.23,10.77-.7,14.72,2.92,13.29,13.49-.62,4.6-.1,9.35-.1,15.31h56.46v-27.92h27.67v-28.24h-55.2v-28.02h55.87c.39,8.27,.81,16.91,1.26,26.44h55.62c.43-8.39,.87-17,1.36-26.56h55.78v27.58h-55.82v28.7h-57.76v28.01h29.03v29.04c9.89-.34,19.77-.67,29.66-1.01-.59-8.85-1.18-17.71-1.87-27.96h57.2v-27.87h28.56v27.79c9.76,0,19.52,0,29.28,0,0-8.82,0-17.63,0-28.21h55.03c.68-3.17,1.19-4.66,1.3-6.17q1.75-24.72,28.11-21.29v26.95c-8.56,.43-17.18,.86-26.54,1.32v26.82c8.6,.42,17.21,.84,26.69,1.3v28.06h-27.48c0,15.79-.69,30.18,.23,44.47,.69,10.79-2.92,14.81-13.54,13.31-4.32-.61-8.79-.1-14.21-.1v27.08h55.21v-26.51h28.69v26.36h28.08v-55.45h-27.12v-28.19h56.44v26.81h28.57v-27.44h27.34v-28.18h-54.78v-29.4h55.53v-27.2h28v27.36h-26.4v27.9h26.45c.56,10.07,1.06,19.02,1.6,28.88h27.72v-28.32h27.9v-27.43c-8.61-.44-17.26-.88-26.9-1.36v-27.43c8.69-.47,17.63-.95,28.15-1.51v-26.8h-.25v-.26h-28.05v-28.12h28.96v-.21h.24c-.55-9.32-1.16-18.69-1.82-28.88h28.54v27.49c-8.81,.45-17.77,.91-26.73,1.38,0,.08,0,.15,.01,.23h-.25c-.3,9.37-.6,18.75-.9,28.12h.24v.26c18.25,0,36.52,0,56.25,0v-28.74h28.13v27.8h-26.53v28.39h27.62c-.6,9.73-1.12,18.19-1.63,26.64,15.36,.59,30.72,1.44,46.08,1.66,13.83,.2,27.68-.3,41.52-.49v-.26h.23c-.41-8.28-.82-16.58-1.29-26.18-8.89-.48-17.5-.95-27.06-1.46v-27.89h55.9v-28.32h28.17v27.65c-8.94,.43-17.57,.85-27.52,1.34v56.43c-10.35-.57-19.28-1.06-28.19-1.55v.24c-.07,0-.15,0-.23,0,0,9.37,0,18.76,0,29.45h-28.64v28.1h.28v.3h27.15v28.28h-27.15v-28.28h-.28v-.3c-9.09-.02-18.21-.02-28.62-.02v-26.93h-28.28c-.39,8.62-.78,17.28-1.24,27.4h-27.63v28.46h-28.69c.59,10.78,1.13,20.46,1.66,30.13,8.5-.6,17.01-1.19,26.95-1.89v38.64l56.4,1.12v-10.21h29.45v10.79l29.24,.58v-12.18h54.86v-27.72h-26.79v-85.94h27.53v55.86h28.71v-27.63h28.52v-.27h.29c.23-9.7,.47-19.41,.7-29.11h-.27v-.29c-9.23,.48-18.5,1-28.53,1.56v-28.88h27.48v-55.65c-.09,0-.18,.01-.27,.02v-.32c-8.63-.47-17.28-.95-26.9-1.47v-27.61h26.9v29.09h.27v.3c9.26-.6,18.57-1.24,28.73-1.95v57.69h-27.68v27.23h.28v.29h49.45v29.11h-50.16v.27h-.29c0,9.01,0,18.04,0,28.42h29.22v29.83c6.68-.48,13.36-.96,21.01-1.52v28.62c-6.56,.46-12.84,.91-21.01,1.49v13.59l46.02,.91c0-152.19,0-304.39,0-456.58C1321.19,0,660.59,0,0,0,0,139.08,0,278.17,0,417.25l79.43,1.58c.09-1.92,.18-3.86,.27-5.87Zm1655.05-.72h-27.06v-27.68h27.06v27.68Zm201.41-256.28h20.63v27.4h-20.63v-27.4Zm-57.28-28.44h27.59v26.77h-27.59v-26.77Zm-85.42,28.47h26.97v27.34h-26.97v-27.34Zm-57.27-56.71h27.42v27.08h-27.42v-27.08Zm-171.46,56.65h27.11v27.44h-27.11v-27.44Zm-115.26,141.65h-27.34v-27.03h27.34v27.03Zm58.37-113.05h27.34v27.17h-27.34v-27.17Zm-57.75,28.17v.3h28.77v28.73h.27v.28h27.73v27.08h-27.73v-27.08h-.27v-.28c-8.97,0-17.96,0-28.77,0v-28.74h-.31v-.31c-9.64-.15-19.27-.31-28.91-.47v.33h-.31c.4,9,.81,18.01,1.25,27.97h-28.49v-27.97h27.24c0-.11,0-.22-.01-.33,.11,0,.22,0,.32,0-.02-9.01-.02-18.02-.02-27.74h28.93v28.22c.1,0,.2,0,.31,0Zm-29.01-84.8v26.53h-26.93c-3.61-31.82-4.05-29.12,26.93-26.53Zm-84.3,27.83h27.15v27.84h-27.15v-27.84Zm-29.93,57.28h57.03v27.98h-27.47v28.09h-57.12v-27.69h27.55v-28.38Zm-27.88-113.72h27.86v26.93h-27.86v-26.93Zm-56.6,56.55h26.88v56.35h-26.88v-56.35Zm-57.2,28.76h27.22v27.49h-27.22v-27.49Zm-28.6-57.98c6.98,0,12.92-.11,18.86,.05,2.72,.07,5.42,.65,8.69,1.07v26.51h-27.55v-27.63Zm-142.69,29.46h27.31v27.48h-27.31v-27.48Zm-58.85,84.67h-27.3v-27.81h27.3v27.81Zm-27.33-84.76h27.87v27.06h-27.87v-27.06Zm-85.36-28.49h27.62v27.25h-27.62v-27.25Zm-57.41,57.11h27.52c.38,8.51,.77,17.11,1.22,27.09,9.49,.45,18.81,.89,28.12,1.33,0-.1,0-.19,0-.29h.3v-28.02h27.65v28.02h-27.65v.31h-.3c.01,9.01,.01,18.03,.01,27.71h-56.87v-56.14Zm-27.89-85.76h26.47v26.16c-25.76,7.75-30.53,3.34-26.47-26.16Zm-57.34,85.31h28.72c0-.1,0-.21,0-.31h.3c-.59-8.97-1.18-17.95-1.84-27.89h28.35v27.89h-26.51c0,.1,.01,.21,.02,.31h-.33c.02,18.6,.02,37.2,.02,56.52h-28.75v-56.52Zm-29.15-56.69h27.95v26.85h-27.95v-26.85Zm-29.18,114.62h27.92v27.88h-27.36v27.33h-56.73v-27.65h56.17v-27.55Zm-.68-57.45v27.86h-27.5v28.37h-28.12v-28.07h26.97c.46-10.05,.86-18.67,1.3-28.16h27.35Zm-55.63-57.12h27.25v27.3h-27.25v-27.3Zm-114.16,114.69h27.76v-.28h.29c.02-9.3,.02-18.64,.02-28.77h28.72v-.29h.3c.02-9.06,.02-18.15,.02-28.19h27.19v28.19h-27.21v.29h-.3v28.77h-28.74c0,.09,0,.19,0,.28h-.29v26.9h-27.76v-26.9Zm-1.32-30.16h-55.39v-27.59h55.39v27.59Zm-55.56-84.25c30.69-2.3,29.65-5.21,26.57,26.76h-26.57v-26.76Zm-114.18,85.04h27.2v-28.27h28.74v28.27h28.23v28.75h-28.21v27.3h-28.75v-27.27h-27.21v-28.78Zm-1.8,84.61h-55.05v-27.22h55.05v27.22Zm-27.52-198.55h26.51c4.36,31.77,4.22,29.92-25.93,26.82-.19-4.06-.46-8.31-.56-12.56-.1-4.32-.02-8.65-.02-14.26Zm-56.25,85.68h28.19v27.71h.32v.3c8.69-.01,17.38-.01,27.09-.01v28.12h-27.09v-28.1h-.32v-.3h-28.19v-27.71Zm-29.04-56.75h27.46v26.69h-27.46v-26.69Zm-28.1,114.11h27.41v55.11c9.85,.48,18.46,.9,28,1.37v27.76h-55.41v-84.24Zm-1.84-85.77v27.16h-26.76c-1.71-31.5-5.08-29.55,26.76-27.16Zm-55.45,56.99h28.22c0,17.46,.2,34.26-.27,51.04-.05,1.95-3.67,5.22-5.89,5.44-7.06,.71-14.24,.26-22.06,.26v-56.74Zm-28.61-114.17h27.44v27.27h-27.44v-27.27Zm-25.21,56.8h24.07v27.56H26.02v-27.56Zm.3,117.64c4.47-4.58,14.82-3.42,23.71-4.94v30.82c-8.79-1.4-19.14-.14-23.64-4.67-3.8-3.83-3.85-17.33-.07-21.21Z"/></g></g></svg>